<?xml version="1.0" encoding="utf-8" standalone="no"?>
<!DOCTYPE svg PUBLIC "-//W3C//DTD SVG 1.1//EN"
  "http://www.w3.org/Graphics/SVG/1.1/DTD/svg11.dtd">
<svg xmlns:xlink="http://www.w3.org/1999/xlink" width="795.056562pt" height="321.195679pt" viewBox="0 0 795.056562 321.195679" xmlns="http://www.w3.org/2000/svg" version="1.1">
 <metadata>
  <rdf:RDF xmlns:dc="http://purl.org/dc/elements/1.1/" xmlns:cc="http://creativecommons.org/ns#" xmlns:rdf="http://www.w3.org/1999/02/22-rdf-syntax-ns#">
   <cc:Work>
    <dc:type rdf:resource="http://purl.org/dc/dcmitype/StillImage"/>
    <dc:date>2026-05-26T16:18:36.375117</dc:date>
    <dc:format>image/svg+xml</dc:format>
    <dc:creator>
     <cc:Agent>
      <dc:title>Matplotlib v3.10.9, https://matplotlib.org/</dc:title>
     </cc:Agent>
    </dc:creator>
   </cc:Work>
  </rdf:RDF>
 </metadata>
 <defs>
  <style type="text/css">*{stroke-linejoin: round; stroke-linecap: butt}</style>
 </defs>
 <g id="figure_1">
  <g id="patch_1">
   <path d="M 0 321.195679 
L 795.056562 321.195679 
L 795.056562 0 
L 0 0 
z
" style="fill: #ffffff"/>
  </g>
  <g id="axes_1">
   <g id="patch_2">
    <path d="M 48.885 271.506096 
L 389.905 271.506096 
L 389.905 48.735 
L 48.885 48.735 
z
" style="fill: #ffffff"/>
   </g>
   <g id="patch_3">
    <path d="M 64.385909 271.506096 
L 92.56938 271.506096 
L 92.56938 144.898911 
L 64.385909 144.898911 
z
" clip-path="url(#p3b4a424c4e)" style="fill: #ffc107; stroke: #ffffff; stroke-width: 0.5; stroke-linejoin: miter"/>
   </g>
   <g id="patch_4">
    <path d="M 111.358361 271.506096 
L 139.541832 271.506096 
L 139.541832 73.078109 
L 111.358361 73.078109 
z
" clip-path="url(#p3b4a424c4e)" style="fill: #f44336; stroke: #ffffff; stroke-width: 0.5; stroke-linejoin: miter"/>
   </g>
   <g id="patch_5">
    <path d="M 158.330813 271.506096 
L 186.514284 271.506096 
L 186.514284 78.219128 
L 158.330813 78.219128 
z
" clip-path="url(#p3b4a424c4e)" style="fill: #f44336; stroke: #ffffff; stroke-width: 0.5; stroke-linejoin: miter"/>
   </g>
   <g id="patch_6">
    <path d="M 205.303264 271.506096 
L 233.486736 271.506096 
L 233.486736 59.343147 
L 205.303264 59.343147 
z
" clip-path="url(#p3b4a424c4e)" style="fill: #f44336; stroke: #ffffff; stroke-width: 0.5; stroke-linejoin: miter"/>
   </g>
   <g id="patch_7">
    <path d="M 252.275716 271.506096 
L 280.459187 271.506096 
L 280.459187 271.506096 
L 252.275716 271.506096 
z
" clip-path="url(#p3b4a424c4e)" style="fill: #4caf50; stroke: #ffffff; stroke-width: 0.5; stroke-linejoin: miter"/>
   </g>
   <g id="patch_8">
    <path d="M 299.248168 271.506096 
L 327.431639 271.506096 
L 327.431639 271.506096 
L 299.248168 271.506096 
z
" clip-path="url(#p3b4a424c4e)" style="fill: #4caf50; stroke: #ffffff; stroke-width: 0.5; stroke-linejoin: miter"/>
   </g>
   <g id="patch_9">
    <path d="M 346.22062 271.506096 
L 374.404091 271.506096 
L 374.404091 271.506096 
L 346.22062 271.506096 
z
" clip-path="url(#p3b4a424c4e)" style="fill: #4caf50; stroke: #ffffff; stroke-width: 0.5; stroke-linejoin: miter"/>
   </g>
   <g id="matplotlib.axis_1">
    <g id="xtick_1">
     <g id="line2d_1">
      <path d="M 78.477645 271.506096 
L 78.477645 48.735 
" clip-path="url(#p3b4a424c4e)" style="fill: none; stroke-dasharray: 2.96,1.28; stroke-dashoffset: 0; stroke: #b0b0b0; stroke-opacity: 0.25; stroke-width: 0.8"/>
     </g>
     <g id="line2d_2">
      <defs>
       <path id="m865dd82607" d="M 0 0 
L 0 3.5 
" style="stroke: #000000; stroke-width: 0.8"/>
      </defs>
      <g>
       <use xlink:href="#m865dd82607" x="78.477645" y="271.506096" style="stroke: #000000; stroke-width: 0.8"/>
      </g>
     </g>
     <g id="text_1">
      <!-- Random -->
      <g transform="translate(52.250719 297.834279) rotate(-30) scale(0.07 -0.07)">
       <defs>
        <path id="DejaVuSerif-52" d="M 3066 2316 
Q 3284 2256 3442 2114 
Q 3600 1972 3725 1716 
L 4403 331 
L 4972 331 
L 4972 0 
L 3872 0 
L 3144 1484 
Q 2934 1916 2759 2042 
Q 2584 2169 2278 2169 
L 1581 2169 
L 1581 331 
L 2241 331 
L 2241 0 
L 353 0 
L 353 331 
L 947 331 
L 947 4331 
L 353 4331 
L 353 4666 
L 2719 4666 
Q 3400 4666 3770 4341 
Q 4141 4016 4141 3419 
Q 4141 2938 3870 2661 
Q 3600 2384 3066 2316 
z
M 1581 2503 
L 2503 2503 
Q 2975 2503 3200 2726 
Q 3425 2950 3425 3419 
Q 3425 3888 3200 4109 
Q 2975 4331 2503 4331 
L 1581 4331 
L 1581 2503 
z
" transform="scale(0.015625)"/>
        <path id="DejaVuSerif-61" d="M 2547 1044 
L 2547 1747 
L 1806 1747 
Q 1378 1747 1168 1562 
Q 959 1378 959 997 
Q 959 650 1171 447 
Q 1384 244 1747 244 
Q 2106 244 2326 466 
Q 2547 688 2547 1044 
z
M 3122 2075 
L 3122 331 
L 3634 331 
L 3634 0 
L 2547 0 
L 2547 359 
Q 2356 128 2106 18 
Q 1856 -91 1522 -91 
Q 969 -91 644 203 
Q 319 497 319 997 
Q 319 1513 691 1797 
Q 1063 2081 1741 2081 
L 2547 2081 
L 2547 2309 
Q 2547 2688 2317 2895 
Q 2088 3103 1672 3103 
Q 1328 3103 1125 2947 
Q 922 2791 872 2484 
L 575 2484 
L 575 3156 
Q 875 3284 1158 3348 
Q 1441 3413 1709 3413 
Q 2400 3413 2761 3070 
Q 3122 2728 3122 2075 
z
" transform="scale(0.015625)"/>
        <path id="DejaVuSerif-6e" d="M 263 0 
L 263 331 
L 781 331 
L 781 2988 
L 231 2988 
L 231 3322 
L 1356 3322 
L 1356 2731 
Q 1516 3069 1770 3241 
Q 2025 3413 2363 3413 
Q 2913 3413 3172 3097 
Q 3431 2781 3431 2113 
L 3431 331 
L 3944 331 
L 3944 0 
L 2356 0 
L 2356 331 
L 2853 331 
L 2853 1931 
Q 2853 2541 2703 2767 
Q 2553 2994 2175 2994 
Q 1775 2994 1565 2701 
Q 1356 2409 1356 1850 
L 1356 331 
L 1856 331 
L 1856 0 
L 263 0 
z
" transform="scale(0.015625)"/>
        <path id="DejaVuSerif-64" d="M 3359 331 
L 3909 331 
L 3909 0 
L 2784 0 
L 2784 519 
Q 2616 206 2355 57 
Q 2094 -91 1709 -91 
Q 1097 -91 708 395 
Q 319 881 319 1663 
Q 319 2444 706 2928 
Q 1094 3413 1709 3413 
Q 2094 3413 2355 3264 
Q 2616 3116 2784 2803 
L 2784 4531 
L 2241 4531 
L 2241 4863 
L 3359 4863 
L 3359 331 
z
M 2784 1497 
L 2784 1825 
Q 2784 2422 2554 2737 
Q 2325 3053 1888 3053 
Q 1444 3053 1217 2703 
Q 991 2353 991 1663 
Q 991 975 1217 622 
Q 1444 269 1888 269 
Q 2325 269 2554 583 
Q 2784 897 2784 1497 
z
" transform="scale(0.015625)"/>
        <path id="DejaVuSerif-6f" d="M 1925 219 
Q 2388 219 2623 584 
Q 2859 950 2859 1663 
Q 2859 2375 2623 2739 
Q 2388 3103 1925 3103 
Q 1463 3103 1227 2739 
Q 991 2375 991 1663 
Q 991 950 1228 584 
Q 1466 219 1925 219 
z
M 1925 -91 
Q 1200 -91 759 389 
Q 319 869 319 1663 
Q 319 2456 758 2934 
Q 1197 3413 1925 3413 
Q 2653 3413 3092 2934 
Q 3531 2456 3531 1663 
Q 3531 869 3092 389 
Q 2653 -91 1925 -91 
z
" transform="scale(0.015625)"/>
        <path id="DejaVuSerif-6d" d="M 3316 2675 
Q 3481 3041 3739 3227 
Q 3997 3413 4341 3413 
Q 4863 3413 5119 3089 
Q 5375 2766 5375 2113 
L 5375 331 
L 5894 331 
L 5894 0 
L 4300 0 
L 4300 331 
L 4800 331 
L 4800 2047 
Q 4800 2556 4650 2772 
Q 4500 2988 4153 2988 
Q 3769 2988 3567 2697 
Q 3366 2406 3366 1850 
L 3366 331 
L 3866 331 
L 3866 0 
L 2291 0 
L 2291 331 
L 2791 331 
L 2791 2069 
Q 2791 2566 2641 2777 
Q 2491 2988 2144 2988 
Q 1759 2988 1557 2697 
Q 1356 2406 1356 1850 
L 1356 331 
L 1856 331 
L 1856 0 
L 263 0 
L 263 331 
L 781 331 
L 781 2994 
L 231 2994 
L 231 3322 
L 1356 3322 
L 1356 2731 
Q 1516 3063 1762 3238 
Q 2009 3413 2322 3413 
Q 2709 3413 2968 3220 
Q 3228 3028 3316 2675 
z
" transform="scale(0.015625)"/>
       </defs>
       <use xlink:href="#DejaVuSerif-52"/>
       <use xlink:href="#DejaVuSerif-61" transform="translate(77.542969 0)"/>
       <use xlink:href="#DejaVuSerif-6e" transform="translate(137.162109 0)"/>
       <use xlink:href="#DejaVuSerif-64" transform="translate(201.566406 0)"/>
       <use xlink:href="#DejaVuSerif-6f" transform="translate(265.580078 0)"/>
       <use xlink:href="#DejaVuSerif-6d" transform="translate(325.785156 0)"/>
      </g>
     </g>
    </g>
    <g id="xtick_2">
     <g id="line2d_3">
      <path d="M 125.450096 271.506096 
L 125.450096 48.735 
" clip-path="url(#p3b4a424c4e)" style="fill: none; stroke-dasharray: 2.96,1.28; stroke-dashoffset: 0; stroke: #b0b0b0; stroke-opacity: 0.25; stroke-width: 0.8"/>
     </g>
     <g id="line2d_4">
      <g>
       <use xlink:href="#m865dd82607" x="125.450096" y="271.506096" style="stroke: #000000; stroke-width: 0.8"/>
      </g>
     </g>
     <g id="text_2">
      <!-- Pop -->
      <g transform="translate(113.355622 289.674904) rotate(-30) scale(0.07 -0.07)">
       <defs>
        <path id="DejaVuSerif-50" d="M 1581 2375 
L 2406 2375 
Q 2872 2375 3115 2626 
Q 3359 2878 3359 3353 
Q 3359 3831 3115 4081 
Q 2872 4331 2406 4331 
L 1581 4331 
L 1581 2375 
z
M 353 0 
L 353 331 
L 947 331 
L 947 4331 
L 353 4331 
L 353 4666 
L 2559 4666 
Q 3259 4666 3668 4311 
Q 4078 3956 4078 3353 
Q 4078 2753 3668 2397 
Q 3259 2041 2559 2041 
L 1581 2041 
L 1581 331 
L 2303 331 
L 2303 0 
L 353 0 
z
" transform="scale(0.015625)"/>
        <path id="DejaVuSerif-70" d="M 1313 1825 
L 1313 1497 
Q 1313 897 1542 583 
Q 1772 269 2209 269 
Q 2650 269 2876 622 
Q 3103 975 3103 1663 
Q 3103 2353 2876 2703 
Q 2650 3053 2209 3053 
Q 1772 3053 1542 2737 
Q 1313 2422 1313 1825 
z
M 738 2988 
L 184 2988 
L 184 3322 
L 1313 3322 
L 1313 2803 
Q 1481 3116 1742 3264 
Q 2003 3413 2388 3413 
Q 3000 3413 3387 2928 
Q 3775 2444 3775 1663 
Q 3775 881 3387 395 
Q 3000 -91 2388 -91 
Q 2003 -91 1742 57 
Q 1481 206 1313 519 
L 1313 -997 
L 1856 -997 
L 1856 -1331 
L 184 -1331 
L 184 -997 
L 738 -997 
L 738 2988 
z
" transform="scale(0.015625)"/>
       </defs>
       <use xlink:href="#DejaVuSerif-50"/>
       <use xlink:href="#DejaVuSerif-6f" transform="translate(63.285156 0)"/>
       <use xlink:href="#DejaVuSerif-70" transform="translate(123.490234 0)"/>
      </g>
     </g>
    </g>
    <g id="xtick_3">
     <g id="line2d_5">
      <path d="M 172.422548 271.506096 
L 172.422548 48.735 
" clip-path="url(#p3b4a424c4e)" style="fill: none; stroke-dasharray: 2.96,1.28; stroke-dashoffset: 0; stroke: #b0b0b0; stroke-opacity: 0.25; stroke-width: 0.8"/>
     </g>
     <g id="line2d_6">
      <g>
       <use xlink:href="#m865dd82607" x="172.422548" y="271.506096" style="stroke: #000000; stroke-width: 0.8"/>
      </g>
     </g>
     <g id="text_3">
      <!-- ItemKNN -->
      <g transform="translate(142.389711 300.031622) rotate(-30) scale(0.07 -0.07)">
       <defs>
        <path id="DejaVuSerif-49" d="M 1581 331 
L 2175 331 
L 2175 0 
L 353 0 
L 353 331 
L 947 331 
L 947 4331 
L 353 4331 
L 353 4666 
L 2175 4666 
L 2175 4331 
L 1581 4331 
L 1581 331 
z
" transform="scale(0.015625)"/>
        <path id="DejaVuSerif-74" d="M 691 2988 
L 184 2988 
L 184 3322 
L 691 3322 
L 691 4353 
L 1269 4353 
L 1269 3322 
L 2350 3322 
L 2350 2988 
L 1269 2988 
L 1269 878 
Q 1269 456 1350 337 
Q 1431 219 1650 219 
Q 1875 219 1978 351 
Q 2081 484 2088 781 
L 2522 781 
Q 2497 328 2275 118 
Q 2053 -91 1600 -91 
Q 1103 -91 897 129 
Q 691 350 691 878 
L 691 2988 
z
" transform="scale(0.015625)"/>
        <path id="DejaVuSerif-65" d="M 3469 1600 
L 991 1600 
L 991 1575 
Q 991 903 1244 561 
Q 1497 219 1991 219 
Q 2369 219 2611 417 
Q 2853 616 2950 1006 
L 3413 1006 
Q 3275 459 2904 184 
Q 2534 -91 1931 -91 
Q 1203 -91 761 389 
Q 319 869 319 1663 
Q 319 2450 753 2931 
Q 1188 3413 1894 3413 
Q 2647 3413 3050 2948 
Q 3453 2484 3469 1600 
z
M 2791 1931 
Q 2772 2513 2545 2808 
Q 2319 3103 1894 3103 
Q 1497 3103 1269 2806 
Q 1041 2509 991 1931 
L 2791 1931 
z
" transform="scale(0.015625)"/>
        <path id="DejaVuSerif-4b" d="M 353 0 
L 353 331 
L 947 331 
L 947 4331 
L 353 4331 
L 353 4666 
L 2175 4666 
L 2175 4331 
L 1581 4331 
L 1581 2566 
L 3591 4331 
L 3084 4331 
L 3084 4666 
L 4634 4666 
L 4634 4331 
L 4109 4331 
L 2106 2572 
L 4347 331 
L 4878 331 
L 4878 0 
L 3794 0 
L 1581 2216 
L 1581 331 
L 2175 331 
L 2175 0 
L 353 0 
z
" transform="scale(0.015625)"/>
        <path id="DejaVuSerif-4e" d="M 313 0 
L 313 331 
L 941 331 
L 941 4331 
L 313 4331 
L 313 4666 
L 1509 4666 
L 4306 984 
L 4306 4331 
L 3681 4331 
L 3681 4666 
L 5319 4666 
L 5319 4331 
L 4691 4331 
L 4691 -91 
L 4313 -91 
L 1325 3841 
L 1325 331 
L 1953 331 
L 1953 0 
L 313 0 
z
" transform="scale(0.015625)"/>
       </defs>
       <use xlink:href="#DejaVuSerif-49"/>
       <use xlink:href="#DejaVuSerif-74" transform="translate(39.501953 0)"/>
       <use xlink:href="#DejaVuSerif-65" transform="translate(79.6875 0)"/>
       <use xlink:href="#DejaVuSerif-6d" transform="translate(138.867188 0)"/>
       <use xlink:href="#DejaVuSerif-4b" transform="translate(233.691406 0)"/>
       <use xlink:href="#DejaVuSerif-4e" transform="translate(308.398438 0)"/>
       <use xlink:href="#DejaVuSerif-4e" transform="translate(395.898438 0)"/>
      </g>
     </g>
    </g>
    <g id="xtick_4">
     <g id="line2d_7">
      <path d="M 219.395 271.506096 
L 219.395 48.735 
" clip-path="url(#p3b4a424c4e)" style="fill: none; stroke-dasharray: 2.96,1.28; stroke-dashoffset: 0; stroke: #b0b0b0; stroke-opacity: 0.25; stroke-width: 0.8"/>
     </g>
     <g id="line2d_8">
      <g>
       <use xlink:href="#m865dd82607" x="219.395" y="271.506096" style="stroke: #000000; stroke-width: 0.8"/>
      </g>
     </g>
     <g id="text_4">
      <!-- SeqNgram -->
      <g transform="translate(185.550058 302.117613) rotate(-30) scale(0.07 -0.07)">
       <defs>
        <path id="DejaVuSerif-53" d="M 594 225 
L 594 1288 
L 953 1284 
Q 969 753 1261 498 
Q 1553 244 2150 244 
Q 2706 244 2998 464 
Q 3291 684 3291 1106 
Q 3291 1444 3114 1625 
Q 2938 1806 2369 1978 
L 1753 2163 
Q 1084 2366 811 2669 
Q 538 2972 538 3500 
Q 538 4094 959 4422 
Q 1381 4750 2144 4750 
Q 2469 4750 2856 4679 
Q 3244 4609 3681 4475 
L 3681 3481 
L 3328 3481 
Q 3275 3975 2998 4195 
Q 2722 4416 2156 4416 
Q 1663 4416 1405 4214 
Q 1147 4013 1147 3628 
Q 1147 3294 1340 3103 
Q 1534 2913 2163 2725 
L 2741 2553 
Q 3375 2363 3645 2067 
Q 3916 1772 3916 1275 
Q 3916 597 3481 253 
Q 3047 -91 2188 -91 
Q 1803 -91 1404 -12 
Q 1006 66 594 225 
z
" transform="scale(0.015625)"/>
        <path id="DejaVuSerif-71" d="M 3359 2988 
L 3359 -997 
L 3909 -997 
L 3909 -1331 
L 2241 -1331 
L 2241 -997 
L 2784 -997 
L 2784 519 
Q 2616 206 2355 57 
Q 2094 -91 1709 -91 
Q 1097 -91 708 395 
Q 319 881 319 1663 
Q 319 2444 706 2928 
Q 1094 3413 1709 3413 
Q 2094 3413 2355 3264 
Q 2616 3116 2784 2803 
L 2784 3322 
L 3909 3322 
L 3909 2988 
L 3359 2988 
z
M 2784 1825 
Q 2784 2422 2554 2737 
Q 2325 3053 1888 3053 
Q 1444 3053 1217 2703 
Q 991 2353 991 1663 
Q 991 975 1217 622 
Q 1444 269 1888 269 
Q 2325 269 2554 583 
Q 2784 897 2784 1497 
L 2784 1825 
z
" transform="scale(0.015625)"/>
        <path id="DejaVuSerif-67" d="M 3359 2988 
L 3359 72 
Q 3359 -644 2965 -1033 
Q 2572 -1422 1844 -1422 
Q 1516 -1422 1216 -1362 
Q 916 -1303 641 -1184 
L 641 -488 
L 941 -488 
Q 997 -813 1206 -963 
Q 1416 -1113 1806 -1113 
Q 2313 -1113 2548 -827 
Q 2784 -541 2784 72 
L 2784 519 
Q 2616 206 2355 57 
Q 2094 -91 1709 -91 
Q 1097 -91 708 395 
Q 319 881 319 1663 
Q 319 2444 706 2928 
Q 1094 3413 1709 3413 
Q 2094 3413 2355 3264 
Q 2616 3116 2784 2803 
L 2784 3322 
L 3909 3322 
L 3909 2988 
L 3359 2988 
z
M 2784 1825 
Q 2784 2422 2554 2737 
Q 2325 3053 1888 3053 
Q 1444 3053 1217 2703 
Q 991 2353 991 1663 
Q 991 975 1217 622 
Q 1444 269 1888 269 
Q 2325 269 2554 583 
Q 2784 897 2784 1497 
L 2784 1825 
z
" transform="scale(0.015625)"/>
        <path id="DejaVuSerif-72" d="M 3059 3328 
L 3059 2497 
L 2728 2497 
Q 2713 2744 2591 2866 
Q 2469 2988 2234 2988 
Q 1809 2988 1582 2694 
Q 1356 2400 1356 1850 
L 1356 331 
L 2022 331 
L 2022 0 
L 263 0 
L 263 331 
L 781 331 
L 781 2994 
L 231 2994 
L 231 3322 
L 1356 3322 
L 1356 2731 
Q 1525 3078 1790 3245 
Q 2056 3413 2438 3413 
Q 2578 3413 2733 3391 
Q 2888 3369 3059 3328 
z
" transform="scale(0.015625)"/>
       </defs>
       <use xlink:href="#DejaVuSerif-53"/>
       <use xlink:href="#DejaVuSerif-65" transform="translate(68.505859 0)"/>
       <use xlink:href="#DejaVuSerif-71" transform="translate(127.685547 0)"/>
       <use xlink:href="#DejaVuSerif-4e" transform="translate(191.699219 0)"/>
       <use xlink:href="#DejaVuSerif-67" transform="translate(279.199219 0)"/>
       <use xlink:href="#DejaVuSerif-72" transform="translate(343.212891 0)"/>
       <use xlink:href="#DejaVuSerif-61" transform="translate(391.015625 0)"/>
       <use xlink:href="#DejaVuSerif-6d" transform="translate(450.634766 0)"/>
      </g>
     </g>
    </g>
    <g id="xtick_5">
     <g id="line2d_9">
      <path d="M 266.367452 271.506096 
L 266.367452 48.735 
" clip-path="url(#p3b4a424c4e)" style="fill: none; stroke-dasharray: 2.96,1.28; stroke-dashoffset: 0; stroke: #b0b0b0; stroke-opacity: 0.25; stroke-width: 0.8"/>
     </g>
     <g id="line2d_10">
      <g>
       <use xlink:href="#m865dd82607" x="266.367452" y="271.506096" style="stroke: #000000; stroke-width: 0.8"/>
      </g>
     </g>
     <g id="text_5">
      <!-- LLM-Base -->
      <g transform="translate(230.645035 301.053732) rotate(-30) scale(0.07 -0.07)">
       <defs>
        <path id="DejaVuSerif-4c" d="M 353 0 
L 353 331 
L 947 331 
L 947 4331 
L 353 4331 
L 353 4666 
L 2175 4666 
L 2175 4331 
L 1581 4331 
L 1581 384 
L 3713 384 
L 3713 1166 
L 4097 1166 
L 4097 0 
L 353 0 
z
" transform="scale(0.015625)"/>
        <path id="DejaVuSerif-4d" d="M 353 0 
L 353 331 
L 947 331 
L 947 4331 
L 319 4331 
L 319 4666 
L 1678 4666 
L 3316 1344 
L 4953 4666 
L 6228 4666 
L 6228 4331 
L 5606 4331 
L 5606 331 
L 6203 331 
L 6203 0 
L 4378 0 
L 4378 331 
L 4972 331 
L 4972 3938 
L 3372 684 
L 2931 684 
L 1331 3938 
L 1331 331 
L 1925 331 
L 1925 0 
L 353 0 
z
" transform="scale(0.015625)"/>
        <path id="DejaVuSerif-2d" d="M 281 1959 
L 1881 1959 
L 1881 1472 
L 281 1472 
L 281 1959 
z
" transform="scale(0.015625)"/>
        <path id="DejaVuSerif-42" d="M 1581 331 
L 2516 331 
Q 3078 331 3337 575 
Q 3597 819 3597 1350 
Q 3597 1878 3339 2120 
Q 3081 2363 2516 2363 
L 1581 2363 
L 1581 331 
z
M 1581 2694 
L 2375 2694 
Q 2888 2694 3123 2891 
Q 3359 3088 3359 3513 
Q 3359 3941 3123 4136 
Q 2888 4331 2375 4331 
L 1581 4331 
L 1581 2694 
z
M 353 0 
L 353 331 
L 947 331 
L 947 4331 
L 353 4331 
L 353 4666 
L 2656 4666 
Q 3363 4666 3720 4377 
Q 4078 4088 4078 3513 
Q 4078 3097 3829 2850 
Q 3581 2603 3103 2547 
Q 3697 2472 4005 2167 
Q 4313 1863 4313 1350 
Q 4313 656 3875 328 
Q 3438 0 2509 0 
L 353 0 
z
" transform="scale(0.015625)"/>
        <path id="DejaVuSerif-73" d="M 359 184 
L 359 959 
L 691 959 
Q 703 588 923 403 
Q 1144 219 1575 219 
Q 1963 219 2166 364 
Q 2369 509 2369 788 
Q 2369 1006 2220 1140 
Q 2072 1275 1594 1428 
L 1178 1569 
Q 750 1706 558 1912 
Q 366 2119 366 2438 
Q 366 2894 700 3153 
Q 1034 3413 1625 3413 
Q 1888 3413 2178 3344 
Q 2469 3275 2778 3144 
L 2778 2419 
L 2447 2419 
Q 2434 2741 2221 2922 
Q 2009 3103 1644 3103 
Q 1281 3103 1095 2975 
Q 909 2847 909 2591 
Q 909 2381 1050 2254 
Q 1191 2128 1613 1997 
L 2069 1856 
Q 2541 1709 2748 1489 
Q 2956 1269 2956 922 
Q 2956 450 2595 179 
Q 2234 -91 1600 -91 
Q 1278 -91 972 -22 
Q 666 47 359 184 
z
" transform="scale(0.015625)"/>
       </defs>
       <use xlink:href="#DejaVuSerif-4c"/>
       <use xlink:href="#DejaVuSerif-4c" transform="translate(66.40625 0)"/>
       <use xlink:href="#DejaVuSerif-4d" transform="translate(132.8125 0)"/>
       <use xlink:href="#DejaVuSerif-2d" transform="translate(235.205078 0)"/>
       <use xlink:href="#DejaVuSerif-42" transform="translate(268.994141 0)"/>
       <use xlink:href="#DejaVuSerif-61" transform="translate(342.480469 0)"/>
       <use xlink:href="#DejaVuSerif-73" transform="translate(402.099609 0)"/>
       <use xlink:href="#DejaVuSerif-65" transform="translate(453.417969 0)"/>
      </g>
      <!-- (20K) -->
      <g transform="translate(248.66641 299.70017) rotate(-30) scale(0.07 -0.07)">
       <defs>
        <path id="DejaVuSerif-28" d="M 2041 -997 
Q 1281 -656 893 83 
Q 506 822 506 1931 
Q 506 3044 893 3783 
Q 1281 4522 2041 4863 
L 2041 4556 
Q 1559 4225 1350 3623 
Q 1141 3022 1141 1931 
Q 1141 844 1350 242 
Q 1559 -359 2041 -691 
L 2041 -997 
z
" transform="scale(0.015625)"/>
        <path id="DejaVuSerif-32" d="M 819 3553 
L 469 3553 
L 469 4384 
Q 803 4563 1142 4656 
Q 1481 4750 1806 4750 
Q 2534 4750 2956 4397 
Q 3378 4044 3378 3438 
Q 3378 2753 2422 1800 
Q 2347 1728 2309 1691 
L 1131 513 
L 3078 513 
L 3078 1088 
L 3444 1088 
L 3444 0 
L 434 0 
L 434 341 
L 1850 1753 
Q 2319 2222 2519 2614 
Q 2719 3006 2719 3438 
Q 2719 3909 2473 4175 
Q 2228 4441 1797 4441 
Q 1350 4441 1106 4219 
Q 863 3997 819 3553 
z
" transform="scale(0.015625)"/>
        <path id="DejaVuSerif-30" d="M 2034 219 
Q 2513 219 2750 744 
Q 2988 1269 2988 2328 
Q 2988 3391 2750 3916 
Q 2513 4441 2034 4441 
Q 1556 4441 1318 3916 
Q 1081 3391 1081 2328 
Q 1081 1269 1318 744 
Q 1556 219 2034 219 
z
M 2034 -91 
Q 1275 -91 848 546 
Q 422 1184 422 2328 
Q 422 3475 848 4112 
Q 1275 4750 2034 4750 
Q 2797 4750 3222 4112 
Q 3647 3475 3647 2328 
Q 3647 1184 3222 546 
Q 2797 -91 2034 -91 
z
" transform="scale(0.015625)"/>
        <path id="DejaVuSerif-29" d="M 453 -997 
L 453 -691 
Q 934 -359 1145 242 
Q 1356 844 1356 1931 
Q 1356 3022 1145 3623 
Q 934 4225 453 4556 
L 453 4863 
Q 1216 4522 1603 3783 
Q 1991 3044 1991 1931 
Q 1991 822 1603 83 
Q 1216 -656 453 -997 
z
" transform="scale(0.015625)"/>
       </defs>
       <use xlink:href="#DejaVuSerif-28"/>
       <use xlink:href="#DejaVuSerif-32" transform="translate(39.013672 0)"/>
       <use xlink:href="#DejaVuSerif-30" transform="translate(102.636719 0)"/>
       <use xlink:href="#DejaVuSerif-4b" transform="translate(166.259766 0)"/>
       <use xlink:href="#DejaVuSerif-29" transform="translate(240.966797 0)"/>
      </g>
     </g>
    </g>
    <g id="xtick_6">
     <g id="line2d_11">
      <path d="M 313.339904 271.506096 
L 313.339904 48.735 
" clip-path="url(#p3b4a424c4e)" style="fill: none; stroke-dasharray: 2.96,1.28; stroke-dashoffset: 0; stroke: #b0b0b0; stroke-opacity: 0.25; stroke-width: 0.8"/>
     </g>
     <g id="line2d_12">
      <g>
       <use xlink:href="#m865dd82607" x="313.339904" y="271.506096" style="stroke: #000000; stroke-width: 0.8"/>
      </g>
     </g>
     <g id="text_6">
      <!-- LLM-Base -->
      <g transform="translate(277.617487 301.053732) rotate(-30) scale(0.07 -0.07)">
       <use xlink:href="#DejaVuSerif-4c"/>
       <use xlink:href="#DejaVuSerif-4c" transform="translate(66.40625 0)"/>
       <use xlink:href="#DejaVuSerif-4d" transform="translate(132.8125 0)"/>
       <use xlink:href="#DejaVuSerif-2d" transform="translate(235.205078 0)"/>
       <use xlink:href="#DejaVuSerif-42" transform="translate(268.994141 0)"/>
       <use xlink:href="#DejaVuSerif-61" transform="translate(342.480469 0)"/>
       <use xlink:href="#DejaVuSerif-73" transform="translate(402.099609 0)"/>
       <use xlink:href="#DejaVuSerif-65" transform="translate(453.417969 0)"/>
      </g>
      <!-- (10K) -->
      <g transform="translate(295.638862 299.70017) rotate(-30) scale(0.07 -0.07)">
       <defs>
        <path id="DejaVuSerif-31" d="M 909 0 
L 909 331 
L 1722 331 
L 1722 4213 
L 781 3603 
L 781 4013 
L 1919 4750 
L 2350 4750 
L 2350 331 
L 3163 331 
L 3163 0 
L 909 0 
z
" transform="scale(0.015625)"/>
       </defs>
       <use xlink:href="#DejaVuSerif-28"/>
       <use xlink:href="#DejaVuSerif-31" transform="translate(39.013672 0)"/>
       <use xlink:href="#DejaVuSerif-30" transform="translate(102.636719 0)"/>
       <use xlink:href="#DejaVuSerif-4b" transform="translate(166.259766 0)"/>
       <use xlink:href="#DejaVuSerif-29" transform="translate(240.966797 0)"/>
      </g>
     </g>
    </g>
    <g id="xtick_7">
     <g id="line2d_13">
      <path d="M 360.312355 271.506096 
L 360.312355 48.735 
" clip-path="url(#p3b4a424c4e)" style="fill: none; stroke-dasharray: 2.96,1.28; stroke-dashoffset: 0; stroke: #b0b0b0; stroke-opacity: 0.25; stroke-width: 0.8"/>
     </g>
     <g id="line2d_14">
      <g>
       <use xlink:href="#m865dd82607" x="360.312355" y="271.506096" style="stroke: #000000; stroke-width: 0.8"/>
      </g>
     </g>
     <g id="text_7">
      <!-- LLM+RecCL -->
      <g transform="translate(316.115203 305.946622) rotate(-30) scale(0.07 -0.07)">
       <defs>
        <path id="DejaVuSerif-2b" d="M 2931 4013 
L 2931 2259 
L 4684 2259 
L 4684 1753 
L 2931 1753 
L 2931 0 
L 2431 0 
L 2431 1753 
L 678 1753 
L 678 2259 
L 2431 2259 
L 2431 4013 
L 2931 4013 
z
" transform="scale(0.015625)"/>
        <path id="DejaVuSerif-63" d="M 3291 997 
Q 3169 466 2822 187 
Q 2475 -91 1925 -91 
Q 1200 -91 759 389 
Q 319 869 319 1663 
Q 319 2459 759 2936 
Q 1200 3413 1925 3413 
Q 2241 3413 2553 3339 
Q 2866 3266 3181 3116 
L 3181 2266 
L 2847 2266 
Q 2781 2703 2561 2903 
Q 2341 3103 1931 3103 
Q 1466 3103 1228 2742 
Q 991 2381 991 1663 
Q 991 944 1227 581 
Q 1463 219 1931 219 
Q 2303 219 2525 412 
Q 2747 606 2828 997 
L 3291 997 
z
" transform="scale(0.015625)"/>
        <path id="DejaVuSerif-43" d="M 4513 1234 
Q 4306 581 3820 245 
Q 3334 -91 2591 -91 
Q 2134 -91 1743 65 
Q 1353 222 1050 525 
Q 700 875 529 1320 
Q 359 1766 359 2328 
Q 359 3416 987 4083 
Q 1616 4750 2644 4750 
Q 3025 4750 3456 4650 
Q 3888 4550 4384 4347 
L 4384 3272 
L 4031 3272 
Q 3916 3859 3567 4137 
Q 3219 4416 2591 4416 
Q 1844 4416 1459 3886 
Q 1075 3356 1075 2328 
Q 1075 1303 1459 773 
Q 1844 244 2591 244 
Q 3113 244 3450 492 
Q 3788 741 3938 1234 
L 4513 1234 
z
" transform="scale(0.015625)"/>
       </defs>
       <use xlink:href="#DejaVuSerif-4c"/>
       <use xlink:href="#DejaVuSerif-4c" transform="translate(66.40625 0)"/>
       <use xlink:href="#DejaVuSerif-4d" transform="translate(132.8125 0)"/>
       <use xlink:href="#DejaVuSerif-2b" transform="translate(235.205078 0)"/>
       <use xlink:href="#DejaVuSerif-52" transform="translate(318.994141 0)"/>
       <use xlink:href="#DejaVuSerif-65" transform="translate(394.287109 0)"/>
       <use xlink:href="#DejaVuSerif-63" transform="translate(453.466797 0)"/>
       <use xlink:href="#DejaVuSerif-43" transform="translate(509.472656 0)"/>
       <use xlink:href="#DejaVuSerif-4c" transform="translate(585.986328 0)"/>
      </g>
      <!-- (10K) -->
      <g transform="translate(342.611314 299.70017) rotate(-30) scale(0.07 -0.07)">
       <use xlink:href="#DejaVuSerif-28"/>
       <use xlink:href="#DejaVuSerif-31" transform="translate(39.013672 0)"/>
       <use xlink:href="#DejaVuSerif-30" transform="translate(102.636719 0)"/>
       <use xlink:href="#DejaVuSerif-4b" transform="translate(166.259766 0)"/>
       <use xlink:href="#DejaVuSerif-29" transform="translate(240.966797 0)"/>
      </g>
     </g>
    </g>
   </g>
   <g id="matplotlib.axis_2">
    <g id="ytick_1">
     <g id="line2d_15">
      <path d="M 48.885 271.506096 
L 389.905 271.506096 
" clip-path="url(#p3b4a424c4e)" style="fill: none; stroke-dasharray: 2.96,1.28; stroke-dashoffset: 0; stroke: #b0b0b0; stroke-opacity: 0.25; stroke-width: 0.8"/>
     </g>
     <g id="line2d_16">
      <defs>
       <path id="m2bdf306f88" d="M 0 0 
L -3.5 0 
" style="stroke: #000000; stroke-width: 0.8"/>
      </defs>
      <g>
       <use xlink:href="#m2bdf306f88" x="48.885" y="271.506096" style="stroke: #000000; stroke-width: 0.8"/>
      </g>
     </g>
     <g id="text_8">
      <!-- 0.00 -->
      <g transform="translate(21.845938 274.925393) scale(0.09 -0.09)">
       <defs>
        <path id="DejaVuSerif-2e" d="M 603 325 
Q 603 500 722 622 
Q 841 744 1019 744 
Q 1191 744 1312 622 
Q 1434 500 1434 325 
Q 1434 153 1312 31 
Q 1191 -91 1019 -91 
Q 841 -91 722 29 
Q 603 150 603 325 
z
" transform="scale(0.015625)"/>
       </defs>
       <use xlink:href="#DejaVuSerif-30"/>
       <use xlink:href="#DejaVuSerif-2e" transform="translate(63.623047 0)"/>
       <use xlink:href="#DejaVuSerif-30" transform="translate(95.410156 0)"/>
       <use xlink:href="#DejaVuSerif-30" transform="translate(159.033203 0)"/>
      </g>
     </g>
    </g>
    <g id="ytick_2">
     <g id="line2d_17">
      <path d="M 48.885 233.140282 
L 389.905 233.140282 
" clip-path="url(#p3b4a424c4e)" style="fill: none; stroke-dasharray: 2.96,1.28; stroke-dashoffset: 0; stroke: #b0b0b0; stroke-opacity: 0.25; stroke-width: 0.8"/>
     </g>
     <g id="line2d_18">
      <g>
       <use xlink:href="#m2bdf306f88" x="48.885" y="233.140282" style="stroke: #000000; stroke-width: 0.8"/>
      </g>
     </g>
     <g id="text_9">
      <!-- 0.05 -->
      <g transform="translate(21.845938 236.559579) scale(0.09 -0.09)">
       <defs>
        <path id="DejaVuSerif-35" d="M 3219 4666 
L 3219 4153 
L 1081 4153 
L 1081 2816 
Q 1244 2928 1461 2984 
Q 1678 3041 1947 3041 
Q 2703 3041 3140 2622 
Q 3578 2203 3578 1478 
Q 3578 738 3136 323 
Q 2694 -91 1894 -91 
Q 1572 -91 1234 -12 
Q 897 66 544 225 
L 544 1131 
L 897 1131 
Q 925 688 1179 453 
Q 1434 219 1894 219 
Q 2388 219 2653 544 
Q 2919 869 2919 1478 
Q 2919 2084 2655 2407 
Q 2391 2731 1894 2731 
Q 1613 2731 1398 2631 
Q 1184 2531 1019 2322 
L 750 2322 
L 750 4666 
L 3219 4666 
z
" transform="scale(0.015625)"/>
       </defs>
       <use xlink:href="#DejaVuSerif-30"/>
       <use xlink:href="#DejaVuSerif-2e" transform="translate(63.623047 0)"/>
       <use xlink:href="#DejaVuSerif-30" transform="translate(95.410156 0)"/>
       <use xlink:href="#DejaVuSerif-35" transform="translate(159.033203 0)"/>
      </g>
     </g>
    </g>
    <g id="ytick_3">
     <g id="line2d_19">
      <path d="M 48.885 194.774469 
L 389.905 194.774469 
" clip-path="url(#p3b4a424c4e)" style="fill: none; stroke-dasharray: 2.96,1.28; stroke-dashoffset: 0; stroke: #b0b0b0; stroke-opacity: 0.25; stroke-width: 0.8"/>
     </g>
     <g id="line2d_20">
      <g>
       <use xlink:href="#m2bdf306f88" x="48.885" y="194.774469" style="stroke: #000000; stroke-width: 0.8"/>
      </g>
     </g>
     <g id="text_10">
      <!-- 0.10 -->
      <g transform="translate(21.845938 198.193766) scale(0.09 -0.09)">
       <use xlink:href="#DejaVuSerif-30"/>
       <use xlink:href="#DejaVuSerif-2e" transform="translate(63.623047 0)"/>
       <use xlink:href="#DejaVuSerif-31" transform="translate(95.410156 0)"/>
       <use xlink:href="#DejaVuSerif-30" transform="translate(159.033203 0)"/>
      </g>
     </g>
    </g>
    <g id="ytick_4">
     <g id="line2d_21">
      <path d="M 48.885 156.408655 
L 389.905 156.408655 
" clip-path="url(#p3b4a424c4e)" style="fill: none; stroke-dasharray: 2.96,1.28; stroke-dashoffset: 0; stroke: #b0b0b0; stroke-opacity: 0.25; stroke-width: 0.8"/>
     </g>
     <g id="line2d_22">
      <g>
       <use xlink:href="#m2bdf306f88" x="48.885" y="156.408655" style="stroke: #000000; stroke-width: 0.8"/>
      </g>
     </g>
     <g id="text_11">
      <!-- 0.15 -->
      <g transform="translate(21.845938 159.827952) scale(0.09 -0.09)">
       <use xlink:href="#DejaVuSerif-30"/>
       <use xlink:href="#DejaVuSerif-2e" transform="translate(63.623047 0)"/>
       <use xlink:href="#DejaVuSerif-31" transform="translate(95.410156 0)"/>
       <use xlink:href="#DejaVuSerif-35" transform="translate(159.033203 0)"/>
      </g>
     </g>
    </g>
    <g id="ytick_5">
     <g id="line2d_23">
      <path d="M 48.885 118.042842 
L 389.905 118.042842 
" clip-path="url(#p3b4a424c4e)" style="fill: none; stroke-dasharray: 2.96,1.28; stroke-dashoffset: 0; stroke: #b0b0b0; stroke-opacity: 0.25; stroke-width: 0.8"/>
     </g>
     <g id="line2d_24">
      <g>
       <use xlink:href="#m2bdf306f88" x="48.885" y="118.042842" style="stroke: #000000; stroke-width: 0.8"/>
      </g>
     </g>
     <g id="text_12">
      <!-- 0.20 -->
      <g transform="translate(21.845938 121.462139) scale(0.09 -0.09)">
       <use xlink:href="#DejaVuSerif-30"/>
       <use xlink:href="#DejaVuSerif-2e" transform="translate(63.623047 0)"/>
       <use xlink:href="#DejaVuSerif-32" transform="translate(95.410156 0)"/>
       <use xlink:href="#DejaVuSerif-30" transform="translate(159.033203 0)"/>
      </g>
     </g>
    </g>
    <g id="ytick_6">
     <g id="line2d_25">
      <path d="M 48.885 79.677029 
L 389.905 79.677029 
" clip-path="url(#p3b4a424c4e)" style="fill: none; stroke-dasharray: 2.96,1.28; stroke-dashoffset: 0; stroke: #b0b0b0; stroke-opacity: 0.25; stroke-width: 0.8"/>
     </g>
     <g id="line2d_26">
      <g>
       <use xlink:href="#m2bdf306f88" x="48.885" y="79.677029" style="stroke: #000000; stroke-width: 0.8"/>
      </g>
     </g>
     <g id="text_13">
      <!-- 0.25 -->
      <g transform="translate(21.845938 83.096325) scale(0.09 -0.09)">
       <use xlink:href="#DejaVuSerif-30"/>
       <use xlink:href="#DejaVuSerif-2e" transform="translate(63.623047 0)"/>
       <use xlink:href="#DejaVuSerif-32" transform="translate(95.410156 0)"/>
       <use xlink:href="#DejaVuSerif-35" transform="translate(159.033203 0)"/>
      </g>
     </g>
    </g>
    <g id="text_14">
     <!-- ILS@10 -->
     <g transform="translate(15.558281 182.211642) rotate(-90) scale(0.11 -0.11)">
      <defs>
       <path id="DejaVuSerif-40" d="M 4044 775 
Q 3859 519 3629 394 
Q 3400 269 3109 269 
Q 2563 269 2222 659 
Q 1881 1050 1881 1678 
Q 1881 2306 2222 2695 
Q 2563 3084 3109 3084 
Q 3400 3084 3629 2959 
Q 3859 2834 4044 2578 
L 4044 3022 
L 4531 3022 
L 4531 609 
Q 5063 725 5356 1115 
Q 5650 1506 5650 2094 
Q 5650 2441 5544 2750 
Q 5438 3059 5228 3322 
Q 4897 3738 4420 3958 
Q 3944 4178 3384 4178 
Q 3103 4178 2828 4118 
Q 2553 4059 2284 3938 
Q 1653 3647 1303 3058 
Q 953 2469 953 1697 
Q 953 1175 1109 736 
Q 1266 297 1563 -25 
Q 1903 -397 2370 -592 
Q 2838 -788 3378 -788 
Q 3781 -788 4131 -669 
Q 4481 -550 4781 -313 
L 4947 -531 
Q 4609 -822 4181 -967 
Q 3753 -1113 3244 -1113 
Q 2672 -1113 2151 -905 
Q 1631 -697 1241 -313 
Q 838 84 630 595 
Q 422 1106 422 1697 
Q 422 2272 631 2781 
Q 841 3291 1241 3688 
Q 1638 4081 2177 4293 
Q 2716 4506 3322 4506 
Q 3991 4506 4542 4247 
Q 5094 3988 5466 3500 
Q 5703 3194 5825 2834 
Q 5947 2475 5947 2088 
Q 5947 1250 5437 764 
Q 4928 278 4047 269 
L 4044 775 
z
M 4044 1516 
L 4044 1844 
Q 4044 2234 3820 2476 
Q 3597 2719 3238 2719 
Q 2859 2719 2648 2445 
Q 2438 2172 2438 1678 
Q 2438 1181 2650 907 
Q 2863 634 3244 634 
Q 3600 634 3822 879 
Q 4044 1125 4044 1516 
z
" transform="scale(0.015625)"/>
      </defs>
      <use xlink:href="#DejaVuSerif-49"/>
      <use xlink:href="#DejaVuSerif-4c" transform="translate(39.501953 0)"/>
      <use xlink:href="#DejaVuSerif-53" transform="translate(105.908203 0)"/>
      <use xlink:href="#DejaVuSerif-40" transform="translate(174.414062 0)"/>
      <use xlink:href="#DejaVuSerif-31" transform="translate(274.414062 0)"/>
      <use xlink:href="#DejaVuSerif-30" transform="translate(338.037109 0)"/>
     </g>
    </g>
   </g>
   <g id="patch_10">
    <path d="M 48.885 271.506096 
L 48.885 48.735 
" style="fill: none; stroke: #000000; stroke-width: 0.8; stroke-linejoin: miter; stroke-linecap: square"/>
   </g>
   <g id="patch_11">
    <path d="M 389.905 271.506096 
L 389.905 48.735 
" style="fill: none; stroke: #000000; stroke-width: 0.8; stroke-linejoin: miter; stroke-linecap: square"/>
   </g>
   <g id="patch_12">
    <path d="M 48.885 271.506096 
L 389.905 271.506096 
" style="fill: none; stroke: #000000; stroke-width: 0.8; stroke-linejoin: miter; stroke-linecap: square"/>
   </g>
   <g id="patch_13">
    <path d="M 48.885 48.735 
L 389.905 48.735 
" style="fill: none; stroke: #000000; stroke-width: 0.8; stroke-linejoin: miter; stroke-linecap: square"/>
   </g>
   <g id="text_15">
    <!-- 0.165 -->
    <g transform="translate(80.409207 142.518111) rotate(-90) scale(0.07 -0.07)">
     <defs>
      <path id="DejaVuSerif-36" d="M 2094 219 
Q 2534 219 2771 542 
Q 3009 866 3009 1472 
Q 3009 2078 2771 2401 
Q 2534 2725 2094 2725 
Q 1647 2725 1412 2412 
Q 1178 2100 1178 1509 
Q 1178 888 1415 553 
Q 1653 219 2094 219 
z
M 1075 2569 
Q 1288 2803 1556 2918 
Q 1825 3034 2163 3034 
Q 2859 3034 3264 2615 
Q 3669 2197 3669 1472 
Q 3669 763 3233 336 
Q 2797 -91 2069 -91 
Q 1278 -91 853 498 
Q 428 1088 428 2181 
Q 428 3406 931 4078 
Q 1434 4750 2350 4750 
Q 2597 4750 2869 4703 
Q 3141 4656 3425 4563 
L 3425 3794 
L 3072 3794 
Q 3034 4109 2831 4275 
Q 2628 4441 2284 4441 
Q 1678 4441 1381 3981 
Q 1084 3522 1075 2569 
z
" transform="scale(0.015625)"/>
     </defs>
     <use xlink:href="#DejaVuSerif-30"/>
     <use xlink:href="#DejaVuSerif-2e" transform="translate(63.623047 0)"/>
     <use xlink:href="#DejaVuSerif-31" transform="translate(95.410156 0)"/>
     <use xlink:href="#DejaVuSerif-36" transform="translate(159.033203 0)"/>
     <use xlink:href="#DejaVuSerif-35" transform="translate(222.65625 0)"/>
    </g>
   </g>
   <g id="text_16">
    <!-- 0.259 -->
    <g transform="translate(127.381659 70.697309) rotate(-90) scale(0.07 -0.07)">
     <defs>
      <path id="DejaVuSerif-39" d="M 2994 2091 
Q 2784 1856 2512 1740 
Q 2241 1625 1900 1625 
Q 1206 1625 804 2044 
Q 403 2463 403 3188 
Q 403 3897 839 4323 
Q 1275 4750 2003 4750 
Q 2794 4750 3217 4161 
Q 3641 3572 3641 2478 
Q 3641 1253 3137 581 
Q 2634 -91 1722 -91 
Q 1475 -91 1203 -44 
Q 931 3 647 97 
L 647 872 
L 997 872 
Q 1038 556 1241 387 
Q 1444 219 1784 219 
Q 2391 219 2687 676 
Q 2984 1134 2994 2091 
z
M 1978 4441 
Q 1534 4441 1298 4117 
Q 1063 3794 1063 3188 
Q 1063 2581 1298 2256 
Q 1534 1931 1978 1931 
Q 2422 1931 2658 2245 
Q 2894 2559 2894 3150 
Q 2894 3772 2656 4106 
Q 2419 4441 1978 4441 
z
" transform="scale(0.015625)"/>
     </defs>
     <use xlink:href="#DejaVuSerif-30"/>
     <use xlink:href="#DejaVuSerif-2e" transform="translate(63.623047 0)"/>
     <use xlink:href="#DejaVuSerif-32" transform="translate(95.410156 0)"/>
     <use xlink:href="#DejaVuSerif-35" transform="translate(159.033203 0)"/>
     <use xlink:href="#DejaVuSerif-39" transform="translate(222.65625 0)"/>
    </g>
   </g>
   <g id="text_17">
    <!-- 0.252 -->
    <g transform="translate(174.354111 75.838328) rotate(-90) scale(0.07 -0.07)">
     <use xlink:href="#DejaVuSerif-30"/>
     <use xlink:href="#DejaVuSerif-2e" transform="translate(63.623047 0)"/>
     <use xlink:href="#DejaVuSerif-32" transform="translate(95.410156 0)"/>
     <use xlink:href="#DejaVuSerif-35" transform="translate(159.033203 0)"/>
     <use xlink:href="#DejaVuSerif-32" transform="translate(222.65625 0)"/>
    </g>
   </g>
   <g id="text_18">
    <!-- 0.277 -->
    <g transform="translate(221.326562 56.962347) rotate(-90) scale(0.07 -0.07)">
     <defs>
      <path id="DejaVuSerif-37" d="M 3609 4347 
L 1784 0 
L 1319 0 
L 3059 4153 
L 903 4153 
L 903 3578 
L 538 3578 
L 538 4666 
L 3609 4666 
L 3609 4347 
z
" transform="scale(0.015625)"/>
     </defs>
     <use xlink:href="#DejaVuSerif-30"/>
     <use xlink:href="#DejaVuSerif-2e" transform="translate(63.623047 0)"/>
     <use xlink:href="#DejaVuSerif-32" transform="translate(95.410156 0)"/>
     <use xlink:href="#DejaVuSerif-37" transform="translate(159.033203 0)"/>
     <use xlink:href="#DejaVuSerif-37" transform="translate(222.65625 0)"/>
    </g>
   </g>
   <g id="text_19">
    <!-- 0.000 -->
    <g transform="translate(268.299014 269.125296) rotate(-90) scale(0.07 -0.07)">
     <use xlink:href="#DejaVuSerif-30"/>
     <use xlink:href="#DejaVuSerif-2e" transform="translate(63.623047 0)"/>
     <use xlink:href="#DejaVuSerif-30" transform="translate(95.410156 0)"/>
     <use xlink:href="#DejaVuSerif-30" transform="translate(159.033203 0)"/>
     <use xlink:href="#DejaVuSerif-30" transform="translate(222.65625 0)"/>
    </g>
   </g>
   <g id="text_20">
    <!-- 0.000 -->
    <g transform="translate(315.271466 269.125296) rotate(-90) scale(0.07 -0.07)">
     <use xlink:href="#DejaVuSerif-30"/>
     <use xlink:href="#DejaVuSerif-2e" transform="translate(63.623047 0)"/>
     <use xlink:href="#DejaVuSerif-30" transform="translate(95.410156 0)"/>
     <use xlink:href="#DejaVuSerif-30" transform="translate(159.033203 0)"/>
     <use xlink:href="#DejaVuSerif-30" transform="translate(222.65625 0)"/>
    </g>
   </g>
   <g id="text_21">
    <!-- 0.000 -->
    <g transform="translate(362.243918 269.125296) rotate(-90) scale(0.07 -0.07)">
     <use xlink:href="#DejaVuSerif-30"/>
     <use xlink:href="#DejaVuSerif-2e" transform="translate(63.623047 0)"/>
     <use xlink:href="#DejaVuSerif-30" transform="translate(95.410156 0)"/>
     <use xlink:href="#DejaVuSerif-30" transform="translate(159.033203 0)"/>
     <use xlink:href="#DejaVuSerif-30" transform="translate(222.65625 0)"/>
    </g>
   </g>
   <g id="text_22">
    <!-- (a) Intra-List Similarity (lower = more diverse) -->
    <g transform="translate(76.744062 42.735) scale(0.12 -0.12)">
     <defs>
      <path id="DejaVuSerif-20" transform="scale(0.015625)"/>
      <path id="DejaVuSerif-69" d="M 622 4353 
Q 622 4497 726 4603 
Q 831 4709 978 4709 
Q 1122 4709 1226 4603 
Q 1331 4497 1331 4353 
Q 1331 4206 1228 4103 
Q 1125 4000 978 4000 
Q 831 4000 726 4103 
Q 622 4206 622 4353 
z
M 1356 331 
L 1900 331 
L 1900 0 
L 231 0 
L 231 331 
L 781 331 
L 781 2988 
L 231 2988 
L 231 3322 
L 1356 3322 
L 1356 331 
z
" transform="scale(0.015625)"/>
      <path id="DejaVuSerif-6c" d="M 1313 331 
L 1856 331 
L 1856 0 
L 184 0 
L 184 331 
L 738 331 
L 738 4531 
L 184 4531 
L 184 4863 
L 1313 4863 
L 1313 331 
z
" transform="scale(0.015625)"/>
      <path id="DejaVuSerif-79" d="M 1381 -609 
L 1600 -56 
L 359 2988 
L -19 2988 
L -19 3322 
L 1509 3322 
L 1509 2988 
L 978 2988 
L 1913 703 
L 2847 2988 
L 2350 2988 
L 2350 3322 
L 3597 3322 
L 3597 2988 
L 3225 2988 
L 1703 -750 
Q 1547 -1138 1356 -1280 
Q 1166 -1422 819 -1422 
Q 672 -1422 517 -1397 
Q 363 -1372 206 -1325 
L 206 -691 
L 500 -691 
Q 519 -903 608 -995 
Q 697 -1088 884 -1088 
Q 1056 -1088 1161 -992 
Q 1266 -897 1381 -609 
z
" transform="scale(0.015625)"/>
      <path id="DejaVuSerif-77" d="M 3072 3322 
L 3922 728 
L 4672 2988 
L 4191 2988 
L 4191 3322 
L 5394 3322 
L 5394 2988 
L 5025 2988 
L 4038 0 
L 3559 0 
L 2741 2484 
L 1919 0 
L 1459 0 
L 475 2988 
L 103 2988 
L 103 3322 
L 1606 3322 
L 1606 2988 
L 1069 2988 
L 1813 728 
L 2669 3322 
L 3072 3322 
z
" transform="scale(0.015625)"/>
      <path id="DejaVuSerif-3d" d="M 678 2894 
L 4684 2894 
L 4684 2394 
L 678 2394 
L 678 2894 
z
M 678 1619 
L 4684 1619 
L 4684 1119 
L 678 1119 
L 678 1619 
z
" transform="scale(0.015625)"/>
      <path id="DejaVuSerif-76" d="M 1581 0 
L 359 2988 
L -19 2988 
L -19 3322 
L 1509 3322 
L 1509 2988 
L 978 2988 
L 1913 703 
L 2847 2988 
L 2350 2988 
L 2350 3322 
L 3597 3322 
L 3597 2988 
L 3225 2988 
L 2003 0 
L 1581 0 
z
" transform="scale(0.015625)"/>
     </defs>
     <use xlink:href="#DejaVuSerif-28"/>
     <use xlink:href="#DejaVuSerif-61" transform="translate(39.013672 0)"/>
     <use xlink:href="#DejaVuSerif-29" transform="translate(98.632812 0)"/>
     <use xlink:href="#DejaVuSerif-20" transform="translate(137.646484 0)"/>
     <use xlink:href="#DejaVuSerif-49" transform="translate(169.433594 0)"/>
     <use xlink:href="#DejaVuSerif-6e" transform="translate(208.935547 0)"/>
     <use xlink:href="#DejaVuSerif-74" transform="translate(273.339844 0)"/>
     <use xlink:href="#DejaVuSerif-72" transform="translate(313.525391 0)"/>
     <use xlink:href="#DejaVuSerif-61" transform="translate(361.328125 0)"/>
     <use xlink:href="#DejaVuSerif-2d" transform="translate(420.947266 0)"/>
     <use xlink:href="#DejaVuSerif-4c" transform="translate(454.736328 0)"/>
     <use xlink:href="#DejaVuSerif-69" transform="translate(521.142578 0)"/>
     <use xlink:href="#DejaVuSerif-73" transform="translate(553.125 0)"/>
     <use xlink:href="#DejaVuSerif-74" transform="translate(604.443359 0)"/>
     <use xlink:href="#DejaVuSerif-20" transform="translate(644.628906 0)"/>
     <use xlink:href="#DejaVuSerif-53" transform="translate(676.416016 0)"/>
     <use xlink:href="#DejaVuSerif-69" transform="translate(744.921875 0)"/>
     <use xlink:href="#DejaVuSerif-6d" transform="translate(776.904297 0)"/>
     <use xlink:href="#DejaVuSerif-69" transform="translate(871.728516 0)"/>
     <use xlink:href="#DejaVuSerif-6c" transform="translate(903.710938 0)"/>
     <use xlink:href="#DejaVuSerif-61" transform="translate(935.693359 0)"/>
     <use xlink:href="#DejaVuSerif-72" transform="translate(995.3125 0)"/>
     <use xlink:href="#DejaVuSerif-69" transform="translate(1043.115234 0)"/>
     <use xlink:href="#DejaVuSerif-74" transform="translate(1075.097656 0)"/>
     <use xlink:href="#DejaVuSerif-79" transform="translate(1115.283203 0)"/>
     <use xlink:href="#DejaVuSerif-20" transform="translate(1171.777344 0)"/>
     <use xlink:href="#DejaVuSerif-28" transform="translate(1203.564453 0)"/>
     <use xlink:href="#DejaVuSerif-6c" transform="translate(1242.578125 0)"/>
     <use xlink:href="#DejaVuSerif-6f" transform="translate(1274.560547 0)"/>
     <use xlink:href="#DejaVuSerif-77" transform="translate(1334.765625 0)"/>
     <use xlink:href="#DejaVuSerif-65" transform="translate(1420.361328 0)"/>
     <use xlink:href="#DejaVuSerif-72" transform="translate(1479.541016 0)"/>
     <use xlink:href="#DejaVuSerif-20" transform="translate(1527.34375 0)"/>
     <use xlink:href="#DejaVuSerif-3d" transform="translate(1559.130859 0)"/>
     <use xlink:href="#DejaVuSerif-20" transform="translate(1642.919922 0)"/>
     <use xlink:href="#DejaVuSerif-6d" transform="translate(1674.707031 0)"/>
     <use xlink:href="#DejaVuSerif-6f" transform="translate(1769.53125 0)"/>
     <use xlink:href="#DejaVuSerif-72" transform="translate(1829.736328 0)"/>
     <use xlink:href="#DejaVuSerif-65" transform="translate(1877.539062 0)"/>
     <use xlink:href="#DejaVuSerif-20" transform="translate(1936.71875 0)"/>
     <use xlink:href="#DejaVuSerif-64" transform="translate(1968.505859 0)"/>
     <use xlink:href="#DejaVuSerif-69" transform="translate(2032.519531 0)"/>
     <use xlink:href="#DejaVuSerif-76" transform="translate(2064.501953 0)"/>
     <use xlink:href="#DejaVuSerif-65" transform="translate(2120.996094 0)"/>
     <use xlink:href="#DejaVuSerif-72" transform="translate(2180.175781 0)"/>
     <use xlink:href="#DejaVuSerif-73" transform="translate(2227.978516 0)"/>
     <use xlink:href="#DejaVuSerif-65" transform="translate(2279.296875 0)"/>
     <use xlink:href="#DejaVuSerif-29" transform="translate(2338.476562 0)"/>
    </g>
   </g>
   <g id="legend_1">
    <g id="patch_14">
     <path d="M 292.125937 85.358125 
L 385.005 85.358125 
Q 386.405 85.358125 386.405 83.958125 
L 386.405 53.635 
Q 386.405 52.235 385.005 52.235 
L 292.125937 52.235 
Q 290.725937 52.235 290.725937 53.635 
L 290.725937 83.958125 
Q 290.725937 85.358125 292.125937 85.358125 
z
" style="fill: #ffffff; opacity: 0.8; stroke: #cccccc; stroke-linejoin: miter"/>
    </g>
    <g id="patch_15">
     <path d="M 293.525937 60.353906 
L 307.525937 60.353906 
L 307.525937 55.453906 
L 293.525937 55.453906 
z
" style="fill: #4caf50"/>
    </g>
    <g id="text_23">
     <!-- Perfect diversity (0) -->
     <g transform="translate(313.125938 60.353906) scale(0.07 -0.07)">
      <defs>
       <path id="DejaVuSerif-66" d="M 2753 4078 
L 2450 4078 
Q 2447 4313 2317 4434 
Q 2188 4556 1941 4556 
Q 1619 4556 1487 4379 
Q 1356 4203 1356 3750 
L 1356 3322 
L 2284 3322 
L 2284 2988 
L 1356 2988 
L 1356 331 
L 2094 331 
L 2094 0 
L 231 0 
L 231 331 
L 781 331 
L 781 2988 
L 231 2988 
L 231 3322 
L 781 3322 
L 781 3738 
Q 781 4294 1070 4578 
Q 1359 4863 1919 4863 
Q 2128 4863 2337 4825 
Q 2547 4788 2753 4709 
L 2753 4078 
z
" transform="scale(0.015625)"/>
      </defs>
      <use xlink:href="#DejaVuSerif-50"/>
      <use xlink:href="#DejaVuSerif-65" transform="translate(62.785156 0)"/>
      <use xlink:href="#DejaVuSerif-72" transform="translate(121.964844 0)"/>
      <use xlink:href="#DejaVuSerif-66" transform="translate(169.767578 0)"/>
      <use xlink:href="#DejaVuSerif-65" transform="translate(206.779297 0)"/>
      <use xlink:href="#DejaVuSerif-63" transform="translate(265.958984 0)"/>
      <use xlink:href="#DejaVuSerif-74" transform="translate(321.964844 0)"/>
      <use xlink:href="#DejaVuSerif-20" transform="translate(362.150391 0)"/>
      <use xlink:href="#DejaVuSerif-64" transform="translate(393.9375 0)"/>
      <use xlink:href="#DejaVuSerif-69" transform="translate(457.951172 0)"/>
      <use xlink:href="#DejaVuSerif-76" transform="translate(489.933594 0)"/>
      <use xlink:href="#DejaVuSerif-65" transform="translate(546.427734 0)"/>
      <use xlink:href="#DejaVuSerif-72" transform="translate(605.607422 0)"/>
      <use xlink:href="#DejaVuSerif-73" transform="translate(653.410156 0)"/>
      <use xlink:href="#DejaVuSerif-69" transform="translate(704.728516 0)"/>
      <use xlink:href="#DejaVuSerif-74" transform="translate(736.710938 0)"/>
      <use xlink:href="#DejaVuSerif-79" transform="translate(776.896484 0)"/>
      <use xlink:href="#DejaVuSerif-20" transform="translate(833.390625 0)"/>
      <use xlink:href="#DejaVuSerif-28" transform="translate(865.177734 0)"/>
      <use xlink:href="#DejaVuSerif-30" transform="translate(904.191406 0)"/>
      <use xlink:href="#DejaVuSerif-29" transform="translate(967.814453 0)"/>
     </g>
    </g>
    <g id="patch_16">
     <path d="M 293.525937 70.728125 
L 307.525937 70.728125 
L 307.525937 65.828125 
L 293.525937 65.828125 
z
" style="fill: #ffc107"/>
    </g>
    <g id="text_24">
     <!-- Moderate -->
     <g transform="translate(313.125938 70.728125) scale(0.07 -0.07)">
      <use xlink:href="#DejaVuSerif-4d"/>
      <use xlink:href="#DejaVuSerif-6f" transform="translate(102.392578 0)"/>
      <use xlink:href="#DejaVuSerif-64" transform="translate(162.597656 0)"/>
      <use xlink:href="#DejaVuSerif-65" transform="translate(226.611328 0)"/>
      <use xlink:href="#DejaVuSerif-72" transform="translate(285.791016 0)"/>
      <use xlink:href="#DejaVuSerif-61" transform="translate(333.59375 0)"/>
      <use xlink:href="#DejaVuSerif-74" transform="translate(393.212891 0)"/>
      <use xlink:href="#DejaVuSerif-65" transform="translate(433.398438 0)"/>
     </g>
    </g>
    <g id="patch_17">
     <path d="M 293.525937 81.002812 
L 307.525937 81.002812 
L 307.525937 76.102812 
L 293.525937 76.102812 
z
" style="fill: #f44336"/>
    </g>
    <g id="text_25">
     <!-- Low diversity -->
     <g transform="translate(313.125938 81.002812) scale(0.07 -0.07)">
      <use xlink:href="#DejaVuSerif-4c"/>
      <use xlink:href="#DejaVuSerif-6f" transform="translate(66.40625 0)"/>
      <use xlink:href="#DejaVuSerif-77" transform="translate(126.611328 0)"/>
      <use xlink:href="#DejaVuSerif-20" transform="translate(212.207031 0)"/>
      <use xlink:href="#DejaVuSerif-64" transform="translate(243.994141 0)"/>
      <use xlink:href="#DejaVuSerif-69" transform="translate(308.007812 0)"/>
      <use xlink:href="#DejaVuSerif-76" transform="translate(339.990234 0)"/>
      <use xlink:href="#DejaVuSerif-65" transform="translate(396.484375 0)"/>
      <use xlink:href="#DejaVuSerif-72" transform="translate(455.664062 0)"/>
      <use xlink:href="#DejaVuSerif-73" transform="translate(503.466797 0)"/>
      <use xlink:href="#DejaVuSerif-69" transform="translate(554.785156 0)"/>
      <use xlink:href="#DejaVuSerif-74" transform="translate(586.767578 0)"/>
      <use xlink:href="#DejaVuSerif-79" transform="translate(626.953125 0)"/>
     </g>
    </g>
   </g>
  </g>
  <g id="axes_2">
   <g id="patch_18">
    <path d="M 436.605 271.506096 
L 777.625 271.506096 
L 777.625 48.735 
L 436.605 48.735 
z
" style="fill: #ffffff"/>
   </g>
   <g id="patch_19">
    <path d="M 452.105909 271.506096 
L 480.28938 271.506096 
L 480.28938 59.343147 
L 452.105909 59.343147 
z
" clip-path="url(#p81b1476594)" style="fill: #4caf50; stroke: #ffffff; stroke-width: 0.5; stroke-linejoin: miter"/>
   </g>
   <g id="patch_20">
    <path d="M 499.078361 271.506096 
L 527.261832 271.506096 
L 527.261832 270.660279 
L 499.078361 270.660279 
z
" clip-path="url(#p81b1476594)" style="fill: #f44336; stroke: #ffffff; stroke-width: 0.5; stroke-linejoin: miter"/>
   </g>
   <g id="patch_21">
    <path d="M 546.050813 271.506096 
L 574.234284 271.506096 
L 574.234284 252.532359 
L 546.050813 252.532359 
z
" clip-path="url(#p81b1476594)" style="fill: #ffc107; stroke: #ffffff; stroke-width: 0.5; stroke-linejoin: miter"/>
   </g>
   <g id="patch_22">
    <path d="M 593.023264 271.506096 
L 621.206736 271.506096 
L 621.206736 266.819811 
L 593.023264 266.819811 
z
" clip-path="url(#p81b1476594)" style="fill: #ffc107; stroke: #ffffff; stroke-width: 0.5; stroke-linejoin: miter"/>
   </g>
   <g id="patch_23">
    <path d="M 639.995716 271.506096 
L 668.179187 271.506096 
L 668.179187 271.048897 
L 639.995716 271.048897 
z
" clip-path="url(#p81b1476594)" style="fill: #f44336; stroke: #ffffff; stroke-width: 0.5; stroke-linejoin: miter"/>
   </g>
   <g id="patch_24">
    <path d="M 686.968168 271.506096 
L 715.151639 271.506096 
L 715.151639 271.208917 
L 686.968168 271.208917 
z
" clip-path="url(#p81b1476594)" style="fill: #f44336; stroke: #ffffff; stroke-width: 0.5; stroke-linejoin: miter"/>
   </g>
   <g id="patch_25">
    <path d="M 733.94062 271.506096 
L 762.124091 271.506096 
L 762.124091 271.208917 
L 733.94062 271.208917 
z
" clip-path="url(#p81b1476594)" style="fill: #f44336; stroke: #ffffff; stroke-width: 0.5; stroke-linejoin: miter"/>
   </g>
   <g id="matplotlib.axis_3">
    <g id="xtick_8">
     <g id="line2d_27">
      <path d="M 466.197645 271.506096 
L 466.197645 48.735 
" clip-path="url(#p81b1476594)" style="fill: none; stroke-dasharray: 2.96,1.28; stroke-dashoffset: 0; stroke: #b0b0b0; stroke-opacity: 0.25; stroke-width: 0.8"/>
     </g>
     <g id="line2d_28">
      <g>
       <use xlink:href="#m865dd82607" x="466.197645" y="271.506096" style="stroke: #000000; stroke-width: 0.8"/>
      </g>
     </g>
     <g id="text_26">
      <!-- Random -->
      <g transform="translate(439.970719 297.834279) rotate(-30) scale(0.07 -0.07)">
       <use xlink:href="#DejaVuSerif-52"/>
       <use xlink:href="#DejaVuSerif-61" transform="translate(77.542969 0)"/>
       <use xlink:href="#DejaVuSerif-6e" transform="translate(137.162109 0)"/>
       <use xlink:href="#DejaVuSerif-64" transform="translate(201.566406 0)"/>
       <use xlink:href="#DejaVuSerif-6f" transform="translate(265.580078 0)"/>
       <use xlink:href="#DejaVuSerif-6d" transform="translate(325.785156 0)"/>
      </g>
     </g>
    </g>
    <g id="xtick_9">
     <g id="line2d_29">
      <path d="M 513.170096 271.506096 
L 513.170096 48.735 
" clip-path="url(#p81b1476594)" style="fill: none; stroke-dasharray: 2.96,1.28; stroke-dashoffset: 0; stroke: #b0b0b0; stroke-opacity: 0.25; stroke-width: 0.8"/>
     </g>
     <g id="line2d_30">
      <g>
       <use xlink:href="#m865dd82607" x="513.170096" y="271.506096" style="stroke: #000000; stroke-width: 0.8"/>
      </g>
     </g>
     <g id="text_27">
      <!-- Pop -->
      <g transform="translate(501.075622 289.674904) rotate(-30) scale(0.07 -0.07)">
       <use xlink:href="#DejaVuSerif-50"/>
       <use xlink:href="#DejaVuSerif-6f" transform="translate(63.285156 0)"/>
       <use xlink:href="#DejaVuSerif-70" transform="translate(123.490234 0)"/>
      </g>
     </g>
    </g>
    <g id="xtick_10">
     <g id="line2d_31">
      <path d="M 560.142548 271.506096 
L 560.142548 48.735 
" clip-path="url(#p81b1476594)" style="fill: none; stroke-dasharray: 2.96,1.28; stroke-dashoffset: 0; stroke: #b0b0b0; stroke-opacity: 0.25; stroke-width: 0.8"/>
     </g>
     <g id="line2d_32">
      <g>
       <use xlink:href="#m865dd82607" x="560.142548" y="271.506096" style="stroke: #000000; stroke-width: 0.8"/>
      </g>
     </g>
     <g id="text_28">
      <!-- ItemKNN -->
      <g transform="translate(530.109711 300.031622) rotate(-30) scale(0.07 -0.07)">
       <use xlink:href="#DejaVuSerif-49"/>
       <use xlink:href="#DejaVuSerif-74" transform="translate(39.501953 0)"/>
       <use xlink:href="#DejaVuSerif-65" transform="translate(79.6875 0)"/>
       <use xlink:href="#DejaVuSerif-6d" transform="translate(138.867188 0)"/>
       <use xlink:href="#DejaVuSerif-4b" transform="translate(233.691406 0)"/>
       <use xlink:href="#DejaVuSerif-4e" transform="translate(308.398438 0)"/>
       <use xlink:href="#DejaVuSerif-4e" transform="translate(395.898438 0)"/>
      </g>
     </g>
    </g>
    <g id="xtick_11">
     <g id="line2d_33">
      <path d="M 607.115 271.506096 
L 607.115 48.735 
" clip-path="url(#p81b1476594)" style="fill: none; stroke-dasharray: 2.96,1.28; stroke-dashoffset: 0; stroke: #b0b0b0; stroke-opacity: 0.25; stroke-width: 0.8"/>
     </g>
     <g id="line2d_34">
      <g>
       <use xlink:href="#m865dd82607" x="607.115" y="271.506096" style="stroke: #000000; stroke-width: 0.8"/>
      </g>
     </g>
     <g id="text_29">
      <!-- SeqNgram -->
      <g transform="translate(573.270058 302.117613) rotate(-30) scale(0.07 -0.07)">
       <use xlink:href="#DejaVuSerif-53"/>
       <use xlink:href="#DejaVuSerif-65" transform="translate(68.505859 0)"/>
       <use xlink:href="#DejaVuSerif-71" transform="translate(127.685547 0)"/>
       <use xlink:href="#DejaVuSerif-4e" transform="translate(191.699219 0)"/>
       <use xlink:href="#DejaVuSerif-67" transform="translate(279.199219 0)"/>
       <use xlink:href="#DejaVuSerif-72" transform="translate(343.212891 0)"/>
       <use xlink:href="#DejaVuSerif-61" transform="translate(391.015625 0)"/>
       <use xlink:href="#DejaVuSerif-6d" transform="translate(450.634766 0)"/>
      </g>
     </g>
    </g>
    <g id="xtick_12">
     <g id="line2d_35">
      <path d="M 654.087452 271.506096 
L 654.087452 48.735 
" clip-path="url(#p81b1476594)" style="fill: none; stroke-dasharray: 2.96,1.28; stroke-dashoffset: 0; stroke: #b0b0b0; stroke-opacity: 0.25; stroke-width: 0.8"/>
     </g>
     <g id="line2d_36">
      <g>
       <use xlink:href="#m865dd82607" x="654.087452" y="271.506096" style="stroke: #000000; stroke-width: 0.8"/>
      </g>
     </g>
     <g id="text_30">
      <!-- LLM-Base -->
      <g transform="translate(618.365035 301.053732) rotate(-30) scale(0.07 -0.07)">
       <use xlink:href="#DejaVuSerif-4c"/>
       <use xlink:href="#DejaVuSerif-4c" transform="translate(66.40625 0)"/>
       <use xlink:href="#DejaVuSerif-4d" transform="translate(132.8125 0)"/>
       <use xlink:href="#DejaVuSerif-2d" transform="translate(235.205078 0)"/>
       <use xlink:href="#DejaVuSerif-42" transform="translate(268.994141 0)"/>
       <use xlink:href="#DejaVuSerif-61" transform="translate(342.480469 0)"/>
       <use xlink:href="#DejaVuSerif-73" transform="translate(402.099609 0)"/>
       <use xlink:href="#DejaVuSerif-65" transform="translate(453.417969 0)"/>
      </g>
      <!-- (20K) -->
      <g transform="translate(636.38641 299.70017) rotate(-30) scale(0.07 -0.07)">
       <use xlink:href="#DejaVuSerif-28"/>
       <use xlink:href="#DejaVuSerif-32" transform="translate(39.013672 0)"/>
       <use xlink:href="#DejaVuSerif-30" transform="translate(102.636719 0)"/>
       <use xlink:href="#DejaVuSerif-4b" transform="translate(166.259766 0)"/>
       <use xlink:href="#DejaVuSerif-29" transform="translate(240.966797 0)"/>
      </g>
     </g>
    </g>
    <g id="xtick_13">
     <g id="line2d_37">
      <path d="M 701.059904 271.506096 
L 701.059904 48.735 
" clip-path="url(#p81b1476594)" style="fill: none; stroke-dasharray: 2.96,1.28; stroke-dashoffset: 0; stroke: #b0b0b0; stroke-opacity: 0.25; stroke-width: 0.8"/>
     </g>
     <g id="line2d_38">
      <g>
       <use xlink:href="#m865dd82607" x="701.059904" y="271.506096" style="stroke: #000000; stroke-width: 0.8"/>
      </g>
     </g>
     <g id="text_31">
      <!-- LLM-Base -->
      <g transform="translate(665.337487 301.053732) rotate(-30) scale(0.07 -0.07)">
       <use xlink:href="#DejaVuSerif-4c"/>
       <use xlink:href="#DejaVuSerif-4c" transform="translate(66.40625 0)"/>
       <use xlink:href="#DejaVuSerif-4d" transform="translate(132.8125 0)"/>
       <use xlink:href="#DejaVuSerif-2d" transform="translate(235.205078 0)"/>
       <use xlink:href="#DejaVuSerif-42" transform="translate(268.994141 0)"/>
       <use xlink:href="#DejaVuSerif-61" transform="translate(342.480469 0)"/>
       <use xlink:href="#DejaVuSerif-73" transform="translate(402.099609 0)"/>
       <use xlink:href="#DejaVuSerif-65" transform="translate(453.417969 0)"/>
      </g>
      <!-- (10K) -->
      <g transform="translate(683.358862 299.70017) rotate(-30) scale(0.07 -0.07)">
       <use xlink:href="#DejaVuSerif-28"/>
       <use xlink:href="#DejaVuSerif-31" transform="translate(39.013672 0)"/>
       <use xlink:href="#DejaVuSerif-30" transform="translate(102.636719 0)"/>
       <use xlink:href="#DejaVuSerif-4b" transform="translate(166.259766 0)"/>
       <use xlink:href="#DejaVuSerif-29" transform="translate(240.966797 0)"/>
      </g>
     </g>
    </g>
    <g id="xtick_14">
     <g id="line2d_39">
      <path d="M 748.032355 271.506096 
L 748.032355 48.735 
" clip-path="url(#p81b1476594)" style="fill: none; stroke-dasharray: 2.96,1.28; stroke-dashoffset: 0; stroke: #b0b0b0; stroke-opacity: 0.25; stroke-width: 0.8"/>
     </g>
     <g id="line2d_40">
      <g>
       <use xlink:href="#m865dd82607" x="748.032355" y="271.506096" style="stroke: #000000; stroke-width: 0.8"/>
      </g>
     </g>
     <g id="text_32">
      <!-- LLM+RecCL -->
      <g transform="translate(703.835203 305.946622) rotate(-30) scale(0.07 -0.07)">
       <use xlink:href="#DejaVuSerif-4c"/>
       <use xlink:href="#DejaVuSerif-4c" transform="translate(66.40625 0)"/>
       <use xlink:href="#DejaVuSerif-4d" transform="translate(132.8125 0)"/>
       <use xlink:href="#DejaVuSerif-2b" transform="translate(235.205078 0)"/>
       <use xlink:href="#DejaVuSerif-52" transform="translate(318.994141 0)"/>
       <use xlink:href="#DejaVuSerif-65" transform="translate(394.287109 0)"/>
       <use xlink:href="#DejaVuSerif-63" transform="translate(453.466797 0)"/>
       <use xlink:href="#DejaVuSerif-43" transform="translate(509.472656 0)"/>
       <use xlink:href="#DejaVuSerif-4c" transform="translate(585.986328 0)"/>
      </g>
      <!-- (10K) -->
      <g transform="translate(730.331314 299.70017) rotate(-30) scale(0.07 -0.07)">
       <use xlink:href="#DejaVuSerif-28"/>
       <use xlink:href="#DejaVuSerif-31" transform="translate(39.013672 0)"/>
       <use xlink:href="#DejaVuSerif-30" transform="translate(102.636719 0)"/>
       <use xlink:href="#DejaVuSerif-4b" transform="translate(166.259766 0)"/>
       <use xlink:href="#DejaVuSerif-29" transform="translate(240.966797 0)"/>
      </g>
     </g>
    </g>
   </g>
   <g id="matplotlib.axis_4">
    <g id="ytick_7">
     <g id="line2d_41">
      <path d="M 436.605 271.506096 
L 777.625 271.506096 
" clip-path="url(#p81b1476594)" style="fill: none; stroke-dasharray: 2.96,1.28; stroke-dashoffset: 0; stroke: #b0b0b0; stroke-opacity: 0.25; stroke-width: 0.8"/>
     </g>
     <g id="line2d_42">
      <g>
       <use xlink:href="#m2bdf306f88" x="436.605" y="271.506096" style="stroke: #000000; stroke-width: 0.8"/>
      </g>
     </g>
     <g id="text_33">
      <!-- 0.0 -->
      <g transform="translate(415.292187 274.925393) scale(0.09 -0.09)">
       <use xlink:href="#DejaVuSerif-30"/>
       <use xlink:href="#DejaVuSerif-2e" transform="translate(63.623047 0)"/>
       <use xlink:href="#DejaVuSerif-30" transform="translate(95.410156 0)"/>
      </g>
     </g>
    </g>
    <g id="ytick_8">
     <g id="line2d_43">
      <path d="M 436.605 225.786249 
L 777.625 225.786249 
" clip-path="url(#p81b1476594)" style="fill: none; stroke-dasharray: 2.96,1.28; stroke-dashoffset: 0; stroke: #b0b0b0; stroke-opacity: 0.25; stroke-width: 0.8"/>
     </g>
     <g id="line2d_44">
      <g>
       <use xlink:href="#m2bdf306f88" x="436.605" y="225.786249" style="stroke: #000000; stroke-width: 0.8"/>
      </g>
     </g>
     <g id="text_34">
      <!-- 0.2 -->
      <g transform="translate(415.292187 229.205546) scale(0.09 -0.09)">
       <use xlink:href="#DejaVuSerif-30"/>
       <use xlink:href="#DejaVuSerif-2e" transform="translate(63.623047 0)"/>
       <use xlink:href="#DejaVuSerif-32" transform="translate(95.410156 0)"/>
      </g>
     </g>
    </g>
    <g id="ytick_9">
     <g id="line2d_45">
      <path d="M 436.605 180.066402 
L 777.625 180.066402 
" clip-path="url(#p81b1476594)" style="fill: none; stroke-dasharray: 2.96,1.28; stroke-dashoffset: 0; stroke: #b0b0b0; stroke-opacity: 0.25; stroke-width: 0.8"/>
     </g>
     <g id="line2d_46">
      <g>
       <use xlink:href="#m2bdf306f88" x="436.605" y="180.066402" style="stroke: #000000; stroke-width: 0.8"/>
      </g>
     </g>
     <g id="text_35">
      <!-- 0.4 -->
      <g transform="translate(415.292187 183.485699) scale(0.09 -0.09)">
       <defs>
        <path id="DejaVuSerif-34" d="M 2234 1581 
L 2234 4063 
L 641 1581 
L 2234 1581 
z
M 3609 0 
L 1484 0 
L 1484 331 
L 2234 331 
L 2234 1247 
L 197 1247 
L 197 1588 
L 2241 4750 
L 2859 4750 
L 2859 1581 
L 3750 1581 
L 3750 1247 
L 2859 1247 
L 2859 331 
L 3609 331 
L 3609 0 
z
" transform="scale(0.015625)"/>
       </defs>
       <use xlink:href="#DejaVuSerif-30"/>
       <use xlink:href="#DejaVuSerif-2e" transform="translate(63.623047 0)"/>
       <use xlink:href="#DejaVuSerif-34" transform="translate(95.410156 0)"/>
      </g>
     </g>
    </g>
    <g id="ytick_10">
     <g id="line2d_47">
      <path d="M 436.605 134.346556 
L 777.625 134.346556 
" clip-path="url(#p81b1476594)" style="fill: none; stroke-dasharray: 2.96,1.28; stroke-dashoffset: 0; stroke: #b0b0b0; stroke-opacity: 0.25; stroke-width: 0.8"/>
     </g>
     <g id="line2d_48">
      <g>
       <use xlink:href="#m2bdf306f88" x="436.605" y="134.346556" style="stroke: #000000; stroke-width: 0.8"/>
      </g>
     </g>
     <g id="text_36">
      <!-- 0.6 -->
      <g transform="translate(415.292187 137.765853) scale(0.09 -0.09)">
       <use xlink:href="#DejaVuSerif-30"/>
       <use xlink:href="#DejaVuSerif-2e" transform="translate(63.623047 0)"/>
       <use xlink:href="#DejaVuSerif-36" transform="translate(95.410156 0)"/>
      </g>
     </g>
    </g>
    <g id="ytick_11">
     <g id="line2d_49">
      <path d="M 436.605 88.626709 
L 777.625 88.626709 
" clip-path="url(#p81b1476594)" style="fill: none; stroke-dasharray: 2.96,1.28; stroke-dashoffset: 0; stroke: #b0b0b0; stroke-opacity: 0.25; stroke-width: 0.8"/>
     </g>
     <g id="line2d_50">
      <g>
       <use xlink:href="#m2bdf306f88" x="436.605" y="88.626709" style="stroke: #000000; stroke-width: 0.8"/>
      </g>
     </g>
     <g id="text_37">
      <!-- 0.8 -->
      <g transform="translate(415.292187 92.046006) scale(0.09 -0.09)">
       <defs>
        <path id="DejaVuSerif-38" d="M 2981 1275 
Q 2981 1775 2732 2051 
Q 2484 2328 2034 2328 
Q 1584 2328 1336 2051 
Q 1088 1775 1088 1275 
Q 1088 772 1336 495 
Q 1584 219 2034 219 
Q 2484 219 2732 495 
Q 2981 772 2981 1275 
z
M 2853 3541 
Q 2853 3966 2637 4203 
Q 2422 4441 2034 4441 
Q 1650 4441 1433 4203 
Q 1216 3966 1216 3541 
Q 1216 3113 1433 2875 
Q 1650 2638 2034 2638 
Q 2422 2638 2637 2875 
Q 2853 3113 2853 3541 
z
M 2516 2484 
Q 3047 2413 3344 2092 
Q 3641 1772 3641 1275 
Q 3641 619 3225 264 
Q 2809 -91 2034 -91 
Q 1263 -91 845 264 
Q 428 619 428 1275 
Q 428 1772 725 2092 
Q 1022 2413 1556 2484 
Q 1084 2569 832 2842 
Q 581 3116 581 3541 
Q 581 4103 968 4426 
Q 1356 4750 2034 4750 
Q 2713 4750 3100 4426 
Q 3488 4103 3488 3541 
Q 3488 3116 3236 2842 
Q 2984 2569 2516 2484 
z
" transform="scale(0.015625)"/>
       </defs>
       <use xlink:href="#DejaVuSerif-30"/>
       <use xlink:href="#DejaVuSerif-2e" transform="translate(63.623047 0)"/>
       <use xlink:href="#DejaVuSerif-38" transform="translate(95.410156 0)"/>
      </g>
     </g>
    </g>
    <g id="text_38">
     <!-- Coverage@10 -->
     <g transform="translate(408.848125 199.186017) rotate(-90) scale(0.11 -0.11)">
      <use xlink:href="#DejaVuSerif-43"/>
      <use xlink:href="#DejaVuSerif-6f" transform="translate(76.513672 0)"/>
      <use xlink:href="#DejaVuSerif-76" transform="translate(136.71875 0)"/>
      <use xlink:href="#DejaVuSerif-65" transform="translate(193.212891 0)"/>
      <use xlink:href="#DejaVuSerif-72" transform="translate(252.392578 0)"/>
      <use xlink:href="#DejaVuSerif-61" transform="translate(300.195312 0)"/>
      <use xlink:href="#DejaVuSerif-67" transform="translate(359.814453 0)"/>
      <use xlink:href="#DejaVuSerif-65" transform="translate(423.828125 0)"/>
      <use xlink:href="#DejaVuSerif-40" transform="translate(483.007812 0)"/>
      <use xlink:href="#DejaVuSerif-31" transform="translate(583.007812 0)"/>
      <use xlink:href="#DejaVuSerif-30" transform="translate(646.630859 0)"/>
     </g>
    </g>
   </g>
   <g id="patch_26">
    <path d="M 436.605 271.506096 
L 436.605 48.735 
" style="fill: none; stroke: #000000; stroke-width: 0.8; stroke-linejoin: miter; stroke-linecap: square"/>
   </g>
   <g id="patch_27">
    <path d="M 777.625 271.506096 
L 777.625 48.735 
" style="fill: none; stroke: #000000; stroke-width: 0.8; stroke-linejoin: miter; stroke-linecap: square"/>
   </g>
   <g id="patch_28">
    <path d="M 436.605 271.506096 
L 777.625 271.506096 
" style="fill: none; stroke: #000000; stroke-width: 0.8; stroke-linejoin: miter; stroke-linecap: square"/>
   </g>
   <g id="patch_29">
    <path d="M 436.605 48.735 
L 777.625 48.735 
" style="fill: none; stroke: #000000; stroke-width: 0.8; stroke-linejoin: miter; stroke-linecap: square"/>
   </g>
   <g id="text_39">
    <!-- 0.9281 -->
    <g transform="translate(468.129207 59.655933) rotate(-90) scale(0.07 -0.07)">
     <use xlink:href="#DejaVuSerif-30"/>
     <use xlink:href="#DejaVuSerif-2e" transform="translate(63.623047 0)"/>
     <use xlink:href="#DejaVuSerif-39" transform="translate(95.410156 0)"/>
     <use xlink:href="#DejaVuSerif-32" transform="translate(159.033203 0)"/>
     <use xlink:href="#DejaVuSerif-38" transform="translate(222.65625 0)"/>
     <use xlink:href="#DejaVuSerif-31" transform="translate(286.279297 0)"/>
    </g>
   </g>
   <g id="text_40">
    <!-- 0.0037 -->
    <g transform="translate(515.101659 270.973064) rotate(-90) scale(0.07 -0.07)">
     <defs>
      <path id="DejaVuSerif-33" d="M 622 4469 
Q 988 4606 1323 4678 
Q 1659 4750 1953 4750 
Q 2638 4750 3022 4454 
Q 3406 4159 3406 3634 
Q 3406 3213 3140 2930 
Q 2875 2647 2388 2547 
Q 2963 2466 3280 2130 
Q 3597 1794 3597 1259 
Q 3597 606 3158 257 
Q 2719 -91 1894 -91 
Q 1528 -91 1179 -12 
Q 831 66 488 225 
L 488 1131 
L 838 1131 
Q 869 681 1141 450 
Q 1413 219 1906 219 
Q 2384 219 2661 495 
Q 2938 772 2938 1253 
Q 2938 1803 2653 2086 
Q 2369 2369 1819 2369 
L 1522 2369 
L 1522 2688 
L 1678 2688 
Q 2225 2688 2498 2914 
Q 2772 3141 2772 3597 
Q 2772 4006 2547 4223 
Q 2322 4441 1900 4441 
Q 1478 4441 1245 4241 
Q 1013 4041 972 3647 
L 622 3647 
L 622 4469 
z
" transform="scale(0.015625)"/>
     </defs>
     <use xlink:href="#DejaVuSerif-30"/>
     <use xlink:href="#DejaVuSerif-2e" transform="translate(63.623047 0)"/>
     <use xlink:href="#DejaVuSerif-30" transform="translate(95.410156 0)"/>
     <use xlink:href="#DejaVuSerif-30" transform="translate(159.033203 0)"/>
     <use xlink:href="#DejaVuSerif-33" transform="translate(222.65625 0)"/>
     <use xlink:href="#DejaVuSerif-37" transform="translate(286.279297 0)"/>
    </g>
   </g>
   <g id="text_41">
    <!-- 0.0830 -->
    <g transform="translate(562.074111 252.845144) rotate(-90) scale(0.07 -0.07)">
     <use xlink:href="#DejaVuSerif-30"/>
     <use xlink:href="#DejaVuSerif-2e" transform="translate(63.623047 0)"/>
     <use xlink:href="#DejaVuSerif-30" transform="translate(95.410156 0)"/>
     <use xlink:href="#DejaVuSerif-38" transform="translate(159.033203 0)"/>
     <use xlink:href="#DejaVuSerif-33" transform="translate(222.65625 0)"/>
     <use xlink:href="#DejaVuSerif-30" transform="translate(286.279297 0)"/>
    </g>
   </g>
   <g id="text_42">
    <!-- 0.0205 -->
    <g transform="translate(609.046562 267.132597) rotate(-90) scale(0.07 -0.07)">
     <use xlink:href="#DejaVuSerif-30"/>
     <use xlink:href="#DejaVuSerif-2e" transform="translate(63.623047 0)"/>
     <use xlink:href="#DejaVuSerif-30" transform="translate(95.410156 0)"/>
     <use xlink:href="#DejaVuSerif-32" transform="translate(159.033203 0)"/>
     <use xlink:href="#DejaVuSerif-30" transform="translate(222.65625 0)"/>
     <use xlink:href="#DejaVuSerif-35" transform="translate(286.279297 0)"/>
    </g>
   </g>
   <g id="text_43">
    <!-- 0.0020 -->
    <g transform="translate(656.019014 271.361682) rotate(-90) scale(0.07 -0.07)">
     <use xlink:href="#DejaVuSerif-30"/>
     <use xlink:href="#DejaVuSerif-2e" transform="translate(63.623047 0)"/>
     <use xlink:href="#DejaVuSerif-30" transform="translate(95.410156 0)"/>
     <use xlink:href="#DejaVuSerif-30" transform="translate(159.033203 0)"/>
     <use xlink:href="#DejaVuSerif-32" transform="translate(222.65625 0)"/>
     <use xlink:href="#DejaVuSerif-30" transform="translate(286.279297 0)"/>
    </g>
   </g>
   <g id="text_44">
    <!-- 0.0013 -->
    <g transform="translate(702.991466 271.521702) rotate(-90) scale(0.07 -0.07)">
     <use xlink:href="#DejaVuSerif-30"/>
     <use xlink:href="#DejaVuSerif-2e" transform="translate(63.623047 0)"/>
     <use xlink:href="#DejaVuSerif-30" transform="translate(95.410156 0)"/>
     <use xlink:href="#DejaVuSerif-30" transform="translate(159.033203 0)"/>
     <use xlink:href="#DejaVuSerif-31" transform="translate(222.65625 0)"/>
     <use xlink:href="#DejaVuSerif-33" transform="translate(286.279297 0)"/>
    </g>
   </g>
   <g id="text_45">
    <!-- 0.0013 -->
    <g transform="translate(749.963918 271.521702) rotate(-90) scale(0.07 -0.07)">
     <use xlink:href="#DejaVuSerif-30"/>
     <use xlink:href="#DejaVuSerif-2e" transform="translate(63.623047 0)"/>
     <use xlink:href="#DejaVuSerif-30" transform="translate(95.410156 0)"/>
     <use xlink:href="#DejaVuSerif-30" transform="translate(159.033203 0)"/>
     <use xlink:href="#DejaVuSerif-31" transform="translate(222.65625 0)"/>
     <use xlink:href="#DejaVuSerif-33" transform="translate(286.279297 0)"/>
    </g>
   </g>
   <g id="text_46">
    <!-- (b) Catalog Coverage (higher = broader recommendations) -->
    <g transform="translate(426.373437 42.735) scale(0.12 -0.12)">
     <defs>
      <path id="DejaVuSerif-62" d="M 738 331 
L 738 4531 
L 184 4531 
L 184 4863 
L 1313 4863 
L 1313 2803 
Q 1481 3116 1742 3264 
Q 2003 3413 2388 3413 
Q 3000 3413 3387 2928 
Q 3775 2444 3775 1663 
Q 3775 881 3387 395 
Q 3000 -91 2388 -91 
Q 2003 -91 1742 57 
Q 1481 206 1313 519 
L 1313 0 
L 184 0 
L 184 331 
L 738 331 
z
M 1313 1497 
Q 1313 897 1542 583 
Q 1772 269 2209 269 
Q 2650 269 2876 622 
Q 3103 975 3103 1663 
Q 3103 2353 2876 2703 
Q 2650 3053 2209 3053 
Q 1772 3053 1542 2737 
Q 1313 2422 1313 1825 
L 1313 1497 
z
" transform="scale(0.015625)"/>
      <path id="DejaVuSerif-68" d="M 263 0 
L 263 331 
L 781 331 
L 781 4531 
L 231 4531 
L 231 4863 
L 1356 4863 
L 1356 2731 
Q 1516 3069 1770 3241 
Q 2025 3413 2363 3413 
Q 2913 3413 3172 3097 
Q 3431 2781 3431 2113 
L 3431 331 
L 3944 331 
L 3944 0 
L 2356 0 
L 2356 331 
L 2853 331 
L 2853 1931 
Q 2853 2541 2704 2764 
Q 2556 2988 2175 2988 
Q 1775 2988 1565 2697 
Q 1356 2406 1356 1850 
L 1356 331 
L 1856 331 
L 1856 0 
L 263 0 
z
" transform="scale(0.015625)"/>
     </defs>
     <use xlink:href="#DejaVuSerif-28"/>
     <use xlink:href="#DejaVuSerif-62" transform="translate(39.013672 0)"/>
     <use xlink:href="#DejaVuSerif-29" transform="translate(103.027344 0)"/>
     <use xlink:href="#DejaVuSerif-20" transform="translate(142.041016 0)"/>
     <use xlink:href="#DejaVuSerif-43" transform="translate(173.828125 0)"/>
     <use xlink:href="#DejaVuSerif-61" transform="translate(250.341797 0)"/>
     <use xlink:href="#DejaVuSerif-74" transform="translate(309.960938 0)"/>
     <use xlink:href="#DejaVuSerif-61" transform="translate(350.146484 0)"/>
     <use xlink:href="#DejaVuSerif-6c" transform="translate(409.765625 0)"/>
     <use xlink:href="#DejaVuSerif-6f" transform="translate(441.748047 0)"/>
     <use xlink:href="#DejaVuSerif-67" transform="translate(501.953125 0)"/>
     <use xlink:href="#DejaVuSerif-20" transform="translate(565.966797 0)"/>
     <use xlink:href="#DejaVuSerif-43" transform="translate(597.753906 0)"/>
     <use xlink:href="#DejaVuSerif-6f" transform="translate(674.267578 0)"/>
     <use xlink:href="#DejaVuSerif-76" transform="translate(734.472656 0)"/>
     <use xlink:href="#DejaVuSerif-65" transform="translate(790.966797 0)"/>
     <use xlink:href="#DejaVuSerif-72" transform="translate(850.146484 0)"/>
     <use xlink:href="#DejaVuSerif-61" transform="translate(897.949219 0)"/>
     <use xlink:href="#DejaVuSerif-67" transform="translate(957.568359 0)"/>
     <use xlink:href="#DejaVuSerif-65" transform="translate(1021.582031 0)"/>
     <use xlink:href="#DejaVuSerif-20" transform="translate(1080.761719 0)"/>
     <use xlink:href="#DejaVuSerif-28" transform="translate(1112.548828 0)"/>
     <use xlink:href="#DejaVuSerif-68" transform="translate(1151.5625 0)"/>
     <use xlink:href="#DejaVuSerif-69" transform="translate(1215.966797 0)"/>
     <use xlink:href="#DejaVuSerif-67" transform="translate(1247.949219 0)"/>
     <use xlink:href="#DejaVuSerif-68" transform="translate(1311.962891 0)"/>
     <use xlink:href="#DejaVuSerif-65" transform="translate(1376.367188 0)"/>
     <use xlink:href="#DejaVuSerif-72" transform="translate(1435.546875 0)"/>
     <use xlink:href="#DejaVuSerif-20" transform="translate(1483.349609 0)"/>
     <use xlink:href="#DejaVuSerif-3d" transform="translate(1515.136719 0)"/>
     <use xlink:href="#DejaVuSerif-20" transform="translate(1598.925781 0)"/>
     <use xlink:href="#DejaVuSerif-62" transform="translate(1630.712891 0)"/>
     <use xlink:href="#DejaVuSerif-72" transform="translate(1694.726562 0)"/>
     <use xlink:href="#DejaVuSerif-6f" transform="translate(1742.529297 0)"/>
     <use xlink:href="#DejaVuSerif-61" transform="translate(1802.734375 0)"/>
     <use xlink:href="#DejaVuSerif-64" transform="translate(1862.353516 0)"/>
     <use xlink:href="#DejaVuSerif-65" transform="translate(1926.367188 0)"/>
     <use xlink:href="#DejaVuSerif-72" transform="translate(1985.546875 0)"/>
     <use xlink:href="#DejaVuSerif-20" transform="translate(2033.349609 0)"/>
     <use xlink:href="#DejaVuSerif-72" transform="translate(2065.136719 0)"/>
     <use xlink:href="#DejaVuSerif-65" transform="translate(2112.939453 0)"/>
     <use xlink:href="#DejaVuSerif-63" transform="translate(2172.119141 0)"/>
     <use xlink:href="#DejaVuSerif-6f" transform="translate(2228.125 0)"/>
     <use xlink:href="#DejaVuSerif-6d" transform="translate(2288.330078 0)"/>
     <use xlink:href="#DejaVuSerif-6d" transform="translate(2383.154297 0)"/>
     <use xlink:href="#DejaVuSerif-65" transform="translate(2477.978516 0)"/>
     <use xlink:href="#DejaVuSerif-6e" transform="translate(2537.158203 0)"/>
     <use xlink:href="#DejaVuSerif-64" transform="translate(2601.5625 0)"/>
     <use xlink:href="#DejaVuSerif-61" transform="translate(2665.576172 0)"/>
     <use xlink:href="#DejaVuSerif-74" transform="translate(2725.195312 0)"/>
     <use xlink:href="#DejaVuSerif-69" transform="translate(2765.380859 0)"/>
     <use xlink:href="#DejaVuSerif-6f" transform="translate(2797.363281 0)"/>
     <use xlink:href="#DejaVuSerif-6e" transform="translate(2857.568359 0)"/>
     <use xlink:href="#DejaVuSerif-73" transform="translate(2921.972656 0)"/>
     <use xlink:href="#DejaVuSerif-29" transform="translate(2973.291016 0)"/>
    </g>
   </g>
   <g id="legend_2">
    <g id="patch_30">
     <path d="M 692.009531 85.258594 
L 772.725 85.258594 
Q 774.125 85.258594 774.125 83.858594 
L 774.125 53.635 
Q 774.125 52.235 772.725 52.235 
L 692.009531 52.235 
Q 690.609531 52.235 690.609531 53.635 
L 690.609531 83.858594 
Q 690.609531 85.258594 692.009531 85.258594 
z
" style="fill: #ffffff; opacity: 0.8; stroke: #cccccc; stroke-linejoin: miter"/>
    </g>
    <g id="patch_31">
     <path d="M 693.409531 60.353906 
L 707.409531 60.353906 
L 707.409531 55.453906 
L 693.409531 55.453906 
z
" style="fill: #4caf50"/>
    </g>
    <g id="text_47">
     <!-- High (&gt;0.1) -->
     <g transform="translate(713.009531 60.353906) scale(0.07 -0.07)">
      <defs>
       <path id="DejaVuSerif-48" d="M 353 0 
L 353 331 
L 947 331 
L 947 4331 
L 353 4331 
L 353 4666 
L 2175 4666 
L 2175 4331 
L 1581 4331 
L 1581 2719 
L 4000 2719 
L 4000 4331 
L 3406 4331 
L 3406 4666 
L 5228 4666 
L 5228 4331 
L 4634 4331 
L 4634 331 
L 5228 331 
L 5228 0 
L 3406 0 
L 3406 331 
L 4000 331 
L 4000 2338 
L 1581 2338 
L 1581 331 
L 2175 331 
L 2175 0 
L 353 0 
z
" transform="scale(0.015625)"/>
       <path id="DejaVuSerif-3e" d="M 678 3188 
L 678 3719 
L 4684 2266 
L 4684 1747 
L 678 294 
L 678 825 
L 3922 2003 
L 678 3188 
z
" transform="scale(0.015625)"/>
      </defs>
      <use xlink:href="#DejaVuSerif-48"/>
      <use xlink:href="#DejaVuSerif-69" transform="translate(87.207031 0)"/>
      <use xlink:href="#DejaVuSerif-67" transform="translate(119.189453 0)"/>
      <use xlink:href="#DejaVuSerif-68" transform="translate(183.203125 0)"/>
      <use xlink:href="#DejaVuSerif-20" transform="translate(247.607422 0)"/>
      <use xlink:href="#DejaVuSerif-28" transform="translate(279.394531 0)"/>
      <use xlink:href="#DejaVuSerif-3e" transform="translate(318.408203 0)"/>
      <use xlink:href="#DejaVuSerif-30" transform="translate(402.197266 0)"/>
      <use xlink:href="#DejaVuSerif-2e" transform="translate(465.820312 0)"/>
      <use xlink:href="#DejaVuSerif-31" transform="translate(497.607422 0)"/>
      <use xlink:href="#DejaVuSerif-29" transform="translate(561.230469 0)"/>
     </g>
    </g>
    <g id="patch_32">
     <path d="M 693.409531 70.728125 
L 707.409531 70.728125 
L 707.409531 65.828125 
L 693.409531 65.828125 
z
" style="fill: #ffc107"/>
    </g>
    <g id="text_48">
     <!-- Medium (&gt;0.01) -->
     <g transform="translate(713.009531 70.728125) scale(0.07 -0.07)">
      <defs>
       <path id="DejaVuSerif-75" d="M 2266 3322 
L 3341 3322 
L 3341 331 
L 3884 331 
L 3884 0 
L 2766 0 
L 2766 588 
Q 2606 256 2353 82 
Q 2100 -91 1766 -91 
Q 1213 -91 952 223 
Q 691 538 691 1209 
L 691 2988 
L 172 2988 
L 172 3322 
L 1269 3322 
L 1269 1388 
Q 1269 781 1417 556 
Q 1566 331 1947 331 
Q 2347 331 2556 625 
Q 2766 919 2766 1478 
L 2766 2988 
L 2266 2988 
L 2266 3322 
z
" transform="scale(0.015625)"/>
      </defs>
      <use xlink:href="#DejaVuSerif-4d"/>
      <use xlink:href="#DejaVuSerif-65" transform="translate(102.392578 0)"/>
      <use xlink:href="#DejaVuSerif-64" transform="translate(161.572266 0)"/>
      <use xlink:href="#DejaVuSerif-69" transform="translate(225.585938 0)"/>
      <use xlink:href="#DejaVuSerif-75" transform="translate(257.568359 0)"/>
      <use xlink:href="#DejaVuSerif-6d" transform="translate(321.972656 0)"/>
      <use xlink:href="#DejaVuSerif-20" transform="translate(416.796875 0)"/>
      <use xlink:href="#DejaVuSerif-28" transform="translate(448.583984 0)"/>
      <use xlink:href="#DejaVuSerif-3e" transform="translate(487.597656 0)"/>
      <use xlink:href="#DejaVuSerif-30" transform="translate(571.386719 0)"/>
      <use xlink:href="#DejaVuSerif-2e" transform="translate(635.009766 0)"/>
      <use xlink:href="#DejaVuSerif-30" transform="translate(666.796875 0)"/>
      <use xlink:href="#DejaVuSerif-31" transform="translate(730.419922 0)"/>
      <use xlink:href="#DejaVuSerif-29" transform="translate(794.042969 0)"/>
     </g>
    </g>
    <g id="patch_33">
     <path d="M 693.409531 81.002812 
L 707.409531 81.002812 
L 707.409531 76.102812 
L 693.409531 76.102812 
z
" style="fill: #f44336"/>
    </g>
    <g id="text_49">
     <!-- Low (&lt;0.01) -->
     <g transform="translate(713.009531 81.002812) scale(0.07 -0.07)">
      <defs>
       <path id="DejaVuSerif-3c" d="M 4684 3188 
L 1441 2003 
L 4684 825 
L 4684 294 
L 678 1747 
L 678 2266 
L 4684 3719 
L 4684 3188 
z
" transform="scale(0.015625)"/>
      </defs>
      <use xlink:href="#DejaVuSerif-4c"/>
      <use xlink:href="#DejaVuSerif-6f" transform="translate(66.40625 0)"/>
      <use xlink:href="#DejaVuSerif-77" transform="translate(126.611328 0)"/>
      <use xlink:href="#DejaVuSerif-20" transform="translate(212.207031 0)"/>
      <use xlink:href="#DejaVuSerif-28" transform="translate(243.994141 0)"/>
      <use xlink:href="#DejaVuSerif-3c" transform="translate(283.007812 0)"/>
      <use xlink:href="#DejaVuSerif-30" transform="translate(366.796875 0)"/>
      <use xlink:href="#DejaVuSerif-2e" transform="translate(430.419922 0)"/>
      <use xlink:href="#DejaVuSerif-30" transform="translate(462.207031 0)"/>
      <use xlink:href="#DejaVuSerif-31" transform="translate(525.830078 0)"/>
      <use xlink:href="#DejaVuSerif-29" transform="translate(589.453125 0)"/>
     </g>
    </g>
   </g>
  </g>
  <g id="text_50">
   <!-- Diversity &amp; Coverage Analysis -->
   <g transform="translate(292.03 16.318125) scale(0.12 -0.12)">
    <defs>
     <path id="DejaVuSerif-Bold-44" d="M 2100 378 
L 2534 378 
Q 3266 378 3605 847 
Q 3944 1316 3944 2338 
Q 3944 3353 3606 3820 
Q 3269 4288 2534 4288 
L 2100 4288 
L 2100 378 
z
M 300 0 
L 300 378 
L 897 378 
L 897 4288 
L 300 4288 
L 300 4666 
L 2694 4666 
Q 3950 4666 4615 4066 
Q 5281 3466 5281 2338 
Q 5281 1203 4614 601 
Q 3947 0 2694 0 
L 300 0 
z
" transform="scale(0.015625)"/>
     <path id="DejaVuSerif-Bold-69" d="M 588 4263 
Q 588 4516 763 4689 
Q 938 4863 1191 4863 
Q 1438 4863 1611 4689 
Q 1784 4516 1784 4263 
Q 1784 4016 1611 3842 
Q 1438 3669 1191 3669 
Q 938 3669 763 3841 
Q 588 4013 588 4263 
z
M 1797 378 
L 2272 378 
L 2272 0 
L 219 0 
L 219 378 
L 691 378 
L 691 2944 
L 219 2944 
L 219 3322 
L 1797 3322 
L 1797 378 
z
" transform="scale(0.015625)"/>
     <path id="DejaVuSerif-Bold-76" d="M 1428 0 
L 250 2944 
L -116 2944 
L -116 3322 
L 1791 3322 
L 1791 2944 
L 1388 2944 
L 2228 844 
L 3066 2944 
L 2631 2944 
L 2631 3322 
L 3878 3322 
L 3878 2944 
L 3494 2944 
L 2316 0 
L 1428 0 
z
" transform="scale(0.015625)"/>
     <path id="DejaVuSerif-Bold-65" d="M 2566 1875 
Q 2566 2531 2444 2795 
Q 2322 3059 2028 3059 
Q 1744 3059 1620 2800 
Q 1497 2541 1497 1931 
L 1497 1875 
L 2566 1875 
z
M 3781 1503 
L 1497 1503 
L 1497 1478 
Q 1497 834 1690 548 
Q 1884 263 2316 263 
Q 2675 263 2897 453 
Q 3119 644 3181 1006 
L 3700 1006 
Q 3566 441 3166 175 
Q 2766 -91 2047 -91 
Q 1184 -91 723 364 
Q 263 819 263 1663 
Q 263 2488 734 2950 
Q 1206 3413 2047 3413 
Q 2872 3413 3312 2927 
Q 3753 2441 3781 1503 
z
" transform="scale(0.015625)"/>
     <path id="DejaVuSerif-Bold-72" d="M 3438 3359 
L 3438 2369 
L 3084 2369 
Q 3066 2634 2941 2764 
Q 2816 2894 2578 2894 
Q 2216 2894 2006 2575 
Q 1797 2256 1797 1691 
L 1797 378 
L 2400 378 
L 2400 0 
L 219 0 
L 219 378 
L 691 378 
L 691 2944 
L 184 2944 
L 184 3322 
L 1797 3322 
L 1797 2731 
Q 1959 3078 2226 3245 
Q 2494 3413 2881 3413 
Q 2978 3413 3117 3398 
Q 3256 3384 3438 3359 
z
" transform="scale(0.015625)"/>
     <path id="DejaVuSerif-Bold-73" d="M 300 97 
L 300 1025 
L 653 1025 
Q 697 653 931 458 
Q 1166 263 1569 263 
Q 1906 263 2086 380 
Q 2266 497 2266 716 
Q 2266 916 2152 1025 
Q 2038 1134 1709 1216 
L 1253 1331 
Q 738 1459 506 1698 
Q 275 1938 275 2344 
Q 275 2884 650 3148 
Q 1025 3413 1806 3413 
Q 2100 3413 2433 3364 
Q 2766 3316 3169 3213 
L 3169 2375 
L 2816 2375 
Q 2788 2716 2573 2887 
Q 2359 3059 1959 3059 
Q 1622 3059 1448 2951 
Q 1275 2844 1275 2638 
Q 1275 2469 1375 2372 
Q 1475 2275 1734 2209 
L 2188 2094 
Q 2841 1928 3091 1684 
Q 3341 1441 3341 1006 
Q 3341 444 2939 176 
Q 2538 -91 1691 -91 
Q 1381 -91 1034 -44 
Q 688 3 300 97 
z
" transform="scale(0.015625)"/>
     <path id="DejaVuSerif-Bold-74" d="M 634 2944 
L 153 2944 
L 153 3322 
L 634 3322 
L 634 4353 
L 1741 4353 
L 1741 3322 
L 2663 3322 
L 2663 2944 
L 1741 2944 
L 1741 909 
Q 1741 475 1809 369 
Q 1878 263 2059 263 
Q 2259 263 2356 397 
Q 2453 531 2459 813 
L 2925 813 
Q 2897 313 2651 111 
Q 2406 -91 1806 -91 
Q 1122 -91 878 123 
Q 634 338 634 909 
L 634 2944 
z
" transform="scale(0.015625)"/>
     <path id="DejaVuSerif-Bold-79" d="M 1997 -750 
Q 1847 -1116 1634 -1269 
Q 1422 -1422 1063 -1422 
Q 909 -1422 721 -1387 
Q 534 -1353 313 -1288 
L 313 -594 
L 666 -597 
Q 675 -838 779 -953 
Q 884 -1069 1094 -1069 
Q 1297 -1069 1422 -958 
Q 1547 -847 1672 -538 
L 1722 -422 
L 275 2944 
L -84 2944 
L -84 3322 
L 1831 3322 
L 1831 2944 
L 1434 2944 
L 2278 978 
L 3066 2944 
L 2625 2944 
L 2625 3322 
L 3872 3322 
L 3872 2944 
L 3469 2944 
L 1997 -750 
z
" transform="scale(0.015625)"/>
     <path id="DejaVuSerif-Bold-20" transform="scale(0.015625)"/>
     <path id="DejaVuSerif-Bold-26" d="M 5663 0 
L 4166 0 
L 3769 409 
Q 3456 159 3078 34 
Q 2700 -91 2253 -91 
Q 1316 -91 786 309 
Q 256 709 256 1409 
Q 256 1919 526 2280 
Q 797 2641 1375 2900 
Q 1216 3109 1136 3300 
Q 1056 3491 1056 3669 
Q 1056 4181 1486 4465 
Q 1916 4750 2694 4750 
Q 2925 4750 3233 4712 
Q 3541 4675 3928 4603 
L 3928 3628 
L 3525 3628 
Q 3469 4016 3287 4194 
Q 3106 4372 2772 4372 
Q 2456 4372 2275 4222 
Q 2094 4072 2094 3816 
Q 2094 3528 2653 2959 
Q 2716 2897 2747 2869 
L 4184 1363 
Q 4372 1575 4478 1853 
Q 4584 2131 4613 2484 
L 4044 2484 
L 4044 2859 
L 5606 2859 
L 5606 2484 
L 5056 2484 
Q 5003 2028 4861 1675 
Q 4719 1322 4488 1050 
L 5131 378 
L 5663 378 
L 5663 0 
z
M 3475 716 
L 1709 2553 
Q 1538 2344 1450 2108 
Q 1363 1872 1363 1613 
Q 1363 1084 1695 743 
Q 2028 403 2541 403 
Q 2784 403 3014 479 
Q 3244 556 3475 716 
z
" transform="scale(0.015625)"/>
     <path id="DejaVuSerif-Bold-43" d="M 4769 1331 
Q 4584 609 4106 259 
Q 3628 -91 2822 -91 
Q 1641 -91 955 561 
Q 269 1213 269 2328 
Q 269 3447 955 4098 
Q 1641 4750 2822 4750 
Q 3238 4750 3688 4650 
Q 4138 4550 4641 4347 
L 4641 3200 
L 4244 3200 
Q 4122 3788 3800 4080 
Q 3478 4372 2950 4372 
Q 2269 4372 1937 3870 
Q 1606 3369 1606 2328 
Q 1606 1288 1937 788 
Q 2269 288 2956 288 
Q 3422 288 3717 547 
Q 4013 806 4147 1331 
L 4769 1331 
z
" transform="scale(0.015625)"/>
     <path id="DejaVuSerif-Bold-6f" d="M 2138 263 
Q 2488 263 2630 563 
Q 2772 863 2772 1663 
Q 2772 2463 2631 2761 
Q 2491 3059 2138 3059 
Q 1784 3059 1640 2757 
Q 1497 2456 1497 1663 
Q 1497 869 1640 566 
Q 1784 263 2138 263 
z
M 2138 -91 
Q 1259 -91 761 376 
Q 263 844 263 1663 
Q 263 2484 761 2948 
Q 1259 3413 2138 3413 
Q 3019 3413 3516 2948 
Q 4013 2484 4013 1663 
Q 4013 844 3514 376 
Q 3016 -91 2138 -91 
z
" transform="scale(0.015625)"/>
     <path id="DejaVuSerif-Bold-61" d="M 3525 2041 
L 3525 378 
L 4000 378 
L 4000 0 
L 2419 0 
L 2419 422 
Q 2200 159 1931 34 
Q 1663 -91 1319 -91 
Q 809 -91 536 182 
Q 263 456 263 966 
Q 263 1525 655 1803 
Q 1047 2081 1838 2081 
L 2419 2081 
L 2419 2278 
Q 2419 2681 2228 2873 
Q 2038 3066 1638 3066 
Q 1306 3066 1126 2930 
Q 947 2794 872 2484 
L 519 2484 
L 519 3200 
Q 816 3306 1134 3359 
Q 1453 3413 1806 3413 
Q 2697 3413 3111 3081 
Q 3525 2750 3525 2041 
z
M 2419 1044 
L 2419 1709 
L 2003 1709 
Q 1694 1709 1528 1540 
Q 1363 1372 1363 1056 
Q 1363 741 1483 584 
Q 1603 428 1850 428 
Q 2106 428 2262 597 
Q 2419 766 2419 1044 
z
" transform="scale(0.015625)"/>
     <path id="DejaVuSerif-Bold-67" d="M 3853 2944 
L 3853 44 
Q 3853 -656 3354 -1039 
Q 2856 -1422 1947 -1422 
Q 1616 -1422 1275 -1370 
Q 934 -1319 575 -1216 
L 575 -422 
L 928 -422 
Q 975 -750 1192 -909 
Q 1409 -1069 1813 -1069 
Q 2325 -1069 2536 -823 
Q 2747 -578 2747 44 
L 2747 422 
Q 2606 163 2367 36 
Q 2128 -91 1778 -91 
Q 1072 -91 667 378 
Q 263 847 263 1663 
Q 263 2481 667 2947 
Q 1072 3413 1778 3413 
Q 2128 3413 2367 3286 
Q 2606 3159 2747 2900 
L 2747 3322 
L 4325 3322 
L 4325 2944 
L 3853 2944 
z
M 2747 1825 
Q 2747 2406 2597 2665 
Q 2447 2925 2119 2925 
Q 1775 2925 1636 2651 
Q 1497 2378 1497 1663 
Q 1497 947 1637 672 
Q 1778 397 2119 397 
Q 2447 397 2597 656 
Q 2747 916 2747 1497 
L 2747 1825 
z
" transform="scale(0.015625)"/>
     <path id="DejaVuSerif-Bold-41" d="M -50 0 
L -50 378 
L 331 378 
L 2088 4666 
L 2834 4666 
L 4594 378 
L 5038 378 
L 5038 0 
L 2853 0 
L 2853 378 
L 3309 378 
L 2925 1331 
L 1172 1331 
L 781 378 
L 1338 378 
L 1338 0 
L -50 0 
z
M 1325 1709 
L 2772 1709 
L 2053 3494 
L 1325 1709 
z
" transform="scale(0.015625)"/>
     <path id="DejaVuSerif-Bold-6e" d="M 219 0 
L 219 378 
L 691 378 
L 691 2944 
L 219 2944 
L 219 3322 
L 1797 3322 
L 1797 2853 
Q 1997 3150 2253 3281 
Q 2509 3413 2900 3413 
Q 3459 3413 3745 3083 
Q 4031 2753 4031 2113 
L 4031 378 
L 4506 378 
L 4506 0 
L 2522 0 
L 2522 378 
L 2925 378 
L 2925 2144 
Q 2925 2566 2817 2730 
Q 2709 2894 2444 2894 
Q 2109 2894 1953 2648 
Q 1797 2403 1797 1869 
L 1797 378 
L 2203 378 
L 2203 0 
L 219 0 
z
" transform="scale(0.015625)"/>
     <path id="DejaVuSerif-Bold-6c" d="M 1797 378 
L 2272 378 
L 2272 0 
L 219 0 
L 219 378 
L 691 378 
L 691 4488 
L 219 4488 
L 219 4863 
L 1797 4863 
L 1797 378 
z
" transform="scale(0.015625)"/>
    </defs>
    <use xlink:href="#DejaVuSerif-Bold-44"/>
    <use xlink:href="#DejaVuSerif-Bold-69" transform="translate(86.71875 0)"/>
    <use xlink:href="#DejaVuSerif-Bold-76" transform="translate(124.707031 0)"/>
    <use xlink:href="#DejaVuSerif-Bold-65" transform="translate(182.8125 0)"/>
    <use xlink:href="#DejaVuSerif-Bold-72" transform="translate(246.435547 0)"/>
    <use xlink:href="#DejaVuSerif-Bold-73" transform="translate(299.121094 0)"/>
    <use xlink:href="#DejaVuSerif-Bold-69" transform="translate(355.419922 0)"/>
    <use xlink:href="#DejaVuSerif-Bold-74" transform="translate(393.408203 0)"/>
    <use xlink:href="#DejaVuSerif-Bold-79" transform="translate(439.599609 0)"/>
    <use xlink:href="#DejaVuSerif-Bold-20" transform="translate(497.705078 0)"/>
    <use xlink:href="#DejaVuSerif-Bold-26" transform="translate(532.519531 0)"/>
    <use xlink:href="#DejaVuSerif-Bold-20" transform="translate(622.802734 0)"/>
    <use xlink:href="#DejaVuSerif-Bold-43" transform="translate(657.617188 0)"/>
    <use xlink:href="#DejaVuSerif-Bold-6f" transform="translate(737.207031 0)"/>
    <use xlink:href="#DejaVuSerif-Bold-76" transform="translate(803.90625 0)"/>
    <use xlink:href="#DejaVuSerif-Bold-65" transform="translate(862.011719 0)"/>
    <use xlink:href="#DejaVuSerif-Bold-72" transform="translate(925.634766 0)"/>
    <use xlink:href="#DejaVuSerif-Bold-61" transform="translate(978.320312 0)"/>
    <use xlink:href="#DejaVuSerif-Bold-67" transform="translate(1043.115234 0)"/>
    <use xlink:href="#DejaVuSerif-Bold-65" transform="translate(1113.037109 0)"/>
    <use xlink:href="#DejaVuSerif-Bold-20" transform="translate(1176.660156 0)"/>
    <use xlink:href="#DejaVuSerif-Bold-41" transform="translate(1211.474609 0)"/>
    <use xlink:href="#DejaVuSerif-Bold-6e" transform="translate(1289.0625 0)"/>
    <use xlink:href="#DejaVuSerif-Bold-61" transform="translate(1361.767578 0)"/>
    <use xlink:href="#DejaVuSerif-Bold-6c" transform="translate(1426.5625 0)"/>
    <use xlink:href="#DejaVuSerif-Bold-79" transform="translate(1464.550781 0)"/>
    <use xlink:href="#DejaVuSerif-Bold-73" transform="translate(1522.65625 0)"/>
    <use xlink:href="#DejaVuSerif-Bold-69" transform="translate(1578.955078 0)"/>
    <use xlink:href="#DejaVuSerif-Bold-73" transform="translate(1616.943359 0)"/>
   </g>
  </g>
 </g>
 <defs>
  <clipPath id="p3b4a424c4e">
   <rect x="48.885" y="48.735" width="341.02" height="222.771096"/>
  </clipPath>
  <clipPath id="p81b1476594">
   <rect x="436.605" y="48.735" width="341.02" height="222.771096"/>
  </clipPath>
 </defs>
</svg>
