<?xml version="1.0" encoding="utf-8" standalone="no"?>
<!DOCTYPE svg PUBLIC "-//W3C//DTD SVG 1.1//EN"
  "http://www.w3.org/Graphics/SVG/1.1/DTD/svg11.dtd">
<svg xmlns:xlink="http://www.w3.org/1999/xlink" width="643.251875pt" height="317.355233pt" viewBox="0 0 643.251875 317.355233" xmlns="http://www.w3.org/2000/svg" version="1.1">
 <metadata>
  <rdf:RDF xmlns:dc="http://purl.org/dc/elements/1.1/" xmlns:cc="http://creativecommons.org/ns#" xmlns:rdf="http://www.w3.org/1999/02/22-rdf-syntax-ns#">
   <cc:Work>
    <dc:type rdf:resource="http://purl.org/dc/dcmitype/StillImage"/>
    <dc:date>2026-05-26T16:18:36.226021</dc:date>
    <dc:format>image/svg+xml</dc:format>
    <dc:creator>
     <cc:Agent>
      <dc:title>Matplotlib v3.10.9, https://matplotlib.org/</dc:title>
     </cc:Agent>
    </dc:creator>
   </cc:Work>
  </rdf:RDF>
 </metadata>
 <defs>
  <style type="text/css">*{stroke-linejoin: round; stroke-linecap: butt}</style>
 </defs>
 <g id="figure_1">
  <g id="patch_1">
   <path d="M 0 317.355233 
L 643.251875 317.355233 
L 643.251875 -0 
L 0 -0 
z
" style="fill: #ffffff"/>
  </g>
  <g id="axes_1">
   <g id="patch_2">
    <path d="M 43.15875 283.988311 
L 312.66625 283.988311 
L 312.66625 67.611689 
L 43.15875 67.611689 
z
" style="fill: #ffffff"/>
   </g>
   <g id="patch_3">
    <path d="M 55.409091 261.80831 
L 87.169234 261.80831 
L 87.169234 260.867403 
L 55.409091 260.867403 
z
" clip-path="url(#p0ef5abe053)" style="fill: #64b5f6; stroke: #ffffff; stroke-linejoin: miter"/>
   </g>
   <g id="patch_4">
    <path d="M 146.152357 261.80831 
L 177.9125 261.80831 
L 177.9125 260.867403 
L 146.152357 260.867403 
z
" clip-path="url(#p0ef5abe053)" style="fill: #64b5f6; stroke: #ffffff; stroke-linejoin: miter"/>
   </g>
   <g id="patch_5">
    <path d="M 236.895623 261.80831 
L 268.655766 261.80831 
L 268.655766 127.239789 
L 236.895623 127.239789 
z
" clip-path="url(#p0ef5abe053)" style="fill: #64b5f6; stroke: #ffffff; stroke-linejoin: miter"/>
   </g>
   <g id="patch_6">
    <path d="M 87.169234 261.80831 
L 118.929377 261.80831 
L 118.929377 261.243766 
L 87.169234 261.243766 
z
" clip-path="url(#p0ef5abe053)" style="fill: #4caf50; stroke: #ffffff; stroke-linejoin: miter"/>
   </g>
   <g id="patch_7">
    <path d="M 177.9125 261.80831 
L 209.672643 261.80831 
L 209.672643 261.243766 
L 177.9125 261.243766 
z
" clip-path="url(#p0ef5abe053)" style="fill: #4caf50; stroke: #ffffff; stroke-linejoin: miter"/>
   </g>
   <g id="patch_8">
    <path d="M 268.655766 261.80831 
L 300.415909 261.80831 
L 300.415909 119.768987 
L 268.655766 119.768987 
z
" clip-path="url(#p0ef5abe053)" style="fill: #4caf50; stroke: #ffffff; stroke-linejoin: miter"/>
   </g>
   <g id="matplotlib.axis_1">
    <g id="xtick_1">
     <g id="line2d_1">
      <path d="M 87.169234 283.988311 
L 87.169234 67.611689 
" clip-path="url(#p0ef5abe053)" style="fill: none; stroke-dasharray: 2.96,1.28; stroke-dashoffset: 0; stroke: #b0b0b0; stroke-opacity: 0.25; stroke-width: 0.8"/>
     </g>
     <g id="line2d_2">
      <defs>
       <path id="mb70fce14af" d="M 0 0 
L 0 3.5 
" style="stroke: #000000; stroke-width: 0.8"/>
      </defs>
      <g>
       <use xlink:href="#mb70fce14af" x="87.169234" y="283.988311" style="stroke: #000000; stroke-width: 0.8"/>
      </g>
     </g>
     <g id="text_1">
      <!-- NDCG@10 -->
      <g transform="translate(62.359468 297.826905) scale(0.09 -0.09)">
       <defs>
        <path id="DejaVuSerif-4e" d="M 313 0 
L 313 331 
L 941 331 
L 941 4331 
L 313 4331 
L 313 4666 
L 1509 4666 
L 4306 984 
L 4306 4331 
L 3681 4331 
L 3681 4666 
L 5319 4666 
L 5319 4331 
L 4691 4331 
L 4691 -91 
L 4313 -91 
L 1325 3841 
L 1325 331 
L 1953 331 
L 1953 0 
L 313 0 
z
" transform="scale(0.015625)"/>
        <path id="DejaVuSerif-44" d="M 1581 331 
L 2163 331 
Q 3072 331 3558 850 
Q 4044 1369 4044 2338 
Q 4044 3306 3559 3818 
Q 3075 4331 2163 4331 
L 1581 4331 
L 1581 331 
z
M 353 0 
L 353 331 
L 947 331 
L 947 4331 
L 353 4331 
L 353 4666 
L 2209 4666 
Q 3416 4666 4089 4050 
Q 4763 3434 4763 2338 
Q 4763 1238 4088 619 
Q 3413 0 2209 0 
L 353 0 
z
" transform="scale(0.015625)"/>
        <path id="DejaVuSerif-43" d="M 4513 1234 
Q 4306 581 3820 245 
Q 3334 -91 2591 -91 
Q 2134 -91 1743 65 
Q 1353 222 1050 525 
Q 700 875 529 1320 
Q 359 1766 359 2328 
Q 359 3416 987 4083 
Q 1616 4750 2644 4750 
Q 3025 4750 3456 4650 
Q 3888 4550 4384 4347 
L 4384 3272 
L 4031 3272 
Q 3916 3859 3567 4137 
Q 3219 4416 2591 4416 
Q 1844 4416 1459 3886 
Q 1075 3356 1075 2328 
Q 1075 1303 1459 773 
Q 1844 244 2591 244 
Q 3113 244 3450 492 
Q 3788 741 3938 1234 
L 4513 1234 
z
" transform="scale(0.015625)"/>
        <path id="DejaVuSerif-47" d="M 4097 3272 
Q 3988 3856 3641 4136 
Q 3294 4416 2675 4416 
Q 1869 4416 1472 3897 
Q 1075 3378 1075 2328 
Q 1075 1300 1484 772 
Q 1894 244 2688 244 
Q 3041 244 3362 331 
Q 3684 419 3975 594 
L 3975 1797 
L 3097 1797 
L 3097 2131 
L 4609 2131 
L 4609 391 
Q 4194 150 3714 29 
Q 3234 -91 2688 -91 
Q 1631 -91 995 570 
Q 359 1231 359 2328 
Q 359 3434 996 4092 
Q 1634 4750 2713 4750 
Q 3113 4750 3539 4658 
Q 3966 4566 4447 4378 
L 4447 3272 
L 4097 3272 
z
" transform="scale(0.015625)"/>
        <path id="DejaVuSerif-40" d="M 4044 775 
Q 3859 519 3629 394 
Q 3400 269 3109 269 
Q 2563 269 2222 659 
Q 1881 1050 1881 1678 
Q 1881 2306 2222 2695 
Q 2563 3084 3109 3084 
Q 3400 3084 3629 2959 
Q 3859 2834 4044 2578 
L 4044 3022 
L 4531 3022 
L 4531 609 
Q 5063 725 5356 1115 
Q 5650 1506 5650 2094 
Q 5650 2441 5544 2750 
Q 5438 3059 5228 3322 
Q 4897 3738 4420 3958 
Q 3944 4178 3384 4178 
Q 3103 4178 2828 4118 
Q 2553 4059 2284 3938 
Q 1653 3647 1303 3058 
Q 953 2469 953 1697 
Q 953 1175 1109 736 
Q 1266 297 1563 -25 
Q 1903 -397 2370 -592 
Q 2838 -788 3378 -788 
Q 3781 -788 4131 -669 
Q 4481 -550 4781 -313 
L 4947 -531 
Q 4609 -822 4181 -967 
Q 3753 -1113 3244 -1113 
Q 2672 -1113 2151 -905 
Q 1631 -697 1241 -313 
Q 838 84 630 595 
Q 422 1106 422 1697 
Q 422 2272 631 2781 
Q 841 3291 1241 3688 
Q 1638 4081 2177 4293 
Q 2716 4506 3322 4506 
Q 3991 4506 4542 4247 
Q 5094 3988 5466 3500 
Q 5703 3194 5825 2834 
Q 5947 2475 5947 2088 
Q 5947 1250 5437 764 
Q 4928 278 4047 269 
L 4044 775 
z
M 4044 1516 
L 4044 1844 
Q 4044 2234 3820 2476 
Q 3597 2719 3238 2719 
Q 2859 2719 2648 2445 
Q 2438 2172 2438 1678 
Q 2438 1181 2650 907 
Q 2863 634 3244 634 
Q 3600 634 3822 879 
Q 4044 1125 4044 1516 
z
" transform="scale(0.015625)"/>
        <path id="DejaVuSerif-31" d="M 909 0 
L 909 331 
L 1722 331 
L 1722 4213 
L 781 3603 
L 781 4013 
L 1919 4750 
L 2350 4750 
L 2350 331 
L 3163 331 
L 3163 0 
L 909 0 
z
" transform="scale(0.015625)"/>
        <path id="DejaVuSerif-30" d="M 2034 219 
Q 2513 219 2750 744 
Q 2988 1269 2988 2328 
Q 2988 3391 2750 3916 
Q 2513 4441 2034 4441 
Q 1556 4441 1318 3916 
Q 1081 3391 1081 2328 
Q 1081 1269 1318 744 
Q 1556 219 2034 219 
z
M 2034 -91 
Q 1275 -91 848 546 
Q 422 1184 422 2328 
Q 422 3475 848 4112 
Q 1275 4750 2034 4750 
Q 2797 4750 3222 4112 
Q 3647 3475 3647 2328 
Q 3647 1184 3222 546 
Q 2797 -91 2034 -91 
z
" transform="scale(0.015625)"/>
       </defs>
       <use xlink:href="#DejaVuSerif-4e"/>
       <use xlink:href="#DejaVuSerif-44" transform="translate(87.5 0)"/>
       <use xlink:href="#DejaVuSerif-43" transform="translate(167.675781 0)"/>
       <use xlink:href="#DejaVuSerif-47" transform="translate(244.189453 0)"/>
       <use xlink:href="#DejaVuSerif-40" transform="translate(324.072266 0)"/>
       <use xlink:href="#DejaVuSerif-31" transform="translate(424.072266 0)"/>
       <use xlink:href="#DejaVuSerif-30" transform="translate(487.695312 0)"/>
      </g>
     </g>
    </g>
    <g id="xtick_2">
     <g id="line2d_3">
      <path d="M 177.9125 283.988311 
L 177.9125 67.611689 
" clip-path="url(#p0ef5abe053)" style="fill: none; stroke-dasharray: 2.96,1.28; stroke-dashoffset: 0; stroke: #b0b0b0; stroke-opacity: 0.25; stroke-width: 0.8"/>
     </g>
     <g id="line2d_4">
      <g>
       <use xlink:href="#mb70fce14af" x="177.9125" y="283.988311" style="stroke: #000000; stroke-width: 0.8"/>
      </g>
     </g>
     <g id="text_2">
      <!-- HR@10 -->
      <g transform="translate(160.37375 297.826905) scale(0.09 -0.09)">
       <defs>
        <path id="DejaVuSerif-48" d="M 353 0 
L 353 331 
L 947 331 
L 947 4331 
L 353 4331 
L 353 4666 
L 2175 4666 
L 2175 4331 
L 1581 4331 
L 1581 2719 
L 4000 2719 
L 4000 4331 
L 3406 4331 
L 3406 4666 
L 5228 4666 
L 5228 4331 
L 4634 4331 
L 4634 331 
L 5228 331 
L 5228 0 
L 3406 0 
L 3406 331 
L 4000 331 
L 4000 2338 
L 1581 2338 
L 1581 331 
L 2175 331 
L 2175 0 
L 353 0 
z
" transform="scale(0.015625)"/>
        <path id="DejaVuSerif-52" d="M 3066 2316 
Q 3284 2256 3442 2114 
Q 3600 1972 3725 1716 
L 4403 331 
L 4972 331 
L 4972 0 
L 3872 0 
L 3144 1484 
Q 2934 1916 2759 2042 
Q 2584 2169 2278 2169 
L 1581 2169 
L 1581 331 
L 2241 331 
L 2241 0 
L 353 0 
L 353 331 
L 947 331 
L 947 4331 
L 353 4331 
L 353 4666 
L 2719 4666 
Q 3400 4666 3770 4341 
Q 4141 4016 4141 3419 
Q 4141 2938 3870 2661 
Q 3600 2384 3066 2316 
z
M 1581 2503 
L 2503 2503 
Q 2975 2503 3200 2726 
Q 3425 2950 3425 3419 
Q 3425 3888 3200 4109 
Q 2975 4331 2503 4331 
L 1581 4331 
L 1581 2503 
z
" transform="scale(0.015625)"/>
       </defs>
       <use xlink:href="#DejaVuSerif-48"/>
       <use xlink:href="#DejaVuSerif-52" transform="translate(87.207031 0)"/>
       <use xlink:href="#DejaVuSerif-40" transform="translate(162.5 0)"/>
       <use xlink:href="#DejaVuSerif-31" transform="translate(262.5 0)"/>
       <use xlink:href="#DejaVuSerif-30" transform="translate(326.123047 0)"/>
      </g>
     </g>
    </g>
    <g id="xtick_3">
     <g id="line2d_5">
      <path d="M 268.655766 283.988311 
L 268.655766 67.611689 
" clip-path="url(#p0ef5abe053)" style="fill: none; stroke-dasharray: 2.96,1.28; stroke-dashoffset: 0; stroke: #b0b0b0; stroke-opacity: 0.25; stroke-width: 0.8"/>
     </g>
     <g id="line2d_6">
      <g>
       <use xlink:href="#mb70fce14af" x="268.655766" y="283.988311" style="stroke: #000000; stroke-width: 0.8"/>
      </g>
     </g>
     <g id="text_3">
      <!-- Novelty@10 -->
      <g transform="translate(240.786703 297.826905) scale(0.09 -0.09)">
       <defs>
        <path id="DejaVuSerif-6f" d="M 1925 219 
Q 2388 219 2623 584 
Q 2859 950 2859 1663 
Q 2859 2375 2623 2739 
Q 2388 3103 1925 3103 
Q 1463 3103 1227 2739 
Q 991 2375 991 1663 
Q 991 950 1228 584 
Q 1466 219 1925 219 
z
M 1925 -91 
Q 1200 -91 759 389 
Q 319 869 319 1663 
Q 319 2456 758 2934 
Q 1197 3413 1925 3413 
Q 2653 3413 3092 2934 
Q 3531 2456 3531 1663 
Q 3531 869 3092 389 
Q 2653 -91 1925 -91 
z
" transform="scale(0.015625)"/>
        <path id="DejaVuSerif-76" d="M 1581 0 
L 359 2988 
L -19 2988 
L -19 3322 
L 1509 3322 
L 1509 2988 
L 978 2988 
L 1913 703 
L 2847 2988 
L 2350 2988 
L 2350 3322 
L 3597 3322 
L 3597 2988 
L 3225 2988 
L 2003 0 
L 1581 0 
z
" transform="scale(0.015625)"/>
        <path id="DejaVuSerif-65" d="M 3469 1600 
L 991 1600 
L 991 1575 
Q 991 903 1244 561 
Q 1497 219 1991 219 
Q 2369 219 2611 417 
Q 2853 616 2950 1006 
L 3413 1006 
Q 3275 459 2904 184 
Q 2534 -91 1931 -91 
Q 1203 -91 761 389 
Q 319 869 319 1663 
Q 319 2450 753 2931 
Q 1188 3413 1894 3413 
Q 2647 3413 3050 2948 
Q 3453 2484 3469 1600 
z
M 2791 1931 
Q 2772 2513 2545 2808 
Q 2319 3103 1894 3103 
Q 1497 3103 1269 2806 
Q 1041 2509 991 1931 
L 2791 1931 
z
" transform="scale(0.015625)"/>
        <path id="DejaVuSerif-6c" d="M 1313 331 
L 1856 331 
L 1856 0 
L 184 0 
L 184 331 
L 738 331 
L 738 4531 
L 184 4531 
L 184 4863 
L 1313 4863 
L 1313 331 
z
" transform="scale(0.015625)"/>
        <path id="DejaVuSerif-74" d="M 691 2988 
L 184 2988 
L 184 3322 
L 691 3322 
L 691 4353 
L 1269 4353 
L 1269 3322 
L 2350 3322 
L 2350 2988 
L 1269 2988 
L 1269 878 
Q 1269 456 1350 337 
Q 1431 219 1650 219 
Q 1875 219 1978 351 
Q 2081 484 2088 781 
L 2522 781 
Q 2497 328 2275 118 
Q 2053 -91 1600 -91 
Q 1103 -91 897 129 
Q 691 350 691 878 
L 691 2988 
z
" transform="scale(0.015625)"/>
        <path id="DejaVuSerif-79" d="M 1381 -609 
L 1600 -56 
L 359 2988 
L -19 2988 
L -19 3322 
L 1509 3322 
L 1509 2988 
L 978 2988 
L 1913 703 
L 2847 2988 
L 2350 2988 
L 2350 3322 
L 3597 3322 
L 3597 2988 
L 3225 2988 
L 1703 -750 
Q 1547 -1138 1356 -1280 
Q 1166 -1422 819 -1422 
Q 672 -1422 517 -1397 
Q 363 -1372 206 -1325 
L 206 -691 
L 500 -691 
Q 519 -903 608 -995 
Q 697 -1088 884 -1088 
Q 1056 -1088 1161 -992 
Q 1266 -897 1381 -609 
z
" transform="scale(0.015625)"/>
       </defs>
       <use xlink:href="#DejaVuSerif-4e"/>
       <use xlink:href="#DejaVuSerif-6f" transform="translate(87.5 0)"/>
       <use xlink:href="#DejaVuSerif-76" transform="translate(147.705078 0)"/>
       <use xlink:href="#DejaVuSerif-65" transform="translate(204.199219 0)"/>
       <use xlink:href="#DejaVuSerif-6c" transform="translate(263.378906 0)"/>
       <use xlink:href="#DejaVuSerif-74" transform="translate(295.361328 0)"/>
       <use xlink:href="#DejaVuSerif-79" transform="translate(335.546875 0)"/>
       <use xlink:href="#DejaVuSerif-40" transform="translate(392.041016 0)"/>
       <use xlink:href="#DejaVuSerif-31" transform="translate(492.041016 0)"/>
       <use xlink:href="#DejaVuSerif-30" transform="translate(555.664062 0)"/>
      </g>
     </g>
    </g>
   </g>
   <g id="matplotlib.axis_2">
    <g id="ytick_1">
     <g id="line2d_7">
      <path d="M 43.15875 261.80831 
L 312.66625 261.80831 
" clip-path="url(#p0ef5abe053)" style="fill: none; stroke-dasharray: 2.96,1.28; stroke-dashoffset: 0; stroke: #b0b0b0; stroke-opacity: 0.25; stroke-width: 0.8"/>
     </g>
     <g id="line2d_8">
      <defs>
       <path id="m613f3a1ca4" d="M 0 0 
L -3.5 0 
" style="stroke: #000000; stroke-width: 0.8"/>
      </defs>
      <g>
       <use xlink:href="#m613f3a1ca4" x="43.15875" y="261.80831" style="stroke: #000000; stroke-width: 0.8"/>
      </g>
     </g>
     <g id="text_4">
      <!-- 0.0 -->
      <g transform="translate(21.845938 265.227607) scale(0.09 -0.09)">
       <defs>
        <path id="DejaVuSerif-2e" d="M 603 325 
Q 603 500 722 622 
Q 841 744 1019 744 
Q 1191 744 1312 622 
Q 1434 500 1434 325 
Q 1434 153 1312 31 
Q 1191 -91 1019 -91 
Q 841 -91 722 29 
Q 603 150 603 325 
z
" transform="scale(0.015625)"/>
       </defs>
       <use xlink:href="#DejaVuSerif-30"/>
       <use xlink:href="#DejaVuSerif-2e" transform="translate(63.623047 0)"/>
       <use xlink:href="#DejaVuSerif-30" transform="translate(95.410156 0)"/>
      </g>
     </g>
    </g>
    <g id="ytick_2">
     <g id="line2d_9">
      <path d="M 43.15875 224.172029 
L 312.66625 224.172029 
" clip-path="url(#p0ef5abe053)" style="fill: none; stroke-dasharray: 2.96,1.28; stroke-dashoffset: 0; stroke: #b0b0b0; stroke-opacity: 0.25; stroke-width: 0.8"/>
     </g>
     <g id="line2d_10">
      <g>
       <use xlink:href="#m613f3a1ca4" x="43.15875" y="224.172029" style="stroke: #000000; stroke-width: 0.8"/>
      </g>
     </g>
     <g id="text_5">
      <!-- 0.2 -->
      <g transform="translate(21.845938 227.591326) scale(0.09 -0.09)">
       <defs>
        <path id="DejaVuSerif-32" d="M 819 3553 
L 469 3553 
L 469 4384 
Q 803 4563 1142 4656 
Q 1481 4750 1806 4750 
Q 2534 4750 2956 4397 
Q 3378 4044 3378 3438 
Q 3378 2753 2422 1800 
Q 2347 1728 2309 1691 
L 1131 513 
L 3078 513 
L 3078 1088 
L 3444 1088 
L 3444 0 
L 434 0 
L 434 341 
L 1850 1753 
Q 2319 2222 2519 2614 
Q 2719 3006 2719 3438 
Q 2719 3909 2473 4175 
Q 2228 4441 1797 4441 
Q 1350 4441 1106 4219 
Q 863 3997 819 3553 
z
" transform="scale(0.015625)"/>
       </defs>
       <use xlink:href="#DejaVuSerif-30"/>
       <use xlink:href="#DejaVuSerif-2e" transform="translate(63.623047 0)"/>
       <use xlink:href="#DejaVuSerif-32" transform="translate(95.410156 0)"/>
      </g>
     </g>
    </g>
    <g id="ytick_3">
     <g id="line2d_11">
      <path d="M 43.15875 186.535749 
L 312.66625 186.535749 
" clip-path="url(#p0ef5abe053)" style="fill: none; stroke-dasharray: 2.96,1.28; stroke-dashoffset: 0; stroke: #b0b0b0; stroke-opacity: 0.25; stroke-width: 0.8"/>
     </g>
     <g id="line2d_12">
      <g>
       <use xlink:href="#m613f3a1ca4" x="43.15875" y="186.535749" style="stroke: #000000; stroke-width: 0.8"/>
      </g>
     </g>
     <g id="text_6">
      <!-- 0.4 -->
      <g transform="translate(21.845938 189.955046) scale(0.09 -0.09)">
       <defs>
        <path id="DejaVuSerif-34" d="M 2234 1581 
L 2234 4063 
L 641 1581 
L 2234 1581 
z
M 3609 0 
L 1484 0 
L 1484 331 
L 2234 331 
L 2234 1247 
L 197 1247 
L 197 1588 
L 2241 4750 
L 2859 4750 
L 2859 1581 
L 3750 1581 
L 3750 1247 
L 2859 1247 
L 2859 331 
L 3609 331 
L 3609 0 
z
" transform="scale(0.015625)"/>
       </defs>
       <use xlink:href="#DejaVuSerif-30"/>
       <use xlink:href="#DejaVuSerif-2e" transform="translate(63.623047 0)"/>
       <use xlink:href="#DejaVuSerif-34" transform="translate(95.410156 0)"/>
      </g>
     </g>
    </g>
    <g id="ytick_4">
     <g id="line2d_13">
      <path d="M 43.15875 148.899469 
L 312.66625 148.899469 
" clip-path="url(#p0ef5abe053)" style="fill: none; stroke-dasharray: 2.96,1.28; stroke-dashoffset: 0; stroke: #b0b0b0; stroke-opacity: 0.25; stroke-width: 0.8"/>
     </g>
     <g id="line2d_14">
      <g>
       <use xlink:href="#m613f3a1ca4" x="43.15875" y="148.899469" style="stroke: #000000; stroke-width: 0.8"/>
      </g>
     </g>
     <g id="text_7">
      <!-- 0.6 -->
      <g transform="translate(21.845938 152.318765) scale(0.09 -0.09)">
       <defs>
        <path id="DejaVuSerif-36" d="M 2094 219 
Q 2534 219 2771 542 
Q 3009 866 3009 1472 
Q 3009 2078 2771 2401 
Q 2534 2725 2094 2725 
Q 1647 2725 1412 2412 
Q 1178 2100 1178 1509 
Q 1178 888 1415 553 
Q 1653 219 2094 219 
z
M 1075 2569 
Q 1288 2803 1556 2918 
Q 1825 3034 2163 3034 
Q 2859 3034 3264 2615 
Q 3669 2197 3669 1472 
Q 3669 763 3233 336 
Q 2797 -91 2069 -91 
Q 1278 -91 853 498 
Q 428 1088 428 2181 
Q 428 3406 931 4078 
Q 1434 4750 2350 4750 
Q 2597 4750 2869 4703 
Q 3141 4656 3425 4563 
L 3425 3794 
L 3072 3794 
Q 3034 4109 2831 4275 
Q 2628 4441 2284 4441 
Q 1678 4441 1381 3981 
Q 1084 3522 1075 2569 
z
" transform="scale(0.015625)"/>
       </defs>
       <use xlink:href="#DejaVuSerif-30"/>
       <use xlink:href="#DejaVuSerif-2e" transform="translate(63.623047 0)"/>
       <use xlink:href="#DejaVuSerif-36" transform="translate(95.410156 0)"/>
      </g>
     </g>
    </g>
    <g id="ytick_5">
     <g id="line2d_15">
      <path d="M 43.15875 111.263188 
L 312.66625 111.263188 
" clip-path="url(#p0ef5abe053)" style="fill: none; stroke-dasharray: 2.96,1.28; stroke-dashoffset: 0; stroke: #b0b0b0; stroke-opacity: 0.25; stroke-width: 0.8"/>
     </g>
     <g id="line2d_16">
      <g>
       <use xlink:href="#m613f3a1ca4" x="43.15875" y="111.263188" style="stroke: #000000; stroke-width: 0.8"/>
      </g>
     </g>
     <g id="text_8">
      <!-- 0.8 -->
      <g transform="translate(21.845938 114.682485) scale(0.09 -0.09)">
       <defs>
        <path id="DejaVuSerif-38" d="M 2981 1275 
Q 2981 1775 2732 2051 
Q 2484 2328 2034 2328 
Q 1584 2328 1336 2051 
Q 1088 1775 1088 1275 
Q 1088 772 1336 495 
Q 1584 219 2034 219 
Q 2484 219 2732 495 
Q 2981 772 2981 1275 
z
M 2853 3541 
Q 2853 3966 2637 4203 
Q 2422 4441 2034 4441 
Q 1650 4441 1433 4203 
Q 1216 3966 1216 3541 
Q 1216 3113 1433 2875 
Q 1650 2638 2034 2638 
Q 2422 2638 2637 2875 
Q 2853 3113 2853 3541 
z
M 2516 2484 
Q 3047 2413 3344 2092 
Q 3641 1772 3641 1275 
Q 3641 619 3225 264 
Q 2809 -91 2034 -91 
Q 1263 -91 845 264 
Q 428 619 428 1275 
Q 428 1772 725 2092 
Q 1022 2413 1556 2484 
Q 1084 2569 832 2842 
Q 581 3116 581 3541 
Q 581 4103 968 4426 
Q 1356 4750 2034 4750 
Q 2713 4750 3100 4426 
Q 3488 4103 3488 3541 
Q 3488 3116 3236 2842 
Q 2984 2569 2516 2484 
z
" transform="scale(0.015625)"/>
       </defs>
       <use xlink:href="#DejaVuSerif-30"/>
       <use xlink:href="#DejaVuSerif-2e" transform="translate(63.623047 0)"/>
       <use xlink:href="#DejaVuSerif-38" transform="translate(95.410156 0)"/>
      </g>
     </g>
    </g>
    <g id="ytick_6">
     <g id="line2d_17">
      <path d="M 43.15875 73.626908 
L 312.66625 73.626908 
" clip-path="url(#p0ef5abe053)" style="fill: none; stroke-dasharray: 2.96,1.28; stroke-dashoffset: 0; stroke: #b0b0b0; stroke-opacity: 0.25; stroke-width: 0.8"/>
     </g>
     <g id="line2d_18">
      <g>
       <use xlink:href="#m613f3a1ca4" x="43.15875" y="73.626908" style="stroke: #000000; stroke-width: 0.8"/>
      </g>
     </g>
     <g id="text_9">
      <!-- 1.0 -->
      <g transform="translate(21.845938 77.046204) scale(0.09 -0.09)">
       <use xlink:href="#DejaVuSerif-31"/>
       <use xlink:href="#DejaVuSerif-2e" transform="translate(63.623047 0)"/>
       <use xlink:href="#DejaVuSerif-30" transform="translate(95.410156 0)"/>
      </g>
     </g>
    </g>
    <g id="text_10">
     <!-- Score -->
     <g transform="translate(15.558281 191.842812) rotate(-90) scale(0.11 -0.11)">
      <defs>
       <path id="DejaVuSerif-53" d="M 594 225 
L 594 1288 
L 953 1284 
Q 969 753 1261 498 
Q 1553 244 2150 244 
Q 2706 244 2998 464 
Q 3291 684 3291 1106 
Q 3291 1444 3114 1625 
Q 2938 1806 2369 1978 
L 1753 2163 
Q 1084 2366 811 2669 
Q 538 2972 538 3500 
Q 538 4094 959 4422 
Q 1381 4750 2144 4750 
Q 2469 4750 2856 4679 
Q 3244 4609 3681 4475 
L 3681 3481 
L 3328 3481 
Q 3275 3975 2998 4195 
Q 2722 4416 2156 4416 
Q 1663 4416 1405 4214 
Q 1147 4013 1147 3628 
Q 1147 3294 1340 3103 
Q 1534 2913 2163 2725 
L 2741 2553 
Q 3375 2363 3645 2067 
Q 3916 1772 3916 1275 
Q 3916 597 3481 253 
Q 3047 -91 2188 -91 
Q 1803 -91 1404 -12 
Q 1006 66 594 225 
z
" transform="scale(0.015625)"/>
       <path id="DejaVuSerif-63" d="M 3291 997 
Q 3169 466 2822 187 
Q 2475 -91 1925 -91 
Q 1200 -91 759 389 
Q 319 869 319 1663 
Q 319 2459 759 2936 
Q 1200 3413 1925 3413 
Q 2241 3413 2553 3339 
Q 2866 3266 3181 3116 
L 3181 2266 
L 2847 2266 
Q 2781 2703 2561 2903 
Q 2341 3103 1931 3103 
Q 1466 3103 1228 2742 
Q 991 2381 991 1663 
Q 991 944 1227 581 
Q 1463 219 1931 219 
Q 2303 219 2525 412 
Q 2747 606 2828 997 
L 3291 997 
z
" transform="scale(0.015625)"/>
       <path id="DejaVuSerif-72" d="M 3059 3328 
L 3059 2497 
L 2728 2497 
Q 2713 2744 2591 2866 
Q 2469 2988 2234 2988 
Q 1809 2988 1582 2694 
Q 1356 2400 1356 1850 
L 1356 331 
L 2022 331 
L 2022 0 
L 263 0 
L 263 331 
L 781 331 
L 781 2994 
L 231 2994 
L 231 3322 
L 1356 3322 
L 1356 2731 
Q 1525 3078 1790 3245 
Q 2056 3413 2438 3413 
Q 2578 3413 2733 3391 
Q 2888 3369 3059 3328 
z
" transform="scale(0.015625)"/>
      </defs>
      <use xlink:href="#DejaVuSerif-53"/>
      <use xlink:href="#DejaVuSerif-63" transform="translate(68.505859 0)"/>
      <use xlink:href="#DejaVuSerif-6f" transform="translate(124.511719 0)"/>
      <use xlink:href="#DejaVuSerif-72" transform="translate(184.716797 0)"/>
      <use xlink:href="#DejaVuSerif-65" transform="translate(232.519531 0)"/>
     </g>
    </g>
   </g>
   <g id="LineCollection_1">
    <path d="M 71.289162 274.15301 
L 71.289162 247.581796 
" clip-path="url(#p0ef5abe053)" style="fill: none; stroke: #000000"/>
    <path d="M 162.032428 274.15301 
L 162.032428 247.581796 
" clip-path="url(#p0ef5abe053)" style="fill: none; stroke: #000000"/>
    <path d="M 252.775694 177.032588 
L 252.775694 77.44699 
" clip-path="url(#p0ef5abe053)" style="fill: none; stroke: #000000"/>
   </g>
   <g id="line2d_19">
    <defs>
     <path id="m48b1a53344" d="M 4 0 
L -4 -0 
" style="stroke: #000000"/>
    </defs>
    <g clip-path="url(#p0ef5abe053)">
     <use xlink:href="#m48b1a53344" x="71.289162" y="274.15301" style="fill: #1f77b4; stroke: #000000"/>
     <use xlink:href="#m48b1a53344" x="162.032428" y="274.15301" style="fill: #1f77b4; stroke: #000000"/>
     <use xlink:href="#m48b1a53344" x="252.775694" y="177.032588" style="fill: #1f77b4; stroke: #000000"/>
    </g>
   </g>
   <g id="line2d_20">
    <g clip-path="url(#p0ef5abe053)">
     <use xlink:href="#m48b1a53344" x="71.289162" y="247.581796" style="fill: #1f77b4; stroke: #000000"/>
     <use xlink:href="#m48b1a53344" x="162.032428" y="247.581796" style="fill: #1f77b4; stroke: #000000"/>
     <use xlink:href="#m48b1a53344" x="252.775694" y="77.44699" style="fill: #1f77b4; stroke: #000000"/>
    </g>
   </g>
   <g id="LineCollection_2">
    <path d="M 103.049306 271.537288 
L 103.049306 250.950243 
" clip-path="url(#p0ef5abe053)" style="fill: none; stroke: #000000"/>
    <path d="M 193.792572 271.537288 
L 193.792572 250.950243 
" clip-path="url(#p0ef5abe053)" style="fill: none; stroke: #000000"/>
    <path d="M 284.535838 151.439917 
L 284.535838 88.098057 
" clip-path="url(#p0ef5abe053)" style="fill: none; stroke: #000000"/>
   </g>
   <g id="line2d_21">
    <g clip-path="url(#p0ef5abe053)">
     <use xlink:href="#m48b1a53344" x="103.049306" y="271.537288" style="fill: #1f77b4; stroke: #000000"/>
     <use xlink:href="#m48b1a53344" x="193.792572" y="271.537288" style="fill: #1f77b4; stroke: #000000"/>
     <use xlink:href="#m48b1a53344" x="284.535838" y="151.439917" style="fill: #1f77b4; stroke: #000000"/>
    </g>
   </g>
   <g id="line2d_22">
    <g clip-path="url(#p0ef5abe053)">
     <use xlink:href="#m48b1a53344" x="103.049306" y="250.950243" style="fill: #1f77b4; stroke: #000000"/>
     <use xlink:href="#m48b1a53344" x="193.792572" y="250.950243" style="fill: #1f77b4; stroke: #000000"/>
     <use xlink:href="#m48b1a53344" x="284.535838" y="88.098057" style="fill: #1f77b4; stroke: #000000"/>
    </g>
   </g>
   <g id="patch_9">
    <path d="M 43.15875 283.988311 
L 43.15875 67.611689 
" style="fill: none; stroke: #000000; stroke-width: 0.8; stroke-linejoin: miter; stroke-linecap: square"/>
   </g>
   <g id="patch_10">
    <path d="M 312.66625 283.988311 
L 312.66625 67.611689 
" style="fill: none; stroke: #000000; stroke-width: 0.8; stroke-linejoin: miter; stroke-linecap: square"/>
   </g>
   <g id="patch_11">
    <path d="M 43.15875 283.988311 
L 312.66625 283.988311 
" style="fill: none; stroke: #000000; stroke-width: 0.8; stroke-linejoin: miter; stroke-linecap: square"/>
   </g>
   <g id="patch_12">
    <path d="M 43.15875 67.611689 
L 312.66625 67.611689 
" style="fill: none; stroke: #000000; stroke-width: 0.8; stroke-linejoin: miter; stroke-linecap: square"/>
   </g>
   <g id="text_11">
    <!-- n.s. -->
    <g style="fill: #888888" transform="translate(79.224234 243.818168) scale(0.08 -0.08)">
     <defs>
      <path id="DejaVuSerif-Bold-6e" d="M 219 0 
L 219 378 
L 691 378 
L 691 2944 
L 219 2944 
L 219 3322 
L 1797 3322 
L 1797 2853 
Q 1997 3150 2253 3281 
Q 2509 3413 2900 3413 
Q 3459 3413 3745 3083 
Q 4031 2753 4031 2113 
L 4031 378 
L 4506 378 
L 4506 0 
L 2522 0 
L 2522 378 
L 2925 378 
L 2925 2144 
Q 2925 2566 2817 2730 
Q 2709 2894 2444 2894 
Q 2109 2894 1953 2648 
Q 1797 2403 1797 1869 
L 1797 378 
L 2203 378 
L 2203 0 
L 219 0 
z
" transform="scale(0.015625)"/>
      <path id="DejaVuSerif-Bold-2e" d="M 519 506 
Q 519 750 694 925 
Q 869 1100 1113 1100 
Q 1359 1100 1534 925 
Q 1709 750 1709 506 
Q 1709 259 1534 84 
Q 1359 -91 1113 -91 
Q 869 -91 694 84 
Q 519 259 519 506 
z
" transform="scale(0.015625)"/>
      <path id="DejaVuSerif-Bold-73" d="M 300 97 
L 300 1025 
L 653 1025 
Q 697 653 931 458 
Q 1166 263 1569 263 
Q 1906 263 2086 380 
Q 2266 497 2266 716 
Q 2266 916 2152 1025 
Q 2038 1134 1709 1216 
L 1253 1331 
Q 738 1459 506 1698 
Q 275 1938 275 2344 
Q 275 2884 650 3148 
Q 1025 3413 1806 3413 
Q 2100 3413 2433 3364 
Q 2766 3316 3169 3213 
L 3169 2375 
L 2816 2375 
Q 2788 2716 2573 2887 
Q 2359 3059 1959 3059 
Q 1622 3059 1448 2951 
Q 1275 2844 1275 2638 
Q 1275 2469 1375 2372 
Q 1475 2275 1734 2209 
L 2188 2094 
Q 2841 1928 3091 1684 
Q 3341 1441 3341 1006 
Q 3341 444 2939 176 
Q 2538 -91 1691 -91 
Q 1381 -91 1034 -44 
Q 688 3 300 97 
z
" transform="scale(0.015625)"/>
     </defs>
     <use xlink:href="#DejaVuSerif-Bold-6e"/>
     <use xlink:href="#DejaVuSerif-Bold-2e" transform="translate(72.705078 0)"/>
     <use xlink:href="#DejaVuSerif-Bold-73" transform="translate(107.519531 0)"/>
     <use xlink:href="#DejaVuSerif-Bold-2e" transform="translate(163.818359 0)"/>
    </g>
   </g>
   <g id="text_12">
    <!-- n.s. -->
    <g style="fill: #888888" transform="translate(169.9675 243.818168) scale(0.08 -0.08)">
     <use xlink:href="#DejaVuSerif-Bold-6e"/>
     <use xlink:href="#DejaVuSerif-Bold-2e" transform="translate(72.705078 0)"/>
     <use xlink:href="#DejaVuSerif-Bold-73" transform="translate(107.519531 0)"/>
     <use xlink:href="#DejaVuSerif-Bold-2e" transform="translate(163.818359 0)"/>
    </g>
   </g>
   <g id="text_13">
    <!-- n.s. -->
    <g style="fill: #888888" transform="translate(260.710766 57.25431) scale(0.08 -0.08)">
     <use xlink:href="#DejaVuSerif-Bold-6e"/>
     <use xlink:href="#DejaVuSerif-Bold-2e" transform="translate(72.705078 0)"/>
     <use xlink:href="#DejaVuSerif-Bold-73" transform="translate(107.519531 0)"/>
     <use xlink:href="#DejaVuSerif-Bold-2e" transform="translate(163.818359 0)"/>
    </g>
    <!-- (Wilcoxon) -->
    <g style="fill: #888888" transform="translate(244.344516 66.21256) scale(0.08 -0.08)">
     <defs>
      <path id="DejaVuSerif-Bold-28" d="M 2694 -997 
Q 1641 -606 1122 122 
Q 603 850 603 1931 
Q 603 3013 1115 3731 
Q 1628 4450 2694 4863 
L 2694 4488 
Q 2200 4188 1983 3598 
Q 1766 3009 1766 1931 
Q 1766 856 1983 267 
Q 2200 -322 2694 -622 
L 2694 -997 
z
" transform="scale(0.015625)"/>
      <path id="DejaVuSerif-Bold-57" d="M 5453 0 
L 4647 0 
L 3591 3397 
L 2534 0 
L 1728 0 
L 397 4288 
L -56 4288 
L -56 4666 
L 2156 4666 
L 2156 4288 
L 1656 4288 
L 2547 1422 
L 3553 4666 
L 4441 4666 
L 5466 1369 
L 6375 4288 
L 5819 4288 
L 5819 4666 
L 7263 4666 
L 7263 4288 
L 6784 4288 
L 5453 0 
z
" transform="scale(0.015625)"/>
      <path id="DejaVuSerif-Bold-69" d="M 588 4263 
Q 588 4516 763 4689 
Q 938 4863 1191 4863 
Q 1438 4863 1611 4689 
Q 1784 4516 1784 4263 
Q 1784 4016 1611 3842 
Q 1438 3669 1191 3669 
Q 938 3669 763 3841 
Q 588 4013 588 4263 
z
M 1797 378 
L 2272 378 
L 2272 0 
L 219 0 
L 219 378 
L 691 378 
L 691 2944 
L 219 2944 
L 219 3322 
L 1797 3322 
L 1797 378 
z
" transform="scale(0.015625)"/>
      <path id="DejaVuSerif-Bold-6c" d="M 1797 378 
L 2272 378 
L 2272 0 
L 219 0 
L 219 378 
L 691 378 
L 691 4488 
L 219 4488 
L 219 4863 
L 1797 4863 
L 1797 378 
z
" transform="scale(0.015625)"/>
      <path id="DejaVuSerif-Bold-63" d="M 3609 1038 
Q 3491 469 3123 189 
Q 2756 -91 2125 -91 
Q 1238 -91 750 368 
Q 263 828 263 1663 
Q 263 2488 744 2950 
Q 1225 3413 2081 3413 
Q 2428 3413 2781 3347 
Q 3134 3281 3500 3150 
L 3500 2228 
L 3150 2228 
Q 3100 2650 2903 2854 
Q 2706 3059 2350 3059 
Q 1888 3059 1692 2746 
Q 1497 2434 1497 1663 
Q 1497 909 1687 586 
Q 1878 263 2309 263 
Q 2644 263 2845 463 
Q 3047 663 3091 1038 
L 3609 1038 
z
" transform="scale(0.015625)"/>
      <path id="DejaVuSerif-Bold-6f" d="M 2138 263 
Q 2488 263 2630 563 
Q 2772 863 2772 1663 
Q 2772 2463 2631 2761 
Q 2491 3059 2138 3059 
Q 1784 3059 1640 2757 
Q 1497 2456 1497 1663 
Q 1497 869 1640 566 
Q 1784 263 2138 263 
z
M 2138 -91 
Q 1259 -91 761 376 
Q 263 844 263 1663 
Q 263 2484 761 2948 
Q 1259 3413 2138 3413 
Q 3019 3413 3516 2948 
Q 4013 2484 4013 1663 
Q 4013 844 3514 376 
Q 3016 -91 2138 -91 
z
" transform="scale(0.015625)"/>
      <path id="DejaVuSerif-Bold-78" d="M 2247 2119 
L 2834 2944 
L 2425 2944 
L 2425 3322 
L 3719 3322 
L 3719 2944 
L 3278 2944 
L 2431 1759 
L 3419 378 
L 3859 378 
L 3859 0 
L 1747 0 
L 1747 378 
L 2175 378 
L 1550 1253 
L 922 378 
L 1369 378 
L 1369 0 
L 0 0 
L 0 378 
L 475 378 
L 1356 1619 
L 403 2944 
L 31 2944 
L 31 3322 
L 2059 3322 
L 2059 2944 
L 1656 2944 
L 2247 2119 
z
" transform="scale(0.015625)"/>
      <path id="DejaVuSerif-Bold-29" d="M 325 -997 
L 325 -622 
Q 819 -322 1036 267 
Q 1253 856 1253 1931 
Q 1253 3009 1036 3598 
Q 819 4188 325 4488 
L 325 4863 
Q 1391 4450 1905 3731 
Q 2419 3013 2419 1931 
Q 2419 850 1898 122 
Q 1378 -606 325 -997 
z
" transform="scale(0.015625)"/>
     </defs>
     <use xlink:href="#DejaVuSerif-Bold-28"/>
     <use xlink:href="#DejaVuSerif-Bold-57" transform="translate(47.314453 0)"/>
     <use xlink:href="#DejaVuSerif-Bold-69" transform="translate(157.869141 0)"/>
     <use xlink:href="#DejaVuSerif-Bold-6c" transform="translate(195.857422 0)"/>
     <use xlink:href="#DejaVuSerif-Bold-63" transform="translate(233.845703 0)"/>
     <use xlink:href="#DejaVuSerif-Bold-6f" transform="translate(294.734375 0)"/>
     <use xlink:href="#DejaVuSerif-Bold-78" transform="translate(361.433594 0)"/>
     <use xlink:href="#DejaVuSerif-Bold-6f" transform="translate(421.052734 0)"/>
     <use xlink:href="#DejaVuSerif-Bold-6e" transform="translate(487.751953 0)"/>
     <use xlink:href="#DejaVuSerif-Bold-29" transform="translate(560.457031 0)"/>
    </g>
   </g>
   <g id="text_14">
    <!-- 0.0050 -->
    <g style="fill: #ffffff" transform="translate(73.220725 273.584575) rotate(-90) scale(0.07 -0.07)">
     <defs>
      <path id="DejaVuSerif-35" d="M 3219 4666 
L 3219 4153 
L 1081 4153 
L 1081 2816 
Q 1244 2928 1461 2984 
Q 1678 3041 1947 3041 
Q 2703 3041 3140 2622 
Q 3578 2203 3578 1478 
Q 3578 738 3136 323 
Q 2694 -91 1894 -91 
Q 1572 -91 1234 -12 
Q 897 66 544 225 
L 544 1131 
L 897 1131 
Q 925 688 1179 453 
Q 1434 219 1894 219 
Q 2388 219 2653 544 
Q 2919 869 2919 1478 
Q 2919 2084 2655 2407 
Q 2391 2731 1894 2731 
Q 1613 2731 1398 2631 
Q 1184 2531 1019 2322 
L 750 2322 
L 750 4666 
L 3219 4666 
z
" transform="scale(0.015625)"/>
     </defs>
     <use xlink:href="#DejaVuSerif-30"/>
     <use xlink:href="#DejaVuSerif-2e" transform="translate(63.623047 0)"/>
     <use xlink:href="#DejaVuSerif-30" transform="translate(95.410156 0)"/>
     <use xlink:href="#DejaVuSerif-30" transform="translate(159.033203 0)"/>
     <use xlink:href="#DejaVuSerif-35" transform="translate(222.65625 0)"/>
     <use xlink:href="#DejaVuSerif-30" transform="translate(286.279297 0)"/>
    </g>
   </g>
   <g id="text_15">
    <!-- 0.0050 -->
    <g style="fill: #ffffff" transform="translate(163.963991 273.584575) rotate(-90) scale(0.07 -0.07)">
     <use xlink:href="#DejaVuSerif-30"/>
     <use xlink:href="#DejaVuSerif-2e" transform="translate(63.623047 0)"/>
     <use xlink:href="#DejaVuSerif-30" transform="translate(95.410156 0)"/>
     <use xlink:href="#DejaVuSerif-30" transform="translate(159.033203 0)"/>
     <use xlink:href="#DejaVuSerif-35" transform="translate(222.65625 0)"/>
     <use xlink:href="#DejaVuSerif-30" transform="translate(286.279297 0)"/>
    </g>
   </g>
   <g id="text_16">
    <!-- 0.7151 -->
    <g style="fill: #ffffff" transform="translate(254.707257 206.770768) rotate(-90) scale(0.07 -0.07)">
     <defs>
      <path id="DejaVuSerif-37" d="M 3609 4347 
L 1784 0 
L 1319 0 
L 3059 4153 
L 903 4153 
L 903 3578 
L 538 3578 
L 538 4666 
L 3609 4666 
L 3609 4347 
z
" transform="scale(0.015625)"/>
     </defs>
     <use xlink:href="#DejaVuSerif-30"/>
     <use xlink:href="#DejaVuSerif-2e" transform="translate(63.623047 0)"/>
     <use xlink:href="#DejaVuSerif-37" transform="translate(95.410156 0)"/>
     <use xlink:href="#DejaVuSerif-31" transform="translate(159.033203 0)"/>
     <use xlink:href="#DejaVuSerif-35" transform="translate(222.65625 0)"/>
     <use xlink:href="#DejaVuSerif-31" transform="translate(286.279297 0)"/>
    </g>
   </g>
   <g id="text_17">
    <!-- 0.0030 -->
    <g style="fill: #ffffff" transform="translate(104.980868 273.772757) rotate(-90) scale(0.07 -0.07)">
     <defs>
      <path id="DejaVuSerif-33" d="M 622 4469 
Q 988 4606 1323 4678 
Q 1659 4750 1953 4750 
Q 2638 4750 3022 4454 
Q 3406 4159 3406 3634 
Q 3406 3213 3140 2930 
Q 2875 2647 2388 2547 
Q 2963 2466 3280 2130 
Q 3597 1794 3597 1259 
Q 3597 606 3158 257 
Q 2719 -91 1894 -91 
Q 1528 -91 1179 -12 
Q 831 66 488 225 
L 488 1131 
L 838 1131 
Q 869 681 1141 450 
Q 1413 219 1906 219 
Q 2384 219 2661 495 
Q 2938 772 2938 1253 
Q 2938 1803 2653 2086 
Q 2369 2369 1819 2369 
L 1522 2369 
L 1522 2688 
L 1678 2688 
Q 2225 2688 2498 2914 
Q 2772 3141 2772 3597 
Q 2772 4006 2547 4223 
Q 2322 4441 1900 4441 
Q 1478 4441 1245 4241 
Q 1013 4041 972 3647 
L 622 3647 
L 622 4469 
z
" transform="scale(0.015625)"/>
     </defs>
     <use xlink:href="#DejaVuSerif-30"/>
     <use xlink:href="#DejaVuSerif-2e" transform="translate(63.623047 0)"/>
     <use xlink:href="#DejaVuSerif-30" transform="translate(95.410156 0)"/>
     <use xlink:href="#DejaVuSerif-30" transform="translate(159.033203 0)"/>
     <use xlink:href="#DejaVuSerif-33" transform="translate(222.65625 0)"/>
     <use xlink:href="#DejaVuSerif-30" transform="translate(286.279297 0)"/>
    </g>
   </g>
   <g id="text_18">
    <!-- 0.0030 -->
    <g style="fill: #ffffff" transform="translate(195.724134 273.772757) rotate(-90) scale(0.07 -0.07)">
     <use xlink:href="#DejaVuSerif-30"/>
     <use xlink:href="#DejaVuSerif-2e" transform="translate(63.623047 0)"/>
     <use xlink:href="#DejaVuSerif-30" transform="translate(95.410156 0)"/>
     <use xlink:href="#DejaVuSerif-30" transform="translate(159.033203 0)"/>
     <use xlink:href="#DejaVuSerif-33" transform="translate(222.65625 0)"/>
     <use xlink:href="#DejaVuSerif-30" transform="translate(286.279297 0)"/>
    </g>
   </g>
   <g id="text_19">
    <!-- 0.7548 -->
    <g style="fill: #ffffff" transform="translate(286.4674 203.035367) rotate(-90) scale(0.07 -0.07)">
     <use xlink:href="#DejaVuSerif-30"/>
     <use xlink:href="#DejaVuSerif-2e" transform="translate(63.623047 0)"/>
     <use xlink:href="#DejaVuSerif-37" transform="translate(95.410156 0)"/>
     <use xlink:href="#DejaVuSerif-35" transform="translate(159.033203 0)"/>
     <use xlink:href="#DejaVuSerif-34" transform="translate(222.65625 0)"/>
     <use xlink:href="#DejaVuSerif-38" transform="translate(286.279297 0)"/>
    </g>
   </g>
   <g id="text_20">
    <!-- (a) Mean ± Per-Sample SD -->
    <g transform="translate(96.03875 61.611689) scale(0.12 -0.12)">
     <defs>
      <path id="DejaVuSerif-28" d="M 2041 -997 
Q 1281 -656 893 83 
Q 506 822 506 1931 
Q 506 3044 893 3783 
Q 1281 4522 2041 4863 
L 2041 4556 
Q 1559 4225 1350 3623 
Q 1141 3022 1141 1931 
Q 1141 844 1350 242 
Q 1559 -359 2041 -691 
L 2041 -997 
z
" transform="scale(0.015625)"/>
      <path id="DejaVuSerif-61" d="M 2547 1044 
L 2547 1747 
L 1806 1747 
Q 1378 1747 1168 1562 
Q 959 1378 959 997 
Q 959 650 1171 447 
Q 1384 244 1747 244 
Q 2106 244 2326 466 
Q 2547 688 2547 1044 
z
M 3122 2075 
L 3122 331 
L 3634 331 
L 3634 0 
L 2547 0 
L 2547 359 
Q 2356 128 2106 18 
Q 1856 -91 1522 -91 
Q 969 -91 644 203 
Q 319 497 319 997 
Q 319 1513 691 1797 
Q 1063 2081 1741 2081 
L 2547 2081 
L 2547 2309 
Q 2547 2688 2317 2895 
Q 2088 3103 1672 3103 
Q 1328 3103 1125 2947 
Q 922 2791 872 2484 
L 575 2484 
L 575 3156 
Q 875 3284 1158 3348 
Q 1441 3413 1709 3413 
Q 2400 3413 2761 3070 
Q 3122 2728 3122 2075 
z
" transform="scale(0.015625)"/>
      <path id="DejaVuSerif-29" d="M 453 -997 
L 453 -691 
Q 934 -359 1145 242 
Q 1356 844 1356 1931 
Q 1356 3022 1145 3623 
Q 934 4225 453 4556 
L 453 4863 
Q 1216 4522 1603 3783 
Q 1991 3044 1991 1931 
Q 1991 822 1603 83 
Q 1216 -656 453 -997 
z
" transform="scale(0.015625)"/>
      <path id="DejaVuSerif-20" transform="scale(0.015625)"/>
      <path id="DejaVuSerif-4d" d="M 353 0 
L 353 331 
L 947 331 
L 947 4331 
L 319 4331 
L 319 4666 
L 1678 4666 
L 3316 1344 
L 4953 4666 
L 6228 4666 
L 6228 4331 
L 5606 4331 
L 5606 331 
L 6203 331 
L 6203 0 
L 4378 0 
L 4378 331 
L 4972 331 
L 4972 3938 
L 3372 684 
L 2931 684 
L 1331 3938 
L 1331 331 
L 1925 331 
L 1925 0 
L 353 0 
z
" transform="scale(0.015625)"/>
      <path id="DejaVuSerif-6e" d="M 263 0 
L 263 331 
L 781 331 
L 781 2988 
L 231 2988 
L 231 3322 
L 1356 3322 
L 1356 2731 
Q 1516 3069 1770 3241 
Q 2025 3413 2363 3413 
Q 2913 3413 3172 3097 
Q 3431 2781 3431 2113 
L 3431 331 
L 3944 331 
L 3944 0 
L 2356 0 
L 2356 331 
L 2853 331 
L 2853 1931 
Q 2853 2541 2703 2767 
Q 2553 2994 2175 2994 
Q 1775 2994 1565 2701 
Q 1356 2409 1356 1850 
L 1356 331 
L 1856 331 
L 1856 0 
L 263 0 
z
" transform="scale(0.015625)"/>
      <path id="DejaVuSerif-b1" d="M 2931 4013 
L 2931 2791 
L 4684 2791 
L 4684 2284 
L 2931 2284 
L 2931 1063 
L 2431 1063 
L 2431 2284 
L 678 2284 
L 678 2791 
L 2431 2791 
L 2431 4013 
L 2931 4013 
z
M 678 500 
L 4684 500 
L 4684 0 
L 678 0 
L 678 500 
z
" transform="scale(0.015625)"/>
      <path id="DejaVuSerif-50" d="M 1581 2375 
L 2406 2375 
Q 2872 2375 3115 2626 
Q 3359 2878 3359 3353 
Q 3359 3831 3115 4081 
Q 2872 4331 2406 4331 
L 1581 4331 
L 1581 2375 
z
M 353 0 
L 353 331 
L 947 331 
L 947 4331 
L 353 4331 
L 353 4666 
L 2559 4666 
Q 3259 4666 3668 4311 
Q 4078 3956 4078 3353 
Q 4078 2753 3668 2397 
Q 3259 2041 2559 2041 
L 1581 2041 
L 1581 331 
L 2303 331 
L 2303 0 
L 353 0 
z
" transform="scale(0.015625)"/>
      <path id="DejaVuSerif-2d" d="M 281 1959 
L 1881 1959 
L 1881 1472 
L 281 1472 
L 281 1959 
z
" transform="scale(0.015625)"/>
      <path id="DejaVuSerif-6d" d="M 3316 2675 
Q 3481 3041 3739 3227 
Q 3997 3413 4341 3413 
Q 4863 3413 5119 3089 
Q 5375 2766 5375 2113 
L 5375 331 
L 5894 331 
L 5894 0 
L 4300 0 
L 4300 331 
L 4800 331 
L 4800 2047 
Q 4800 2556 4650 2772 
Q 4500 2988 4153 2988 
Q 3769 2988 3567 2697 
Q 3366 2406 3366 1850 
L 3366 331 
L 3866 331 
L 3866 0 
L 2291 0 
L 2291 331 
L 2791 331 
L 2791 2069 
Q 2791 2566 2641 2777 
Q 2491 2988 2144 2988 
Q 1759 2988 1557 2697 
Q 1356 2406 1356 1850 
L 1356 331 
L 1856 331 
L 1856 0 
L 263 0 
L 263 331 
L 781 331 
L 781 2994 
L 231 2994 
L 231 3322 
L 1356 3322 
L 1356 2731 
Q 1516 3063 1762 3238 
Q 2009 3413 2322 3413 
Q 2709 3413 2968 3220 
Q 3228 3028 3316 2675 
z
" transform="scale(0.015625)"/>
      <path id="DejaVuSerif-70" d="M 1313 1825 
L 1313 1497 
Q 1313 897 1542 583 
Q 1772 269 2209 269 
Q 2650 269 2876 622 
Q 3103 975 3103 1663 
Q 3103 2353 2876 2703 
Q 2650 3053 2209 3053 
Q 1772 3053 1542 2737 
Q 1313 2422 1313 1825 
z
M 738 2988 
L 184 2988 
L 184 3322 
L 1313 3322 
L 1313 2803 
Q 1481 3116 1742 3264 
Q 2003 3413 2388 3413 
Q 3000 3413 3387 2928 
Q 3775 2444 3775 1663 
Q 3775 881 3387 395 
Q 3000 -91 2388 -91 
Q 2003 -91 1742 57 
Q 1481 206 1313 519 
L 1313 -997 
L 1856 -997 
L 1856 -1331 
L 184 -1331 
L 184 -997 
L 738 -997 
L 738 2988 
z
" transform="scale(0.015625)"/>
     </defs>
     <use xlink:href="#DejaVuSerif-28"/>
     <use xlink:href="#DejaVuSerif-61" transform="translate(39.013672 0)"/>
     <use xlink:href="#DejaVuSerif-29" transform="translate(98.632812 0)"/>
     <use xlink:href="#DejaVuSerif-20" transform="translate(137.646484 0)"/>
     <use xlink:href="#DejaVuSerif-4d" transform="translate(169.433594 0)"/>
     <use xlink:href="#DejaVuSerif-65" transform="translate(271.826172 0)"/>
     <use xlink:href="#DejaVuSerif-61" transform="translate(331.005859 0)"/>
     <use xlink:href="#DejaVuSerif-6e" transform="translate(390.625 0)"/>
     <use xlink:href="#DejaVuSerif-20" transform="translate(455.029297 0)"/>
     <use xlink:href="#DejaVuSerif-b1" transform="translate(486.816406 0)"/>
     <use xlink:href="#DejaVuSerif-20" transform="translate(570.605469 0)"/>
     <use xlink:href="#DejaVuSerif-50" transform="translate(602.392578 0)"/>
     <use xlink:href="#DejaVuSerif-65" transform="translate(665.177734 0)"/>
     <use xlink:href="#DejaVuSerif-72" transform="translate(724.357422 0)"/>
     <use xlink:href="#DejaVuSerif-2d" transform="translate(772.160156 0)"/>
     <use xlink:href="#DejaVuSerif-53" transform="translate(805.949219 0)"/>
     <use xlink:href="#DejaVuSerif-61" transform="translate(874.455078 0)"/>
     <use xlink:href="#DejaVuSerif-6d" transform="translate(934.074219 0)"/>
     <use xlink:href="#DejaVuSerif-70" transform="translate(1028.898438 0)"/>
     <use xlink:href="#DejaVuSerif-6c" transform="translate(1092.912109 0)"/>
     <use xlink:href="#DejaVuSerif-65" transform="translate(1124.894531 0)"/>
     <use xlink:href="#DejaVuSerif-20" transform="translate(1184.074219 0)"/>
     <use xlink:href="#DejaVuSerif-53" transform="translate(1215.861328 0)"/>
     <use xlink:href="#DejaVuSerif-44" transform="translate(1284.367188 0)"/>
    </g>
   </g>
   <g id="legend_1">
    <g id="patch_13">
     <path d="M 48.05875 93.761064 
L 137.950781 93.761064 
Q 139.350781 93.761064 139.350781 92.361064 
L 139.350781 72.511689 
Q 139.350781 71.111689 137.950781 71.111689 
L 48.05875 71.111689 
Q 46.65875 71.111689 46.65875 72.511689 
L 46.65875 92.361064 
Q 46.65875 93.761064 48.05875 93.761064 
z
" style="fill: #ffffff; opacity: 0.8; stroke: #cccccc; stroke-linejoin: miter"/>
    </g>
    <g id="patch_14">
     <path d="M 49.45875 79.230595 
L 63.45875 79.230595 
L 63.45875 74.330595 
L 49.45875 74.330595 
z
" style="fill: #64b5f6; stroke: #ffffff; stroke-linejoin: miter"/>
    </g>
    <g id="text_21">
     <!-- LLM-Base (10K) -->
     <g transform="translate(69.05875 79.230595) scale(0.07 -0.07)">
      <defs>
       <path id="DejaVuSerif-4c" d="M 353 0 
L 353 331 
L 947 331 
L 947 4331 
L 353 4331 
L 353 4666 
L 2175 4666 
L 2175 4331 
L 1581 4331 
L 1581 384 
L 3713 384 
L 3713 1166 
L 4097 1166 
L 4097 0 
L 353 0 
z
" transform="scale(0.015625)"/>
       <path id="DejaVuSerif-42" d="M 1581 331 
L 2516 331 
Q 3078 331 3337 575 
Q 3597 819 3597 1350 
Q 3597 1878 3339 2120 
Q 3081 2363 2516 2363 
L 1581 2363 
L 1581 331 
z
M 1581 2694 
L 2375 2694 
Q 2888 2694 3123 2891 
Q 3359 3088 3359 3513 
Q 3359 3941 3123 4136 
Q 2888 4331 2375 4331 
L 1581 4331 
L 1581 2694 
z
M 353 0 
L 353 331 
L 947 331 
L 947 4331 
L 353 4331 
L 353 4666 
L 2656 4666 
Q 3363 4666 3720 4377 
Q 4078 4088 4078 3513 
Q 4078 3097 3829 2850 
Q 3581 2603 3103 2547 
Q 3697 2472 4005 2167 
Q 4313 1863 4313 1350 
Q 4313 656 3875 328 
Q 3438 0 2509 0 
L 353 0 
z
" transform="scale(0.015625)"/>
       <path id="DejaVuSerif-73" d="M 359 184 
L 359 959 
L 691 959 
Q 703 588 923 403 
Q 1144 219 1575 219 
Q 1963 219 2166 364 
Q 2369 509 2369 788 
Q 2369 1006 2220 1140 
Q 2072 1275 1594 1428 
L 1178 1569 
Q 750 1706 558 1912 
Q 366 2119 366 2438 
Q 366 2894 700 3153 
Q 1034 3413 1625 3413 
Q 1888 3413 2178 3344 
Q 2469 3275 2778 3144 
L 2778 2419 
L 2447 2419 
Q 2434 2741 2221 2922 
Q 2009 3103 1644 3103 
Q 1281 3103 1095 2975 
Q 909 2847 909 2591 
Q 909 2381 1050 2254 
Q 1191 2128 1613 1997 
L 2069 1856 
Q 2541 1709 2748 1489 
Q 2956 1269 2956 922 
Q 2956 450 2595 179 
Q 2234 -91 1600 -91 
Q 1278 -91 972 -22 
Q 666 47 359 184 
z
" transform="scale(0.015625)"/>
       <path id="DejaVuSerif-4b" d="M 353 0 
L 353 331 
L 947 331 
L 947 4331 
L 353 4331 
L 353 4666 
L 2175 4666 
L 2175 4331 
L 1581 4331 
L 1581 2566 
L 3591 4331 
L 3084 4331 
L 3084 4666 
L 4634 4666 
L 4634 4331 
L 4109 4331 
L 2106 2572 
L 4347 331 
L 4878 331 
L 4878 0 
L 3794 0 
L 1581 2216 
L 1581 331 
L 2175 331 
L 2175 0 
L 353 0 
z
" transform="scale(0.015625)"/>
      </defs>
      <use xlink:href="#DejaVuSerif-4c"/>
      <use xlink:href="#DejaVuSerif-4c" transform="translate(66.40625 0)"/>
      <use xlink:href="#DejaVuSerif-4d" transform="translate(132.8125 0)"/>
      <use xlink:href="#DejaVuSerif-2d" transform="translate(235.205078 0)"/>
      <use xlink:href="#DejaVuSerif-42" transform="translate(268.994141 0)"/>
      <use xlink:href="#DejaVuSerif-61" transform="translate(342.480469 0)"/>
      <use xlink:href="#DejaVuSerif-73" transform="translate(402.099609 0)"/>
      <use xlink:href="#DejaVuSerif-65" transform="translate(453.417969 0)"/>
      <use xlink:href="#DejaVuSerif-20" transform="translate(512.597656 0)"/>
      <use xlink:href="#DejaVuSerif-28" transform="translate(544.384766 0)"/>
      <use xlink:href="#DejaVuSerif-31" transform="translate(583.398438 0)"/>
      <use xlink:href="#DejaVuSerif-30" transform="translate(647.021484 0)"/>
      <use xlink:href="#DejaVuSerif-4b" transform="translate(710.644531 0)"/>
      <use xlink:href="#DejaVuSerif-29" transform="translate(785.351562 0)"/>
     </g>
    </g>
    <g id="patch_15">
     <path d="M 49.45875 89.505283 
L 63.45875 89.505283 
L 63.45875 84.605283 
L 49.45875 84.605283 
z
" style="fill: #4caf50; stroke: #ffffff; stroke-linejoin: miter"/>
    </g>
    <g id="text_22">
     <!-- LLM+RecCL (10K) -->
     <g transform="translate(69.05875 89.505283) scale(0.07 -0.07)">
      <defs>
       <path id="DejaVuSerif-2b" d="M 2931 4013 
L 2931 2259 
L 4684 2259 
L 4684 1753 
L 2931 1753 
L 2931 0 
L 2431 0 
L 2431 1753 
L 678 1753 
L 678 2259 
L 2431 2259 
L 2431 4013 
L 2931 4013 
z
" transform="scale(0.015625)"/>
      </defs>
      <use xlink:href="#DejaVuSerif-4c"/>
      <use xlink:href="#DejaVuSerif-4c" transform="translate(66.40625 0)"/>
      <use xlink:href="#DejaVuSerif-4d" transform="translate(132.8125 0)"/>
      <use xlink:href="#DejaVuSerif-2b" transform="translate(235.205078 0)"/>
      <use xlink:href="#DejaVuSerif-52" transform="translate(318.994141 0)"/>
      <use xlink:href="#DejaVuSerif-65" transform="translate(394.287109 0)"/>
      <use xlink:href="#DejaVuSerif-63" transform="translate(453.466797 0)"/>
      <use xlink:href="#DejaVuSerif-43" transform="translate(509.472656 0)"/>
      <use xlink:href="#DejaVuSerif-4c" transform="translate(585.986328 0)"/>
      <use xlink:href="#DejaVuSerif-20" transform="translate(652.392578 0)"/>
      <use xlink:href="#DejaVuSerif-28" transform="translate(684.179688 0)"/>
      <use xlink:href="#DejaVuSerif-31" transform="translate(723.193359 0)"/>
      <use xlink:href="#DejaVuSerif-30" transform="translate(786.816406 0)"/>
      <use xlink:href="#DejaVuSerif-4b" transform="translate(850.439453 0)"/>
      <use xlink:href="#DejaVuSerif-29" transform="translate(925.146484 0)"/>
     </g>
    </g>
   </g>
  </g>
  <g id="axes_2">
   <g id="patch_16">
    <path d="M 364.15125 283.988311 
L 633.65875 283.988311 
L 633.65875 67.611689 
L 364.15125 67.611689 
z
" style="fill: #ffffff"/>
   </g>
   <g id="patch_17">
    <path d="M 376.401591 101.4208 
L 439.921877 101.4208 
L 439.921877 274.15301 
L 376.401591 274.15301 
z
" clip-path="url(#pd3693654db)" style="fill: #f44336; stroke: #ffffff; stroke-linejoin: miter"/>
   </g>
   <g id="patch_18">
    <path d="M 467.144857 101.4208 
L 530.665143 101.4208 
L 530.665143 274.15301 
L 467.144857 274.15301 
z
" clip-path="url(#pd3693654db)" style="fill: #f44336; stroke: #ffffff; stroke-linejoin: miter"/>
   </g>
   <g id="patch_19">
    <path d="M 557.888123 101.4208 
L 621.408409 101.4208 
L 621.408409 77.44699 
L 557.888123 77.44699 
z
" clip-path="url(#pd3693654db)" style="fill: #4caf50; stroke: #ffffff; stroke-linejoin: miter"/>
   </g>
   <g id="matplotlib.axis_3">
    <g id="xtick_4">
     <g id="line2d_23">
      <path d="M 408.161734 283.988311 
L 408.161734 67.611689 
" clip-path="url(#pd3693654db)" style="fill: none; stroke-dasharray: 2.96,1.28; stroke-dashoffset: 0; stroke: #b0b0b0; stroke-opacity: 0.25; stroke-width: 0.8"/>
     </g>
     <g id="line2d_24">
      <g>
       <use xlink:href="#mb70fce14af" x="408.161734" y="283.988311" style="stroke: #000000; stroke-width: 0.8"/>
      </g>
     </g>
     <g id="text_23">
      <!-- NDCG@10 -->
      <g transform="translate(383.351968 297.826905) scale(0.09 -0.09)">
       <use xlink:href="#DejaVuSerif-4e"/>
       <use xlink:href="#DejaVuSerif-44" transform="translate(87.5 0)"/>
       <use xlink:href="#DejaVuSerif-43" transform="translate(167.675781 0)"/>
       <use xlink:href="#DejaVuSerif-47" transform="translate(244.189453 0)"/>
       <use xlink:href="#DejaVuSerif-40" transform="translate(324.072266 0)"/>
       <use xlink:href="#DejaVuSerif-31" transform="translate(424.072266 0)"/>
       <use xlink:href="#DejaVuSerif-30" transform="translate(487.695312 0)"/>
      </g>
     </g>
    </g>
    <g id="xtick_5">
     <g id="line2d_25">
      <path d="M 498.905 283.988311 
L 498.905 67.611689 
" clip-path="url(#pd3693654db)" style="fill: none; stroke-dasharray: 2.96,1.28; stroke-dashoffset: 0; stroke: #b0b0b0; stroke-opacity: 0.25; stroke-width: 0.8"/>
     </g>
     <g id="line2d_26">
      <g>
       <use xlink:href="#mb70fce14af" x="498.905" y="283.988311" style="stroke: #000000; stroke-width: 0.8"/>
      </g>
     </g>
     <g id="text_24">
      <!-- HR@10 -->
      <g transform="translate(481.36625 297.826905) scale(0.09 -0.09)">
       <use xlink:href="#DejaVuSerif-48"/>
       <use xlink:href="#DejaVuSerif-52" transform="translate(87.207031 0)"/>
       <use xlink:href="#DejaVuSerif-40" transform="translate(162.5 0)"/>
       <use xlink:href="#DejaVuSerif-31" transform="translate(262.5 0)"/>
       <use xlink:href="#DejaVuSerif-30" transform="translate(326.123047 0)"/>
      </g>
     </g>
    </g>
    <g id="xtick_6">
     <g id="line2d_27">
      <path d="M 589.648266 283.988311 
L 589.648266 67.611689 
" clip-path="url(#pd3693654db)" style="fill: none; stroke-dasharray: 2.96,1.28; stroke-dashoffset: 0; stroke: #b0b0b0; stroke-opacity: 0.25; stroke-width: 0.8"/>
     </g>
     <g id="line2d_28">
      <g>
       <use xlink:href="#mb70fce14af" x="589.648266" y="283.988311" style="stroke: #000000; stroke-width: 0.8"/>
      </g>
     </g>
     <g id="text_25">
      <!-- Novelty@10 -->
      <g transform="translate(561.779203 297.826905) scale(0.09 -0.09)">
       <use xlink:href="#DejaVuSerif-4e"/>
       <use xlink:href="#DejaVuSerif-6f" transform="translate(87.5 0)"/>
       <use xlink:href="#DejaVuSerif-76" transform="translate(147.705078 0)"/>
       <use xlink:href="#DejaVuSerif-65" transform="translate(204.199219 0)"/>
       <use xlink:href="#DejaVuSerif-6c" transform="translate(263.378906 0)"/>
       <use xlink:href="#DejaVuSerif-74" transform="translate(295.361328 0)"/>
       <use xlink:href="#DejaVuSerif-79" transform="translate(335.546875 0)"/>
       <use xlink:href="#DejaVuSerif-40" transform="translate(392.041016 0)"/>
       <use xlink:href="#DejaVuSerif-31" transform="translate(492.041016 0)"/>
       <use xlink:href="#DejaVuSerif-30" transform="translate(555.664062 0)"/>
      </g>
     </g>
    </g>
   </g>
   <g id="matplotlib.axis_4">
    <g id="ytick_7">
     <g id="line2d_29">
      <path d="M 364.15125 274.15301 
L 633.65875 274.15301 
" clip-path="url(#pd3693654db)" style="fill: none; stroke-dasharray: 2.96,1.28; stroke-dashoffset: 0; stroke: #b0b0b0; stroke-opacity: 0.25; stroke-width: 0.8"/>
     </g>
     <g id="line2d_30">
      <g>
       <use xlink:href="#m613f3a1ca4" x="364.15125" y="274.15301" style="stroke: #000000; stroke-width: 0.8"/>
      </g>
     </g>
     <g id="text_26">
      <!-- −40 -->
      <g transform="translate(338.157031 277.572307) scale(0.09 -0.09)">
       <defs>
        <path id="DejaVuSerif-2212" d="M 678 2259 
L 4684 2259 
L 4684 1753 
L 678 1753 
L 678 2259 
z
" transform="scale(0.015625)"/>
       </defs>
       <use xlink:href="#DejaVuSerif-2212"/>
       <use xlink:href="#DejaVuSerif-34" transform="translate(83.789062 0)"/>
       <use xlink:href="#DejaVuSerif-30" transform="translate(147.412109 0)"/>
      </g>
     </g>
    </g>
    <g id="ytick_8">
     <g id="line2d_31">
      <path d="M 364.15125 230.969958 
L 633.65875 230.969958 
" clip-path="url(#pd3693654db)" style="fill: none; stroke-dasharray: 2.96,1.28; stroke-dashoffset: 0; stroke: #b0b0b0; stroke-opacity: 0.25; stroke-width: 0.8"/>
     </g>
     <g id="line2d_32">
      <g>
       <use xlink:href="#m613f3a1ca4" x="364.15125" y="230.969958" style="stroke: #000000; stroke-width: 0.8"/>
      </g>
     </g>
     <g id="text_27">
      <!-- −30 -->
      <g transform="translate(338.157031 234.389254) scale(0.09 -0.09)">
       <use xlink:href="#DejaVuSerif-2212"/>
       <use xlink:href="#DejaVuSerif-33" transform="translate(83.789062 0)"/>
       <use xlink:href="#DejaVuSerif-30" transform="translate(147.412109 0)"/>
      </g>
     </g>
    </g>
    <g id="ytick_9">
     <g id="line2d_33">
      <path d="M 364.15125 187.786905 
L 633.65875 187.786905 
" clip-path="url(#pd3693654db)" style="fill: none; stroke-dasharray: 2.96,1.28; stroke-dashoffset: 0; stroke: #b0b0b0; stroke-opacity: 0.25; stroke-width: 0.8"/>
     </g>
     <g id="line2d_34">
      <g>
       <use xlink:href="#m613f3a1ca4" x="364.15125" y="187.786905" style="stroke: #000000; stroke-width: 0.8"/>
      </g>
     </g>
     <g id="text_28">
      <!-- −20 -->
      <g transform="translate(338.157031 191.206202) scale(0.09 -0.09)">
       <use xlink:href="#DejaVuSerif-2212"/>
       <use xlink:href="#DejaVuSerif-32" transform="translate(83.789062 0)"/>
       <use xlink:href="#DejaVuSerif-30" transform="translate(147.412109 0)"/>
      </g>
     </g>
    </g>
    <g id="ytick_10">
     <g id="line2d_35">
      <path d="M 364.15125 144.603853 
L 633.65875 144.603853 
" clip-path="url(#pd3693654db)" style="fill: none; stroke-dasharray: 2.96,1.28; stroke-dashoffset: 0; stroke: #b0b0b0; stroke-opacity: 0.25; stroke-width: 0.8"/>
     </g>
     <g id="line2d_36">
      <g>
       <use xlink:href="#m613f3a1ca4" x="364.15125" y="144.603853" style="stroke: #000000; stroke-width: 0.8"/>
      </g>
     </g>
     <g id="text_29">
      <!-- −10 -->
      <g transform="translate(338.157031 148.02315) scale(0.09 -0.09)">
       <use xlink:href="#DejaVuSerif-2212"/>
       <use xlink:href="#DejaVuSerif-31" transform="translate(83.789062 0)"/>
       <use xlink:href="#DejaVuSerif-30" transform="translate(147.412109 0)"/>
      </g>
     </g>
    </g>
    <g id="ytick_11">
     <g id="line2d_37">
      <path d="M 364.15125 101.4208 
L 633.65875 101.4208 
" clip-path="url(#pd3693654db)" style="fill: none; stroke-dasharray: 2.96,1.28; stroke-dashoffset: 0; stroke: #b0b0b0; stroke-opacity: 0.25; stroke-width: 0.8"/>
     </g>
     <g id="line2d_38">
      <g>
       <use xlink:href="#m613f3a1ca4" x="364.15125" y="101.4208" style="stroke: #000000; stroke-width: 0.8"/>
      </g>
     </g>
     <g id="text_30">
      <!-- 0 -->
      <g transform="translate(351.425 104.840097) scale(0.09 -0.09)">
       <use xlink:href="#DejaVuSerif-30"/>
      </g>
     </g>
    </g>
    <g id="text_31">
     <!-- Relative Change (%) -->
     <g transform="translate(331.712969 232.929531) rotate(-90) scale(0.11 -0.11)">
      <defs>
       <path id="DejaVuSerif-69" d="M 622 4353 
Q 622 4497 726 4603 
Q 831 4709 978 4709 
Q 1122 4709 1226 4603 
Q 1331 4497 1331 4353 
Q 1331 4206 1228 4103 
Q 1125 4000 978 4000 
Q 831 4000 726 4103 
Q 622 4206 622 4353 
z
M 1356 331 
L 1900 331 
L 1900 0 
L 231 0 
L 231 331 
L 781 331 
L 781 2988 
L 231 2988 
L 231 3322 
L 1356 3322 
L 1356 331 
z
" transform="scale(0.015625)"/>
       <path id="DejaVuSerif-68" d="M 263 0 
L 263 331 
L 781 331 
L 781 4531 
L 231 4531 
L 231 4863 
L 1356 4863 
L 1356 2731 
Q 1516 3069 1770 3241 
Q 2025 3413 2363 3413 
Q 2913 3413 3172 3097 
Q 3431 2781 3431 2113 
L 3431 331 
L 3944 331 
L 3944 0 
L 2356 0 
L 2356 331 
L 2853 331 
L 2853 1931 
Q 2853 2541 2704 2764 
Q 2556 2988 2175 2988 
Q 1775 2988 1565 2697 
Q 1356 2406 1356 1850 
L 1356 331 
L 1856 331 
L 1856 0 
L 263 0 
z
" transform="scale(0.015625)"/>
       <path id="DejaVuSerif-67" d="M 3359 2988 
L 3359 72 
Q 3359 -644 2965 -1033 
Q 2572 -1422 1844 -1422 
Q 1516 -1422 1216 -1362 
Q 916 -1303 641 -1184 
L 641 -488 
L 941 -488 
Q 997 -813 1206 -963 
Q 1416 -1113 1806 -1113 
Q 2313 -1113 2548 -827 
Q 2784 -541 2784 72 
L 2784 519 
Q 2616 206 2355 57 
Q 2094 -91 1709 -91 
Q 1097 -91 708 395 
Q 319 881 319 1663 
Q 319 2444 706 2928 
Q 1094 3413 1709 3413 
Q 2094 3413 2355 3264 
Q 2616 3116 2784 2803 
L 2784 3322 
L 3909 3322 
L 3909 2988 
L 3359 2988 
z
M 2784 1825 
Q 2784 2422 2554 2737 
Q 2325 3053 1888 3053 
Q 1444 3053 1217 2703 
Q 991 2353 991 1663 
Q 991 975 1217 622 
Q 1444 269 1888 269 
Q 2325 269 2554 583 
Q 2784 897 2784 1497 
L 2784 1825 
z
" transform="scale(0.015625)"/>
       <path id="DejaVuSerif-25" d="M 1434 4459 
Q 1159 4459 1004 4200 
Q 850 3941 850 3475 
Q 850 3016 1008 2753 
Q 1166 2491 1434 2491 
Q 1700 2491 1854 2752 
Q 2009 3013 2009 3475 
Q 2009 3938 1854 4198 
Q 1700 4459 1434 4459 
z
M 4653 2169 
Q 4381 2169 4226 1906 
Q 4072 1644 4072 1178 
Q 4072 719 4228 458 
Q 4384 197 4653 197 
Q 4922 197 5075 458 
Q 5228 719 5228 1178 
Q 5228 1641 5073 1905 
Q 4919 2169 4653 2169 
z
M 4653 2450 
Q 5147 2450 5437 2106 
Q 5728 1763 5728 1178 
Q 5728 594 5436 251 
Q 5144 -91 4653 -91 
Q 4153 -91 3862 251 
Q 3572 594 3572 1178 
Q 3572 1766 3864 2108 
Q 4156 2450 4653 2450 
z
M 4263 4750 
L 4738 4750 
L 1819 -91 
L 1344 -91 
L 4263 4750 
z
M 1428 4750 
Q 1922 4750 2215 4408 
Q 2509 4066 2509 3481 
Q 2509 2891 2217 2550 
Q 1925 2209 1428 2209 
Q 931 2209 642 2551 
Q 353 2894 353 3481 
Q 353 4063 643 4406 
Q 934 4750 1428 4750 
z
" transform="scale(0.015625)"/>
      </defs>
      <use xlink:href="#DejaVuSerif-52"/>
      <use xlink:href="#DejaVuSerif-65" transform="translate(75.292969 0)"/>
      <use xlink:href="#DejaVuSerif-6c" transform="translate(134.472656 0)"/>
      <use xlink:href="#DejaVuSerif-61" transform="translate(166.455078 0)"/>
      <use xlink:href="#DejaVuSerif-74" transform="translate(226.074219 0)"/>
      <use xlink:href="#DejaVuSerif-69" transform="translate(266.259766 0)"/>
      <use xlink:href="#DejaVuSerif-76" transform="translate(298.242188 0)"/>
      <use xlink:href="#DejaVuSerif-65" transform="translate(354.736328 0)"/>
      <use xlink:href="#DejaVuSerif-20" transform="translate(413.916016 0)"/>
      <use xlink:href="#DejaVuSerif-43" transform="translate(445.703125 0)"/>
      <use xlink:href="#DejaVuSerif-68" transform="translate(522.216797 0)"/>
      <use xlink:href="#DejaVuSerif-61" transform="translate(586.621094 0)"/>
      <use xlink:href="#DejaVuSerif-6e" transform="translate(646.240234 0)"/>
      <use xlink:href="#DejaVuSerif-67" transform="translate(710.644531 0)"/>
      <use xlink:href="#DejaVuSerif-65" transform="translate(774.658203 0)"/>
      <use xlink:href="#DejaVuSerif-20" transform="translate(833.837891 0)"/>
      <use xlink:href="#DejaVuSerif-28" transform="translate(865.625 0)"/>
      <use xlink:href="#DejaVuSerif-25" transform="translate(904.638672 0)"/>
      <use xlink:href="#DejaVuSerif-29" transform="translate(999.658203 0)"/>
     </g>
    </g>
   </g>
   <g id="line2d_39">
    <path d="M 364.15125 101.4208 
L 633.65875 101.4208 
" clip-path="url(#pd3693654db)" style="fill: none; stroke: #000000; stroke-width: 0.8; stroke-linecap: square"/>
   </g>
   <g id="patch_20">
    <path d="M 364.15125 283.988311 
L 364.15125 67.611689 
" style="fill: none; stroke: #000000; stroke-width: 0.8; stroke-linejoin: miter; stroke-linecap: square"/>
   </g>
   <g id="patch_21">
    <path d="M 633.65875 283.988311 
L 633.65875 67.611689 
" style="fill: none; stroke: #000000; stroke-width: 0.8; stroke-linejoin: miter; stroke-linecap: square"/>
   </g>
   <g id="patch_22">
    <path d="M 364.15125 283.988311 
L 633.65875 283.988311 
" style="fill: none; stroke: #000000; stroke-width: 0.8; stroke-linejoin: miter; stroke-linecap: square"/>
   </g>
   <g id="patch_23">
    <path d="M 364.15125 67.611689 
L 633.65875 67.611689 
" style="fill: none; stroke: #000000; stroke-width: 0.8; stroke-linejoin: miter; stroke-linecap: square"/>
   </g>
   <g id="text_32">
    <!-- -40.0% -->
    <g transform="translate(391.058922 293.946519) scale(0.09 -0.09)">
     <defs>
      <path id="DejaVuSerif-Bold-2d" d="M 347 2138 
L 2309 2138 
L 2309 1294 
L 347 1294 
L 347 2138 
z
" transform="scale(0.015625)"/>
      <path id="DejaVuSerif-Bold-34" d="M 4084 0 
L 1516 0 
L 1516 378 
L 2209 378 
L 2209 1228 
L 263 1228 
L 263 1588 
L 2216 4750 
L 3391 4750 
L 3391 1631 
L 4191 1631 
L 4191 1228 
L 3391 1228 
L 3391 378 
L 4084 378 
L 4084 0 
z
M 2209 1631 
L 2209 3897 
L 819 1631 
L 2209 1631 
z
" transform="scale(0.015625)"/>
      <path id="DejaVuSerif-Bold-30" d="M 2228 275 
Q 2603 275 2742 615 
Q 2881 956 2881 2328 
Q 2881 3691 2742 4037 
Q 2603 4384 2228 4384 
Q 1853 4384 1714 4043 
Q 1575 3703 1575 2328 
Q 1575 956 1714 615 
Q 1853 275 2228 275 
z
M 2228 -91 
Q 1294 -91 797 532 
Q 300 1156 300 2328 
Q 300 3500 797 4125 
Q 1294 4750 2228 4750 
Q 3159 4750 3656 4125 
Q 4153 3500 4153 2328 
Q 4153 1156 3656 532 
Q 3159 -91 2228 -91 
z
" transform="scale(0.015625)"/>
      <path id="DejaVuSerif-Bold-25" d="M 1381 4434 
Q 1181 4434 1093 4217 
Q 1006 4000 1006 3481 
Q 1006 2959 1093 2740 
Q 1181 2522 1381 2522 
Q 1584 2522 1671 2740 
Q 1759 2959 1759 3481 
Q 1759 4000 1671 4217 
Q 1584 4434 1381 4434 
z
M 1381 4750 
Q 1978 4750 2295 4423 
Q 2613 4097 2613 3481 
Q 2613 2866 2295 2537 
Q 1978 2209 1381 2209 
Q 788 2209 470 2537 
Q 153 2866 153 3481 
Q 153 4097 470 4423 
Q 788 4750 1381 4750 
z
M 4231 4750 
L 4769 4750 
L 1850 -91 
L 1313 -91 
L 4231 4750 
z
M 4697 2450 
Q 5294 2450 5609 2123 
Q 5925 1797 5925 1184 
Q 5925 569 5609 239 
Q 5294 -91 4697 -91 
Q 4103 -91 3786 239 
Q 3469 569 3469 1184 
Q 3469 1797 3786 2123 
Q 4103 2450 4697 2450 
z
M 4697 2138 
Q 4494 2138 4406 1920 
Q 4319 1703 4319 1184 
Q 4319 663 4408 444 
Q 4497 225 4697 225 
Q 4900 225 4987 444 
Q 5075 663 5075 1184 
Q 5075 1703 4987 1920 
Q 4900 2138 4697 2138 
z
" transform="scale(0.015625)"/>
     </defs>
     <use xlink:href="#DejaVuSerif-Bold-2d"/>
     <use xlink:href="#DejaVuSerif-Bold-34" transform="translate(41.503906 0)"/>
     <use xlink:href="#DejaVuSerif-Bold-30" transform="translate(111.083984 0)"/>
     <use xlink:href="#DejaVuSerif-Bold-2e" transform="translate(180.664062 0)"/>
     <use xlink:href="#DejaVuSerif-Bold-30" transform="translate(215.478516 0)"/>
     <use xlink:href="#DejaVuSerif-Bold-25" transform="translate(285.058594 0)"/>
    </g>
   </g>
   <g id="text_33">
    <!-- -40.0% -->
    <g transform="translate(481.802188 293.946519) scale(0.09 -0.09)">
     <use xlink:href="#DejaVuSerif-Bold-2d"/>
     <use xlink:href="#DejaVuSerif-Bold-34" transform="translate(41.503906 0)"/>
     <use xlink:href="#DejaVuSerif-Bold-30" transform="translate(111.083984 0)"/>
     <use xlink:href="#DejaVuSerif-Bold-2e" transform="translate(180.664062 0)"/>
     <use xlink:href="#DejaVuSerif-Bold-30" transform="translate(215.478516 0)"/>
     <use xlink:href="#DejaVuSerif-Bold-25" transform="translate(285.058594 0)"/>
    </g>
   </g>
   <g id="text_34">
    <!-- +5.6% -->
    <g transform="translate(573.77311 62.620356) scale(0.09 -0.09)">
     <defs>
      <path id="DejaVuSerif-Bold-2b" d="M 3041 4013 
L 3041 2369 
L 4684 2369 
L 4684 1650 
L 3041 1650 
L 3041 6 
L 2322 6 
L 2322 1650 
L 678 1650 
L 678 2369 
L 2322 2369 
L 2322 4013 
L 3041 4013 
z
" transform="scale(0.015625)"/>
      <path id="DejaVuSerif-Bold-35" d="M 3609 4666 
L 3609 3847 
L 1113 3847 
L 1113 2822 
Q 1319 2981 1572 3062 
Q 1825 3144 2106 3144 
Q 2969 3144 3469 2708 
Q 3969 2272 3969 1522 
Q 3969 759 3469 334 
Q 2969 -91 2069 -91 
Q 1688 -91 1311 -28 
Q 934 34 525 166 
L 525 1184 
L 900 1184 
Q 919 725 1139 500 
Q 1359 275 1791 275 
Q 2250 275 2472 583 
Q 2694 891 2694 1522 
Q 2694 2144 2476 2451 
Q 2259 2759 1819 2759 
Q 1581 2759 1395 2661 
Q 1209 2563 1050 2356 
L 738 2356 
L 738 4666 
L 3609 4666 
z
" transform="scale(0.015625)"/>
      <path id="DejaVuSerif-Bold-36" d="M 1575 2766 
Q 1778 2928 2029 3009 
Q 2281 3091 2578 3091 
Q 3294 3091 3701 2672 
Q 4109 2253 4109 1522 
Q 4109 750 3650 329 
Q 3191 -91 2344 -91 
Q 1388 -91 895 486 
Q 403 1063 403 2181 
Q 403 3453 950 4101 
Q 1497 4750 2572 4750 
Q 2853 4750 3175 4703 
Q 3497 4656 3866 4563 
L 3866 3738 
L 3488 3738 
Q 3409 4056 3192 4220 
Q 2975 4384 2631 4384 
Q 2075 4384 1826 4003 
Q 1578 3622 1575 2766 
z
M 2272 275 
Q 2594 275 2731 548 
Q 2869 822 2869 1497 
Q 2869 2172 2731 2445 
Q 2594 2719 2272 2719 
Q 1950 2719 1814 2445 
Q 1678 2172 1678 1497 
Q 1678 822 1814 548 
Q 1950 275 2272 275 
z
" transform="scale(0.015625)"/>
     </defs>
     <use xlink:href="#DejaVuSerif-Bold-2b"/>
     <use xlink:href="#DejaVuSerif-Bold-35" transform="translate(83.789062 0)"/>
     <use xlink:href="#DejaVuSerif-Bold-2e" transform="translate(153.369141 0)"/>
     <use xlink:href="#DejaVuSerif-Bold-36" transform="translate(188.183594 0)"/>
     <use xlink:href="#DejaVuSerif-Bold-25" transform="translate(257.763672 0)"/>
    </g>
   </g>
   <g id="text_35">
    <!-- d=-0.026 -->
    <g style="fill: #555555" transform="translate(391.785562 308.699452) scale(0.07 -0.07)">
     <defs>
      <path id="DejaVuSerif-Italic-64" d="M 3841 4863 
L 2897 0 
L 2322 0 
L 2422 519 
Q 2191 206 1902 57 
Q 1613 -91 1228 -91 
Q 616 -91 322 394 
Q 125 716 125 1166 
Q 125 1397 178 1663 
Q 331 2444 812 2928 
Q 1294 3413 1909 3413 
Q 2294 3413 2525 3264 
Q 2756 3116 2866 2803 
L 3200 4531 
L 2656 4531 
L 2722 4863 
L 3841 4863 
z
M 2613 1497 
L 2675 1825 
Q 2722 2069 2722 2266 
Q 2722 2550 2622 2738 
Q 2456 3053 2019 3053 
Q 1575 3053 1279 2703 
Q 984 2353 850 1663 
Q 788 1347 788 1103 
Q 788 813 875 622 
Q 1031 269 1475 269 
Q 1913 269 2203 583 
Q 2494 897 2613 1497 
z
" transform="scale(0.015625)"/>
      <path id="DejaVuSerif-Italic-3d" d="M 678 2894 
L 4684 2894 
L 4684 2394 
L 678 2394 
L 678 2894 
z
M 678 1619 
L 4684 1619 
L 4684 1119 
L 678 1119 
L 678 1619 
z
" transform="scale(0.015625)"/>
      <path id="DejaVuSerif-Italic-2d" d="M 328 1959 
L 1928 1959 
L 1834 1472 
L 234 1472 
L 328 1959 
z
" transform="scale(0.015625)"/>
      <path id="DejaVuSerif-Italic-30" d="M 1011 744 
Q 1147 219 1625 219 
Q 2103 219 2442 744 
Q 2781 1269 2988 2328 
Q 3194 3391 3058 3916 
Q 2922 4441 2444 4441 
Q 1966 4441 1627 3916 
Q 1288 3391 1081 2328 
Q 875 1269 1011 744 
z
M 1563 -91 
Q 803 -91 501 546 
Q 200 1184 422 2328 
Q 644 3475 1195 4112 
Q 1747 4750 2506 4750 
Q 3269 4750 3569 4112 
Q 3869 3475 3647 2328 
Q 3425 1184 2875 546 
Q 2325 -91 1563 -91 
z
" transform="scale(0.015625)"/>
      <path id="DejaVuSerif-Italic-2e" d="M 664 29 
Q 569 150 603 325 
Q 638 500 780 622 
Q 922 744 1100 744 
Q 1272 744 1370 622 
Q 1469 500 1434 325 
Q 1400 153 1254 31 
Q 1109 -91 938 -91 
Q 759 -91 664 29 
z
" transform="scale(0.015625)"/>
      <path id="DejaVuSerif-Italic-32" d="M 1050 3553 
L 700 3553 
L 863 4384 
Q 1231 4563 1589 4656 
Q 1947 4750 2272 4750 
Q 3000 4750 3353 4397 
Q 3706 4044 3588 3438 
Q 3456 2753 2313 1800 
Q 2225 1728 2178 1691 
L 772 513 
L 2719 513 
L 2831 1088 
L 3197 1088 
L 2984 0 
L -25 0 
L 41 341 
L 1731 1753 
Q 2291 2222 2567 2614 
Q 2844 3006 2928 3438 
Q 3019 3909 2825 4175 
Q 2631 4441 2200 4441 
Q 1753 4441 1467 4219 
Q 1181 3997 1050 3553 
z
" transform="scale(0.015625)"/>
      <path id="DejaVuSerif-Italic-36" d="M 1070 553 
Q 1244 219 1684 219 
Q 2125 219 2425 542 
Q 2725 866 2842 1472 
Q 2959 2078 2786 2401 
Q 2613 2725 2172 2725 
Q 1725 2725 1429 2412 
Q 1134 2100 1019 1509 
Q 897 888 1070 553 
z
M 1122 2569 
Q 1378 2803 1670 2918 
Q 1963 3034 2300 3034 
Q 2997 3034 3320 2615 
Q 3644 2197 3503 1472 
Q 3366 763 2845 336 
Q 2325 -91 1597 -91 
Q 806 -91 497 498 
Q 188 1088 400 2181 
Q 638 3406 1272 4078 
Q 1906 4750 2822 4750 
Q 3069 4750 3331 4703 
Q 3594 4656 3859 4563 
L 3709 3794 
L 3356 3794 
Q 3381 4109 3209 4275 
Q 3038 4441 2694 4441 
Q 2088 4441 1702 3981 
Q 1316 3522 1122 2569 
z
" transform="scale(0.015625)"/>
     </defs>
     <use xlink:href="#DejaVuSerif-Italic-64"/>
     <use xlink:href="#DejaVuSerif-Italic-3d" transform="translate(64.013672 0)"/>
     <use xlink:href="#DejaVuSerif-Italic-2d" transform="translate(147.802734 0)"/>
     <use xlink:href="#DejaVuSerif-Italic-30" transform="translate(181.591797 0)"/>
     <use xlink:href="#DejaVuSerif-Italic-2e" transform="translate(245.214844 0)"/>
     <use xlink:href="#DejaVuSerif-Italic-30" transform="translate(277.001953 0)"/>
     <use xlink:href="#DejaVuSerif-Italic-32" transform="translate(340.625 0)"/>
     <use xlink:href="#DejaVuSerif-Italic-36" transform="translate(404.248047 0)"/>
    </g>
   </g>
   <g id="text_36">
    <!-- d=-0.026 -->
    <g style="fill: #555555" transform="translate(482.528828 308.699452) scale(0.07 -0.07)">
     <use xlink:href="#DejaVuSerif-Italic-64"/>
     <use xlink:href="#DejaVuSerif-Italic-3d" transform="translate(64.013672 0)"/>
     <use xlink:href="#DejaVuSerif-Italic-2d" transform="translate(147.802734 0)"/>
     <use xlink:href="#DejaVuSerif-Italic-30" transform="translate(181.591797 0)"/>
     <use xlink:href="#DejaVuSerif-Italic-2e" transform="translate(245.214844 0)"/>
     <use xlink:href="#DejaVuSerif-Italic-30" transform="translate(277.001953 0)"/>
     <use xlink:href="#DejaVuSerif-Italic-32" transform="translate(340.625 0)"/>
     <use xlink:href="#DejaVuSerif-Italic-36" transform="translate(404.248047 0)"/>
    </g>
   </g>
   <g id="text_37">
    <!-- d=+0.133 -->
    <g style="fill: #555555" transform="translate(571.522094 42.900548) scale(0.07 -0.07)">
     <defs>
      <path id="DejaVuSerif-Italic-2b" d="M 2931 4013 
L 2931 2259 
L 4684 2259 
L 4684 1753 
L 2931 1753 
L 2931 0 
L 2431 0 
L 2431 1753 
L 678 1753 
L 678 2259 
L 2431 2259 
L 2431 4013 
L 2931 4013 
z
" transform="scale(0.015625)"/>
      <path id="DejaVuSerif-Italic-31" d="M 447 0 
L 513 331 
L 1325 331 
L 2078 4213 
L 1019 3603 
L 1100 4013 
L 2381 4750 
L 2813 4750 
L 1953 331 
L 2766 331 
L 2700 0 
L 447 0 
z
" transform="scale(0.015625)"/>
      <path id="DejaVuSerif-Italic-33" d="M 1038 4469 
Q 1431 4606 1781 4678 
Q 2131 4750 2425 4750 
Q 3109 4750 3436 4454 
Q 3763 4159 3659 3634 
Q 3578 3213 3258 2930 
Q 2938 2647 2431 2547 
Q 2988 2466 3241 2130 
Q 3494 1794 3388 1259 
Q 3263 606 2755 257 
Q 2247 -91 1422 -91 
Q 1056 -91 723 -12 
Q 391 66 78 225 
L 253 1131 
L 603 1131 
Q 547 681 775 450 
Q 1003 219 1497 219 
Q 1975 219 2304 495 
Q 2634 772 2728 1253 
Q 2834 1803 2604 2086 
Q 2375 2369 1825 2369 
L 1528 2369 
L 1591 2688 
L 1747 2688 
Q 2294 2688 2611 2914 
Q 2928 3141 3019 3597 
Q 3097 4006 2914 4223 
Q 2731 4441 2309 4441 
Q 1888 4441 1616 4241 
Q 1344 4041 1228 3647 
L 878 3647 
L 1038 4469 
z
" transform="scale(0.015625)"/>
     </defs>
     <use xlink:href="#DejaVuSerif-Italic-64"/>
     <use xlink:href="#DejaVuSerif-Italic-3d" transform="translate(64.013672 0)"/>
     <use xlink:href="#DejaVuSerif-Italic-2b" transform="translate(147.802734 0)"/>
     <use xlink:href="#DejaVuSerif-Italic-30" transform="translate(231.591797 0)"/>
     <use xlink:href="#DejaVuSerif-Italic-2e" transform="translate(295.214844 0)"/>
     <use xlink:href="#DejaVuSerif-Italic-31" transform="translate(327.001953 0)"/>
     <use xlink:href="#DejaVuSerif-Italic-33" transform="translate(390.625 0)"/>
     <use xlink:href="#DejaVuSerif-Italic-33" transform="translate(454.248047 0)"/>
    </g>
   </g>
   <g id="text_38">
    <!-- (b) Relative Change vs Base (with Cohen's d) -->
    <g transform="translate(361.758125 61.611689) scale(0.12 -0.12)">
     <defs>
      <path id="DejaVuSerif-62" d="M 738 331 
L 738 4531 
L 184 4531 
L 184 4863 
L 1313 4863 
L 1313 2803 
Q 1481 3116 1742 3264 
Q 2003 3413 2388 3413 
Q 3000 3413 3387 2928 
Q 3775 2444 3775 1663 
Q 3775 881 3387 395 
Q 3000 -91 2388 -91 
Q 2003 -91 1742 57 
Q 1481 206 1313 519 
L 1313 0 
L 184 0 
L 184 331 
L 738 331 
z
M 1313 1497 
Q 1313 897 1542 583 
Q 1772 269 2209 269 
Q 2650 269 2876 622 
Q 3103 975 3103 1663 
Q 3103 2353 2876 2703 
Q 2650 3053 2209 3053 
Q 1772 3053 1542 2737 
Q 1313 2422 1313 1825 
L 1313 1497 
z
" transform="scale(0.015625)"/>
      <path id="DejaVuSerif-77" d="M 3072 3322 
L 3922 728 
L 4672 2988 
L 4191 2988 
L 4191 3322 
L 5394 3322 
L 5394 2988 
L 5025 2988 
L 4038 0 
L 3559 0 
L 2741 2484 
L 1919 0 
L 1459 0 
L 475 2988 
L 103 2988 
L 103 3322 
L 1606 3322 
L 1606 2988 
L 1069 2988 
L 1813 728 
L 2669 3322 
L 3072 3322 
z
" transform="scale(0.015625)"/>
      <path id="DejaVuSerif-27" d="M 1125 4666 
L 1125 2931 
L 628 2931 
L 628 4666 
L 1125 4666 
z
" transform="scale(0.015625)"/>
      <path id="DejaVuSerif-64" d="M 3359 331 
L 3909 331 
L 3909 0 
L 2784 0 
L 2784 519 
Q 2616 206 2355 57 
Q 2094 -91 1709 -91 
Q 1097 -91 708 395 
Q 319 881 319 1663 
Q 319 2444 706 2928 
Q 1094 3413 1709 3413 
Q 2094 3413 2355 3264 
Q 2616 3116 2784 2803 
L 2784 4531 
L 2241 4531 
L 2241 4863 
L 3359 4863 
L 3359 331 
z
M 2784 1497 
L 2784 1825 
Q 2784 2422 2554 2737 
Q 2325 3053 1888 3053 
Q 1444 3053 1217 2703 
Q 991 2353 991 1663 
Q 991 975 1217 622 
Q 1444 269 1888 269 
Q 2325 269 2554 583 
Q 2784 897 2784 1497 
z
" transform="scale(0.015625)"/>
     </defs>
     <use xlink:href="#DejaVuSerif-28"/>
     <use xlink:href="#DejaVuSerif-62" transform="translate(39.013672 0)"/>
     <use xlink:href="#DejaVuSerif-29" transform="translate(103.027344 0)"/>
     <use xlink:href="#DejaVuSerif-20" transform="translate(142.041016 0)"/>
     <use xlink:href="#DejaVuSerif-52" transform="translate(173.828125 0)"/>
     <use xlink:href="#DejaVuSerif-65" transform="translate(249.121094 0)"/>
     <use xlink:href="#DejaVuSerif-6c" transform="translate(308.300781 0)"/>
     <use xlink:href="#DejaVuSerif-61" transform="translate(340.283203 0)"/>
     <use xlink:href="#DejaVuSerif-74" transform="translate(399.902344 0)"/>
     <use xlink:href="#DejaVuSerif-69" transform="translate(440.087891 0)"/>
     <use xlink:href="#DejaVuSerif-76" transform="translate(472.070312 0)"/>
     <use xlink:href="#DejaVuSerif-65" transform="translate(528.564453 0)"/>
     <use xlink:href="#DejaVuSerif-20" transform="translate(587.744141 0)"/>
     <use xlink:href="#DejaVuSerif-43" transform="translate(619.53125 0)"/>
     <use xlink:href="#DejaVuSerif-68" transform="translate(696.044922 0)"/>
     <use xlink:href="#DejaVuSerif-61" transform="translate(760.449219 0)"/>
     <use xlink:href="#DejaVuSerif-6e" transform="translate(820.068359 0)"/>
     <use xlink:href="#DejaVuSerif-67" transform="translate(884.472656 0)"/>
     <use xlink:href="#DejaVuSerif-65" transform="translate(948.486328 0)"/>
     <use xlink:href="#DejaVuSerif-20" transform="translate(1007.666016 0)"/>
     <use xlink:href="#DejaVuSerif-76" transform="translate(1039.453125 0)"/>
     <use xlink:href="#DejaVuSerif-73" transform="translate(1095.947266 0)"/>
     <use xlink:href="#DejaVuSerif-20" transform="translate(1147.265625 0)"/>
     <use xlink:href="#DejaVuSerif-42" transform="translate(1179.052734 0)"/>
     <use xlink:href="#DejaVuSerif-61" transform="translate(1252.539062 0)"/>
     <use xlink:href="#DejaVuSerif-73" transform="translate(1312.158203 0)"/>
     <use xlink:href="#DejaVuSerif-65" transform="translate(1363.476562 0)"/>
     <use xlink:href="#DejaVuSerif-20" transform="translate(1422.65625 0)"/>
     <use xlink:href="#DejaVuSerif-28" transform="translate(1454.443359 0)"/>
     <use xlink:href="#DejaVuSerif-77" transform="translate(1493.457031 0)"/>
     <use xlink:href="#DejaVuSerif-69" transform="translate(1579.052734 0)"/>
     <use xlink:href="#DejaVuSerif-74" transform="translate(1611.035156 0)"/>
     <use xlink:href="#DejaVuSerif-68" transform="translate(1651.220703 0)"/>
     <use xlink:href="#DejaVuSerif-20" transform="translate(1715.625 0)"/>
     <use xlink:href="#DejaVuSerif-43" transform="translate(1747.412109 0)"/>
     <use xlink:href="#DejaVuSerif-6f" transform="translate(1823.925781 0)"/>
     <use xlink:href="#DejaVuSerif-68" transform="translate(1884.130859 0)"/>
     <use xlink:href="#DejaVuSerif-65" transform="translate(1948.535156 0)"/>
     <use xlink:href="#DejaVuSerif-6e" transform="translate(2007.714844 0)"/>
     <use xlink:href="#DejaVuSerif-27" transform="translate(2072.119141 0)"/>
     <use xlink:href="#DejaVuSerif-73" transform="translate(2099.609375 0)"/>
     <use xlink:href="#DejaVuSerif-20" transform="translate(2150.927734 0)"/>
     <use xlink:href="#DejaVuSerif-64" transform="translate(2182.714844 0)"/>
     <use xlink:href="#DejaVuSerif-29" transform="translate(2246.728516 0)"/>
    </g>
   </g>
  </g>
  <g id="text_39">
   <!-- RecCL Ablation: Effect on Key Metrics -->
   <g transform="translate(191.487813 16.318125) scale(0.12 -0.12)">
    <defs>
     <path id="DejaVuSerif-Bold-52" d="M 3397 2278 
Q 3675 2238 3865 2094 
Q 4056 1950 4197 1678 
L 4878 378 
L 5356 378 
L 5356 0 
L 3822 0 
L 3078 1409 
Q 2863 1847 2711 1967 
Q 2559 2088 2291 2088 
L 2100 2088 
L 2100 378 
L 2700 378 
L 2700 0 
L 300 0 
L 300 378 
L 897 378 
L 897 4288 
L 300 4288 
L 300 4666 
L 2963 4666 
Q 3775 4666 4217 4339 
Q 4659 4013 4659 3413 
Q 4659 2925 4345 2642 
Q 4031 2359 3397 2278 
z
M 2100 2463 
L 2509 2463 
Q 2947 2463 3183 2700 
Q 3419 2938 3419 3378 
Q 3419 3819 3183 4053 
Q 2947 4288 2509 4288 
L 2100 4288 
L 2100 2463 
z
" transform="scale(0.015625)"/>
     <path id="DejaVuSerif-Bold-65" d="M 2566 1875 
Q 2566 2531 2444 2795 
Q 2322 3059 2028 3059 
Q 1744 3059 1620 2800 
Q 1497 2541 1497 1931 
L 1497 1875 
L 2566 1875 
z
M 3781 1503 
L 1497 1503 
L 1497 1478 
Q 1497 834 1690 548 
Q 1884 263 2316 263 
Q 2675 263 2897 453 
Q 3119 644 3181 1006 
L 3700 1006 
Q 3566 441 3166 175 
Q 2766 -91 2047 -91 
Q 1184 -91 723 364 
Q 263 819 263 1663 
Q 263 2488 734 2950 
Q 1206 3413 2047 3413 
Q 2872 3413 3312 2927 
Q 3753 2441 3781 1503 
z
" transform="scale(0.015625)"/>
     <path id="DejaVuSerif-Bold-43" d="M 4769 1331 
Q 4584 609 4106 259 
Q 3628 -91 2822 -91 
Q 1641 -91 955 561 
Q 269 1213 269 2328 
Q 269 3447 955 4098 
Q 1641 4750 2822 4750 
Q 3238 4750 3688 4650 
Q 4138 4550 4641 4347 
L 4641 3200 
L 4244 3200 
Q 4122 3788 3800 4080 
Q 3478 4372 2950 4372 
Q 2269 4372 1937 3870 
Q 1606 3369 1606 2328 
Q 1606 1288 1937 788 
Q 2269 288 2956 288 
Q 3422 288 3717 547 
Q 4013 806 4147 1331 
L 4769 1331 
z
" transform="scale(0.015625)"/>
     <path id="DejaVuSerif-Bold-4c" d="M 300 0 
L 300 378 
L 897 378 
L 897 4288 
L 300 4288 
L 300 4666 
L 2700 4666 
L 2700 4288 
L 2100 4288 
L 2100 428 
L 3938 428 
L 3938 1166 
L 4359 1166 
L 4359 0 
L 300 0 
z
" transform="scale(0.015625)"/>
     <path id="DejaVuSerif-Bold-20" transform="scale(0.015625)"/>
     <path id="DejaVuSerif-Bold-41" d="M -50 0 
L -50 378 
L 331 378 
L 2088 4666 
L 2834 4666 
L 4594 378 
L 5038 378 
L 5038 0 
L 2853 0 
L 2853 378 
L 3309 378 
L 2925 1331 
L 1172 1331 
L 781 378 
L 1338 378 
L 1338 0 
L -50 0 
z
M 1325 1709 
L 2772 1709 
L 2053 3494 
L 1325 1709 
z
" transform="scale(0.015625)"/>
     <path id="DejaVuSerif-Bold-62" d="M 622 378 
L 622 4488 
L 147 4488 
L 147 4863 
L 1728 4863 
L 1728 2900 
Q 1869 3159 2106 3286 
Q 2344 3413 2694 3413 
Q 3403 3413 3811 2945 
Q 4219 2478 4219 1663 
Q 4219 847 3811 378 
Q 3403 -91 2694 -91 
Q 2344 -91 2106 36 
Q 1869 163 1728 422 
L 1728 0 
L 147 0 
L 147 378 
L 622 378 
z
M 1728 1497 
Q 1728 916 1876 656 
Q 2025 397 2356 397 
Q 2697 397 2836 672 
Q 2975 947 2975 1663 
Q 2975 2378 2836 2651 
Q 2697 2925 2356 2925 
Q 2025 2925 1876 2665 
Q 1728 2406 1728 1825 
L 1728 1497 
z
" transform="scale(0.015625)"/>
     <path id="DejaVuSerif-Bold-61" d="M 3525 2041 
L 3525 378 
L 4000 378 
L 4000 0 
L 2419 0 
L 2419 422 
Q 2200 159 1931 34 
Q 1663 -91 1319 -91 
Q 809 -91 536 182 
Q 263 456 263 966 
Q 263 1525 655 1803 
Q 1047 2081 1838 2081 
L 2419 2081 
L 2419 2278 
Q 2419 2681 2228 2873 
Q 2038 3066 1638 3066 
Q 1306 3066 1126 2930 
Q 947 2794 872 2484 
L 519 2484 
L 519 3200 
Q 816 3306 1134 3359 
Q 1453 3413 1806 3413 
Q 2697 3413 3111 3081 
Q 3525 2750 3525 2041 
z
M 2419 1044 
L 2419 1709 
L 2003 1709 
Q 1694 1709 1528 1540 
Q 1363 1372 1363 1056 
Q 1363 741 1483 584 
Q 1603 428 1850 428 
Q 2106 428 2262 597 
Q 2419 766 2419 1044 
z
" transform="scale(0.015625)"/>
     <path id="DejaVuSerif-Bold-74" d="M 634 2944 
L 153 2944 
L 153 3322 
L 634 3322 
L 634 4353 
L 1741 4353 
L 1741 3322 
L 2663 3322 
L 2663 2944 
L 1741 2944 
L 1741 909 
Q 1741 475 1809 369 
Q 1878 263 2059 263 
Q 2259 263 2356 397 
Q 2453 531 2459 813 
L 2925 813 
Q 2897 313 2651 111 
Q 2406 -91 1806 -91 
Q 1122 -91 878 123 
Q 634 338 634 909 
L 634 2944 
z
" transform="scale(0.015625)"/>
     <path id="DejaVuSerif-Bold-3a" d="M 588 2541 
Q 588 2788 761 2963 
Q 934 3138 1178 3138 
Q 1422 3138 1597 2961 
Q 1772 2784 1772 2541 
Q 1772 2297 1598 2125 
Q 1425 1953 1178 1953 
Q 931 1953 759 2125 
Q 588 2297 588 2541 
z
M 588 506 
Q 588 750 761 925 
Q 934 1100 1178 1100 
Q 1422 1100 1597 925 
Q 1772 750 1772 506 
Q 1772 259 1597 84 
Q 1422 -91 1178 -91 
Q 934 -91 761 84 
Q 588 259 588 506 
z
" transform="scale(0.015625)"/>
     <path id="DejaVuSerif-Bold-45" d="M 300 0 
L 300 378 
L 897 378 
L 897 4288 
L 300 4288 
L 300 4666 
L 4494 4666 
L 4494 3566 
L 4063 3566 
L 4063 4238 
L 2100 4238 
L 2100 2741 
L 3322 2741 
L 3322 3334 
L 3750 3334 
L 3750 1722 
L 3322 1722 
L 3322 2316 
L 2100 2316 
L 2100 428 
L 4122 428 
L 4122 1100 
L 4550 1100 
L 4550 0 
L 300 0 
z
" transform="scale(0.015625)"/>
     <path id="DejaVuSerif-Bold-66" d="M 3097 4031 
L 2747 4031 
Q 2722 4275 2605 4394 
Q 2488 4513 2272 4513 
Q 2022 4513 1909 4333 
Q 1797 4153 1797 3750 
L 1797 3322 
L 2631 3322 
L 2631 2944 
L 1797 2944 
L 1797 378 
L 2438 378 
L 2438 0 
L 219 0 
L 219 378 
L 691 378 
L 691 2944 
L 197 2944 
L 197 3322 
L 691 3322 
L 691 3738 
Q 691 4291 1044 4577 
Q 1397 4863 2081 4863 
Q 2347 4863 2600 4833 
Q 2853 4803 3097 4744 
L 3097 4031 
z
" transform="scale(0.015625)"/>
     <path id="DejaVuSerif-Bold-4b" d="M 300 0 
L 300 378 
L 897 378 
L 897 4288 
L 300 4288 
L 300 4666 
L 2700 4666 
L 2700 4288 
L 2100 4288 
L 2100 2584 
L 4078 4288 
L 3578 4288 
L 3578 4666 
L 5319 4666 
L 5319 4288 
L 4697 4288 
L 3022 2847 
L 5300 378 
L 5759 378 
L 5759 0 
L 4178 0 
L 2100 2266 
L 2100 378 
L 2700 378 
L 2700 0 
L 300 0 
z
" transform="scale(0.015625)"/>
     <path id="DejaVuSerif-Bold-79" d="M 1997 -750 
Q 1847 -1116 1634 -1269 
Q 1422 -1422 1063 -1422 
Q 909 -1422 721 -1387 
Q 534 -1353 313 -1288 
L 313 -594 
L 666 -597 
Q 675 -838 779 -953 
Q 884 -1069 1094 -1069 
Q 1297 -1069 1422 -958 
Q 1547 -847 1672 -538 
L 1722 -422 
L 275 2944 
L -84 2944 
L -84 3322 
L 1831 3322 
L 1831 2944 
L 1434 2944 
L 2278 978 
L 3066 2944 
L 2625 2944 
L 2625 3322 
L 3872 3322 
L 3872 2944 
L 3469 2944 
L 1997 -750 
z
" transform="scale(0.015625)"/>
     <path id="DejaVuSerif-Bold-4d" d="M 269 0 
L 269 378 
L 863 378 
L 863 4288 
L 269 4288 
L 269 4666 
L 2194 4666 
L 3525 1672 
L 4863 4666 
L 6784 4666 
L 6784 4288 
L 6188 4288 
L 6188 378 
L 6784 378 
L 6784 0 
L 4384 0 
L 4384 378 
L 4978 378 
L 4978 3938 
L 3531 684 
L 2741 684 
L 1300 3938 
L 1300 378 
L 1894 378 
L 1894 0 
L 269 0 
z
" transform="scale(0.015625)"/>
     <path id="DejaVuSerif-Bold-72" d="M 3438 3359 
L 3438 2369 
L 3084 2369 
Q 3066 2634 2941 2764 
Q 2816 2894 2578 2894 
Q 2216 2894 2006 2575 
Q 1797 2256 1797 1691 
L 1797 378 
L 2400 378 
L 2400 0 
L 219 0 
L 219 378 
L 691 378 
L 691 2944 
L 184 2944 
L 184 3322 
L 1797 3322 
L 1797 2731 
Q 1959 3078 2226 3245 
Q 2494 3413 2881 3413 
Q 2978 3413 3117 3398 
Q 3256 3384 3438 3359 
z
" transform="scale(0.015625)"/>
    </defs>
    <use xlink:href="#DejaVuSerif-Bold-52"/>
    <use xlink:href="#DejaVuSerif-Bold-65" transform="translate(83.105469 0)"/>
    <use xlink:href="#DejaVuSerif-Bold-63" transform="translate(146.728516 0)"/>
    <use xlink:href="#DejaVuSerif-Bold-43" transform="translate(207.617188 0)"/>
    <use xlink:href="#DejaVuSerif-Bold-4c" transform="translate(287.207031 0)"/>
    <use xlink:href="#DejaVuSerif-Bold-20" transform="translate(357.519531 0)"/>
    <use xlink:href="#DejaVuSerif-Bold-41" transform="translate(392.333984 0)"/>
    <use xlink:href="#DejaVuSerif-Bold-62" transform="translate(469.921875 0)"/>
    <use xlink:href="#DejaVuSerif-Bold-6c" transform="translate(539.84375 0)"/>
    <use xlink:href="#DejaVuSerif-Bold-61" transform="translate(577.832031 0)"/>
    <use xlink:href="#DejaVuSerif-Bold-74" transform="translate(642.626953 0)"/>
    <use xlink:href="#DejaVuSerif-Bold-69" transform="translate(688.818359 0)"/>
    <use xlink:href="#DejaVuSerif-Bold-6f" transform="translate(726.806641 0)"/>
    <use xlink:href="#DejaVuSerif-Bold-6e" transform="translate(793.505859 0)"/>
    <use xlink:href="#DejaVuSerif-Bold-3a" transform="translate(866.210938 0)"/>
    <use xlink:href="#DejaVuSerif-Bold-20" transform="translate(903.125 0)"/>
    <use xlink:href="#DejaVuSerif-Bold-45" transform="translate(937.939453 0)"/>
    <use xlink:href="#DejaVuSerif-Bold-66" transform="translate(1014.160156 0)"/>
    <use xlink:href="#DejaVuSerif-Bold-66" transform="translate(1057.177734 0)"/>
    <use xlink:href="#DejaVuSerif-Bold-65" transform="translate(1100.195312 0)"/>
    <use xlink:href="#DejaVuSerif-Bold-63" transform="translate(1163.818359 0)"/>
    <use xlink:href="#DejaVuSerif-Bold-74" transform="translate(1224.707031 0)"/>
    <use xlink:href="#DejaVuSerif-Bold-20" transform="translate(1270.898438 0)"/>
    <use xlink:href="#DejaVuSerif-Bold-6f" transform="translate(1305.712891 0)"/>
    <use xlink:href="#DejaVuSerif-Bold-6e" transform="translate(1372.412109 0)"/>
    <use xlink:href="#DejaVuSerif-Bold-20" transform="translate(1445.117188 0)"/>
    <use xlink:href="#DejaVuSerif-Bold-4b" transform="translate(1479.931641 0)"/>
    <use xlink:href="#DejaVuSerif-Bold-65" transform="translate(1564.595703 0)"/>
    <use xlink:href="#DejaVuSerif-Bold-79" transform="translate(1628.21875 0)"/>
    <use xlink:href="#DejaVuSerif-Bold-20" transform="translate(1686.324219 0)"/>
    <use xlink:href="#DejaVuSerif-Bold-4d" transform="translate(1721.138672 0)"/>
    <use xlink:href="#DejaVuSerif-Bold-65" transform="translate(1831.832031 0)"/>
    <use xlink:href="#DejaVuSerif-Bold-74" transform="translate(1895.455078 0)"/>
    <use xlink:href="#DejaVuSerif-Bold-72" transform="translate(1941.646484 0)"/>
    <use xlink:href="#DejaVuSerif-Bold-69" transform="translate(1994.332031 0)"/>
    <use xlink:href="#DejaVuSerif-Bold-63" transform="translate(2032.320312 0)"/>
    <use xlink:href="#DejaVuSerif-Bold-73" transform="translate(2093.208984 0)"/>
   </g>
  </g>
 </g>
 <defs>
  <clipPath id="p0ef5abe053">
   <rect x="43.15875" y="67.611689" width="269.5075" height="216.376622"/>
  </clipPath>
  <clipPath id="pd3693654db">
   <rect x="364.15125" y="67.611689" width="269.5075" height="216.376622"/>
  </clipPath>
 </defs>
</svg>
